<?xml version="1.0" encoding="UTF-8" standalone="no"?>
<svg width="40px" height="34px" viewBox="0 0 40 34" version="1.1" xmlns="http://www.w3.org/2000/svg" xmlns:xlink="http://www.w3.org/1999/xlink">
    <!-- Generator: Sketch 3.8.3 (29802) - http://www.bohemiancoding.com/sketch -->
    <title>Sales_Illustration</title>
    <desc>Created with Sketch.</desc>
    <defs></defs>
    <g id="Structure-Flow" stroke="none" stroke-width="1" fill="none" fill-rule="evenodd">
        <g id="App-Center-Public-Home" transform="translate(-538.000000, -412.000000)" fill="#FFFFFF">
            <g id="collection-1" transform="translate(80.000000, 352.000000)">
                <g id="collection-copy-3" transform="translate(325.000000, 0.000000)">
                    <g id="Sales_Illustration" transform="translate(133.000000, 60.000000)">
                        <g id="Group">
                            <path d="M2,31.993128 L2,32 L2.00992475,32 L2,31.993128 Z M2,30.2459544 L2,0 L0,0 L0,33 L0,34 L40,34 L40,32 L3.21825897,32 L11.82162,19.57477 L10.17722,18.43617 L2,30.2459544 Z M24.17684,19.39506 L32.20397,7.80204 L33.84837,8.94064 L25.82124,20.53366 L24.17684,19.39506 Z M15.30759,18.72219 L16.72179,17.30799 L19.69161,20.27781 L18.27741,21.69201 L15.30759,18.72219 Z" id="Combined-Shape"></path>
                            <path d="M13,21 C10.8,21 9,19.2 9,17 C9,14.8 10.8,13 13,13 C15.2,13 17,14.8 17,17 C17,19.2 15.2,21 13,21 L13,21 Z M13,15 C11.9,15 11,15.9 11,17 C11,18.1 11.9,19 13,19 C14.1,19 15,18.1 15,17 C15,15.9 14.1,15 13,15 L13,15 Z" id="Shape"></path>
                            <path d="M22,26 C19.8,26 18,24.2 18,22 C18,19.8 19.8,18 22,18 C24.2,18 26,19.8 26,22 C26,24.2 24.2,26 22,26 L22,26 Z M22,20 C20.9,20 20,20.9 20,22 C20,23.1 20.9,24 22,24 C23.1,24 24,23.1 24,22 C24,20.9 23.1,20 22,20 L22,20 Z" id="Shape"></path>
                            <path d="M34,10 C31.8,10 30,8.2 30,6 C30,3.8 31.8,2 34,2 C36.2,2 38,3.8 38,6 C38,8.2 36.2,10 34,10 L34,10 Z M34,4 C32.9,4 32,4.9 32,6 C32,7.1 32.9,8 34,8 C35.1,8 36,7.1 36,6 C36,4.9 35.1,4 34,4 L34,4 Z" id="Shape"></path>
                        </g>
                    </g>
                </g>
            </g>
        </g>
    </g>
</svg>