<?xml version="1.0" encoding="UTF-8" standalone="no"?>
<svg width="39px" height="42px" viewBox="0 0 39 42" version="1.1" xmlns="http://www.w3.org/2000/svg" xmlns:xlink="http://www.w3.org/1999/xlink">
    <!-- Generator: Sketch 3.8.3 (29802) - http://www.bohemiancoding.com/sketch -->
    <title>Social_Illustration</title>
    <desc>Created with Sketch.</desc>
    <defs></defs>
    <g id="Structure-Flow" stroke="none" stroke-width="1" fill="none" fill-rule="evenodd">
        <g id="App-Center-Public-Home" transform="translate(-864.000000, -409.000000)" fill="#FFFFFF">
            <g id="collection-1" transform="translate(80.000000, 352.000000)">
                <g id="collection-copy-5" transform="translate(650.000000, 0.000000)">
                    <g id="Social_Illustration" transform="translate(134.000000, 57.000000)">
                        <path d="M0,12 L7,12 L7,14 L0,14 L0,12 Z M12,0 L14,0 L14,6 L12,6 L12,0 Z M3,4.41421356 L4.41421356,3 L8.65685425,7.24264069 L7.24264069,8.65685425 L3,4.41421356 Z M15,22 L27,22 L27,24 L15,24 L15,22 Z M15,18 L33,18 L33,20 L15,20 L15,18 Z" id="Combined-Shape"></path>
                        <path d="M36,41.5 L28,33 L10,33 L10,9 L39,9 L39,33 L36,33 L36,41.5 L36,41.5 Z M12,31 L28.8,31 L34,36.5 L34,31 L37,31 L37,11 L12,11 L12,31 L12,31 Z" id="Shape"></path>
                    </g>
                </g>
            </g>
        </g>
    </g>
</svg>