<?xml version="1.0" encoding="UTF-8" standalone="no"?>
<svg width="50px" height="36px" viewBox="0 0 50 36" version="1.1" xmlns="http://www.w3.org/2000/svg" xmlns:xlink="http://www.w3.org/1999/xlink">
    <!-- Generator: Sketch 3.8.3 (29802) - http://www.bohemiancoding.com/sketch -->
    <title>SEO_Illustration</title>
    <desc>Created with Sketch.</desc>
    <defs></defs>
    <g id="Structure-Flow" stroke="none" stroke-width="1" fill="none" fill-rule="evenodd">
        <g id="App-Center-Public-Home" transform="translate(-208.000000, -412.000000)" fill="#FFFFFF">
            <g id="collection-1" transform="translate(80.000000, 352.000000)">
                <g id="collection-copy-2">
                    <g id="SEO_Illustration" transform="translate(128.000000, 60.000000)">
                        <path d="M42,10 L42,16 L44,16 L44,0 L9,0 L9,14 L11,14 L11,10 L42,10 Z M42,2 L42,8 L11,8 L11,2 L42,2 L42,2 Z" id="Shape"></path>
                        <path d="M9,20 L11,20 L11,29 L29,29 L29,31 L9,31 L9,20 Z M0,22 L4,22 L4,24 L0,24 L0,22 Z M6,22 L9,22 L9,24 L6,24 L6,22 Z M4,16 L15,16 L15,18 L4,18 L4,16 Z" id="Combined-Shape"></path>
                        <rect id="Rectangle-path" x="17" y="4" width="2" height="2"></rect>
                        <rect id="Rectangle-path" x="13" y="4" width="2" height="2"></rect>
                        <rect id="Rectangle-path" x="31" y="4" width="9" height="2"></rect>
                        <path d="M49.2,34.3 L45.3,30.4 C46.2,29.1 46.7,27.6 46.7,25.9 C46.7,21.6 43.2,18 38.8,18 C34.5,18 30.9,21.5 30.9,25.9 C30.9,30.2 34.4,33.8 38.8,33.8 C40.8,33.8 42.5,33.1 43.9,31.9 L47.7,35.7 L49.2,34.3 L49.2,34.3 Z M38.8,31.8 C35.6,31.8 32.9,29.2 32.9,25.9 C32.9,22.7 35.5,20 38.8,20 C42,20 44.7,22.6 44.7,25.9 C44.7,29.2 42.1,31.8 38.8,31.8 L38.8,31.8 Z" id="Shape"></path>
                    </g>
                </g>
            </g>
        </g>
    </g>
</svg>