<svg xmlns="http://www.w3.org/2000/svg" viewBox="0 0 3216 2968" width="500" height="461">
	<defs>
		<clipPath clipPathUnits="userSpaceOnUse" id="cp1">
			<path d="M-240 -385L3470 -385L3470 3325L-240 3325L-240 -385Z" />
		</clipPath>
		<clipPath clipPathUnits="userSpaceOnUse" id="cp2">
			<path d="M-240 -385L-240 3325L3470 3325L3470 -385L-240 -385Z" />
		</clipPath>
		<linearGradient id="grd1" gradientUnits="userSpaceOnUse"  x1="3344.62" y1="3681.08" x2="876.08" y2="615.31">
			<stop offset="0" stop-color="#e8d7ff"  />
			<stop offset="100" stop-color="#fddff8"  />
		</linearGradient>
		<linearGradient id="grd2" gradientUnits="userSpaceOnUse"  x1="820.38" y1="278.956" x2="558.825" y2="1139.067">
			<stop offset="0" stop-color="#a737d5"  />
			<stop offset="100" stop-color="#ef497a"  />
		</linearGradient>
		<linearGradient id="grd3" gradientUnits="userSpaceOnUse"  x1="770.42" y1="353.886" x2="576.92" y2="1212.017">
			<stop offset="0" stop-color="#b37cff"  />
			<stop offset="100" stop-color="#f895e7"  />
		</linearGradient>
		<linearGradient id="grd4" gradientUnits="userSpaceOnUse"  x1="771.53" y1="354.137" x2="578.03" y2="1212.27">
			<stop offset="0" stop-color="#b37cff"  />
			<stop offset="100" stop-color="#f895e7"  />
		</linearGradient>
		<linearGradient id="grd5" gradientUnits="userSpaceOnUse"  x1="1344.41" y1="-29.534" x2="1198.543" y2="629.381">
			<stop offset="0" stop-color="#a737d5"  />
			<stop offset="100" stop-color="#ef497a"  />
		</linearGradient>
		<linearGradient id="grd6" gradientUnits="userSpaceOnUse"  x1="1296.23" y1="191.905" x2="1178.841" y2="712.499">
			<stop offset="0" stop-color="#b37cff"  />
			<stop offset="100" stop-color="#f895e7"  />
		</linearGradient>
		<linearGradient id="grd7" gradientUnits="userSpaceOnUse"  x1="1296.91" y1="192.058" x2="1179.521" y2="712.654">
			<stop offset="0" stop-color="#b37cff"  />
			<stop offset="100" stop-color="#f895e7"  />
		</linearGradient>
		<linearGradient id="grd8" gradientUnits="userSpaceOnUse"  x1="1201.58" y1="1600.85" x2="849.534" y2="3073.04">
			<stop offset="0" stop-color="#53d8ff"  />
			<stop offset="100" stop-color="#3840f7"  />
		</linearGradient>
		<linearGradient id="grd9" gradientUnits="userSpaceOnUse"  x1="575.193" y1="2038.84" x2="360.645" y2="2936.043">
			<stop offset="0" stop-color="#53d8ff"  />
			<stop offset="100" stop-color="#3840f7"  />
		</linearGradient>
		<linearGradient id="grd10" gradientUnits="userSpaceOnUse"  x1="3133.32" y1="143.809" x2="1953.97" y2="4332.789">
			<stop offset="0" stop-color="#53d8ff"  />
			<stop offset="100" stop-color="#3840f7"  />
		</linearGradient>
		<linearGradient id="grd11" gradientUnits="userSpaceOnUse"  x1="1700.69" y1="1643.25" x2="1339.828" y2="3152.31">
			<stop offset="0" stop-color="#53d8ff"  />
			<stop offset="100" stop-color="#3840f7"  />
		</linearGradient>
		<linearGradient id="grd12" gradientUnits="userSpaceOnUse"  x1="2211.27" y1="1602.08" x2="1812.895" y2="3268.01">
			<stop offset="0" stop-color="#53d8ff"  />
			<stop offset="100" stop-color="#3840f7"  />
		</linearGradient>
		<linearGradient id="grd13" gradientUnits="userSpaceOnUse"  x1="2911.33" y1="-58.088" x2="1522.19" y2="4876.052">
			<stop offset="0" stop-color="#53d8ff"  />
			<stop offset="100" stop-color="#3840f7"  />
		</linearGradient>
		<linearGradient id="grd14" gradientUnits="userSpaceOnUse"  x1="2273.38" y1="2321.16" x2="2685.855" y2="1842.395">
			<stop offset="0" stop-color="#fdf53f"  />
			<stop offset="100" stop-color="#d93c65"  />
		</linearGradient>
		<linearGradient id="grd15" gradientUnits="userSpaceOnUse"  x1="2918.93" y1="1493.2" x2="1699.23" y2="3335.82">
			<stop offset="0" stop-color="#fdf53f"  />
			<stop offset="100" stop-color="#d93c65"  />
		</linearGradient>
		<linearGradient id="grd16" gradientUnits="userSpaceOnUse"  x1="2918.93" y1="1493.2" x2="1699.23" y2="3335.82">
			<stop offset="0" stop-color="#fffdd5"  />
			<stop offset="100" stop-color="#f7d4dd"  />
		</linearGradient>
		<linearGradient id="grd17" gradientUnits="userSpaceOnUse"  x1="2882.54" y1="1546" x2="2233.076" y2="2636.34">
			<stop offset="0" stop-color="#fdf53f"  />
			<stop offset="100" stop-color="#d93c65"  />
		</linearGradient>
		<linearGradient id="grd18" gradientUnits="userSpaceOnUse"  x1="2716.9" y1="2175.82" x2="2656.779" y2="2462.373">
			<stop offset="0" stop-color="#fdf53f"  />
			<stop offset="100" stop-color="#d93c65"  />
		</linearGradient>
		<linearGradient id="grd19" gradientUnits="userSpaceOnUse"  x1="2717.37" y1="2305.4" x2="2657.249" y2="2591.953">
			<stop offset="0" stop-color="#fdf53f"  />
			<stop offset="100" stop-color="#d93c65"  />
		</linearGradient>
		<linearGradient id="grd20" gradientUnits="userSpaceOnUse"  x1="2717.84" y1="2434.99" x2="2657.719" y2="2721.543">
			<stop offset="0" stop-color="#fdf53f"  />
			<stop offset="100" stop-color="#d93c65"  />
		</linearGradient>
		<linearGradient id="grd21" gradientUnits="userSpaceOnUse"  x1="2718.32" y1="2561.22" x2="2658.199" y2="2847.773">
			<stop offset="0" stop-color="#fdf53f"  />
			<stop offset="100" stop-color="#d93c65"  />
		</linearGradient>
		<linearGradient id="grd22" gradientUnits="userSpaceOnUse"  x1="2718.79" y1="2687.46" x2="2658.669" y2="2974.013">
			<stop offset="0" stop-color="#fdf53f"  />
			<stop offset="100" stop-color="#d93c65"  />
		</linearGradient>
		<linearGradient id="grd23" gradientUnits="userSpaceOnUse"  x1="1620.61" y1="2457.45" x2="2033.085" y2="1978.685">
			<stop offset="0" stop-color="#fdf53f"  />
			<stop offset="100" stop-color="#d93c65"  />
		</linearGradient>
		<linearGradient id="grd24" gradientUnits="userSpaceOnUse"  x1="2266.16" y1="1629.49" x2="1046.46" y2="3472.11">
			<stop offset="0" stop-color="#fdf53f"  />
			<stop offset="100" stop-color="#d93c65"  />
		</linearGradient>
		<linearGradient id="grd25" gradientUnits="userSpaceOnUse"  x1="2266.16" y1="1629.49" x2="1046.46" y2="3472.11">
			<stop offset="0" stop-color="#fffdd5"  />
			<stop offset="100" stop-color="#f7d4dd"  />
		</linearGradient>
		<linearGradient id="grd26" gradientUnits="userSpaceOnUse"  x1="2229.77" y1="1682.29" x2="1580.306" y2="2772.63">
			<stop offset="0" stop-color="#fdf53f"  />
			<stop offset="100" stop-color="#d93c65"  />
		</linearGradient>
		<linearGradient id="grd27" gradientUnits="userSpaceOnUse"  x1="2064.13" y1="2298.7" x2="2004.009" y2="2585.253">
			<stop offset="0" stop-color="#fdf53f"  />
			<stop offset="100" stop-color="#d93c65"  />
		</linearGradient>
		<linearGradient id="grd28" gradientUnits="userSpaceOnUse"  x1="2064.6" y1="2428.28" x2="2004.479" y2="2714.833">
			<stop offset="0" stop-color="#fdf53f"  />
			<stop offset="100" stop-color="#d93c65"  />
		</linearGradient>
		<linearGradient id="grd29" gradientUnits="userSpaceOnUse"  x1="2065.07" y1="2557.87" x2="2004.949" y2="2844.423">
			<stop offset="0" stop-color="#fdf53f"  />
			<stop offset="100" stop-color="#d93c65"  />
		</linearGradient>
		<linearGradient id="grd30" gradientUnits="userSpaceOnUse"  x1="2065.54" y1="2687.46" x2="2005.419" y2="2974.013">
			<stop offset="0" stop-color="#fdf53f"  />
			<stop offset="100" stop-color="#d93c65"  />
		</linearGradient>
		<linearGradient id="grd31" gradientUnits="userSpaceOnUse"  x1="1770.64" y1="825" x2="1444.314" y2="984.228">
			<stop offset="0" stop-color="#fdf53f"  />
			<stop offset="100" stop-color="#d93c65"  />
		</linearGradient>
		<linearGradient id="grd32" gradientUnits="userSpaceOnUse"  x1="2031.54" y1="389.82" x2="1503.401" y2="1858.55">
			<stop offset="0" stop-color="#53d8ff"  />
			<stop offset="100" stop-color="#3840f7"  />
		</linearGradient>
		<linearGradient id="grd33" gradientUnits="userSpaceOnUse"  x1="1744.74" y1="116.295" x2="1216.602" y2="1585.025">
			<stop offset="0" stop-color="#53d8ff"  />
			<stop offset="100" stop-color="#3840f7"  />
		</linearGradient>
		<linearGradient id="grd34" gradientUnits="userSpaceOnUse"  x1="1941.88" y1="509.935" x2="1503.636" y2="1984.385">
			<stop offset="0" stop-color="#fdf53f"  />
			<stop offset="100" stop-color="#d93c65"  />
		</linearGradient>
		<linearGradient id="grd35" gradientUnits="userSpaceOnUse"  x1="2050.16" y1="481.283" x2="2316.857" y2="481.283">
			<stop offset="0" stop-color="#a737d5"  />
			<stop offset="100" stop-color="#ef497a"  />
		</linearGradient>
		<linearGradient id="grd36" gradientUnits="userSpaceOnUse"  x1="2095.13" y1="626.57" x2="1887.894" y2="573.333">
			<stop offset="0" stop-color="#53d8ff"  />
			<stop offset="100" stop-color="#3840f7"  />
		</linearGradient>
		<linearGradient id="grd37" gradientUnits="userSpaceOnUse"  x1="2043.74" y1="666.47" x2="1940.283" y2="525.081">
			<stop offset="0" stop-color="#2b3582"  />
			<stop offset="100" stop-color="#150e42"  />
		</linearGradient>
		<linearGradient id="grd38" gradientUnits="userSpaceOnUse"  x1="1893.85" y1="739.11" x2="1756.942" y2="703.94">
			<stop offset="0" stop-color="#53d8ff"  />
			<stop offset="100" stop-color="#3840f7"  />
		</linearGradient>
		<linearGradient id="grd39" gradientUnits="userSpaceOnUse"  x1="1859.89" y1="765.47" x2="1791.543" y2="672.064">
			<stop offset="0" stop-color="#2b3582"  />
			<stop offset="100" stop-color="#150e42"  />
		</linearGradient>
		<linearGradient id="grd40" gradientUnits="userSpaceOnUse"  x1="1548.07" y1="2732.71" x2="1008.849" y2="3319.232">
			<stop offset="0" stop-color="#cb236d"  />
			<stop offset="100" stop-color="#4c246d"  />
		</linearGradient>
		<linearGradient id="grd41" gradientUnits="userSpaceOnUse"  x1="1373.04" y1="2776.27" x2="1420.936" y2="2776.27">
			<stop offset="0" stop-color="#f9b776"  />
			<stop offset="100" stop-color="#f47960"  />
		</linearGradient>
		<linearGradient id="grd42" gradientUnits="userSpaceOnUse"  x1="1259.47" y1="2410.04" x2="1417.839" y2="2410.04">
			<stop offset="0" stop-color="#2b3582"  />
			<stop offset="100" stop-color="#150e42"  />
		</linearGradient>
		<linearGradient id="grd43" gradientUnits="userSpaceOnUse"  x1="1427.1" y1="2621.5" x2="887.879" y2="3208.021">
			<stop offset="0" stop-color="#cb236d"  />
			<stop offset="100" stop-color="#4c246d"  />
		</linearGradient>
		<linearGradient id="grd44" gradientUnits="userSpaceOnUse"  x1="1200.42" y1="2773.82" x2="1241.774" y2="2773.82">
			<stop offset="0" stop-color="#f9b776"  />
			<stop offset="100" stop-color="#f47960"  />
		</linearGradient>
		<linearGradient id="grd45" gradientUnits="userSpaceOnUse"  x1="1155.85" y1="2404.86" x2="1380.682" y2="2404.86">
			<stop offset="0" stop-color="#2b3582"  />
			<stop offset="100" stop-color="#150e42"  />
		</linearGradient>
		<linearGradient id="grd46" gradientUnits="userSpaceOnUse"  x1="1091.92" y1="1973.68" x2="1845.57" y2="1431.304">
			<stop offset="0" stop-color="#a737d5"  />
			<stop offset="100" stop-color="#ef497a"  />
		</linearGradient>
		<linearGradient id="grd47" gradientUnits="userSpaceOnUse"  x1="1570.13" y1="1526.72" x2="1814.823" y2="1526.72">
			<stop offset="0" stop-color="#f9b776"  />
			<stop offset="100" stop-color="#f47960"  />
		</linearGradient>
		<linearGradient id="grd48" gradientUnits="userSpaceOnUse"  x1="1760.32" y1="1485.7" x2="1596.125" y2="1859.281">
			<stop offset="0" stop-color="#f9b776"  />
			<stop offset="100" stop-color="#f47960"  />
		</linearGradient>
		<linearGradient id="grd49" gradientUnits="userSpaceOnUse"  x1="1813.65" y1="1361.29" x2="1882.162" y2="1255.953">
			<stop offset="0" stop-color="#f9b776"  />
			<stop offset="100" stop-color="#f47960"  />
		</linearGradient>
		<linearGradient id="grd50" gradientUnits="userSpaceOnUse"  x1="992.61" y1="1835.68" x2="1746.258" y2="1293.305">
			<stop offset="0" stop-color="#a737d5"  />
			<stop offset="100" stop-color="#ef497a"  />
		</linearGradient>
		<linearGradient id="grd51" gradientUnits="userSpaceOnUse"  x1="1034.7" y1="1873.32" x2="1344.361" y2="1873.32">
			<stop offset="0" stop-color="#f9b776"  />
			<stop offset="100" stop-color="#f47960"  />
		</linearGradient>
		<linearGradient id="grd52" gradientUnits="userSpaceOnUse"  x1="1370.96" y1="1943.02" x2="1635.489" y2="1478.893">
			<stop offset="0" stop-color="#2b3582"  />
			<stop offset="100" stop-color="#150e42"  />
		</linearGradient>
		<linearGradient id="grd53" gradientUnits="userSpaceOnUse"  x1="1529.24" y1="1608.99" x2="1492.977" y2="1768.233">
			<stop offset="0" stop-color="#fdf53f"  />
			<stop offset="100" stop-color="#d93c65"  />
		</linearGradient>
		<linearGradient id="grd54" gradientUnits="userSpaceOnUse"  x1="1519.95" y1="1642.45" x2="1502.607" y2="1746.51">
			<stop offset="0" stop-color="#fdf53f"  />
			<stop offset="100" stop-color="#d93c65"  />
		</linearGradient>
		<linearGradient id="grd55" gradientUnits="userSpaceOnUse"  x1="1321.37" y1="1840.85" x2="1417.842" y2="1840.85">
			<stop offset="0" stop-color="#f9b776"  />
			<stop offset="100" stop-color="#f47960"  />
		</linearGradient>
		<linearGradient id="grd56" gradientUnits="userSpaceOnUse"  x1="1272.47" y1="1542.27" x2="1394.9" y2="1542.27">
			<stop offset="0" stop-color="#f9b776"  />
			<stop offset="100" stop-color="#f47960"  />
		</linearGradient>
		<linearGradient id="grd57" gradientUnits="userSpaceOnUse"  x1="1424.02" y1="1464.39" x2="1289.408" y2="1382.287">
			<stop offset="0" stop-color="#f9b776"  />
			<stop offset="100" stop-color="#f47960"  />
		</linearGradient>
		<linearGradient id="grd58" gradientUnits="userSpaceOnUse"  x1="1218.15" y1="1295.74" x2="1392.053" y2="1433.094">
			<stop offset="0" stop-color="#2b3582"  />
			<stop offset="100" stop-color="#150e42"  />
		</linearGradient>
		<linearGradient id="grd59" gradientUnits="userSpaceOnUse"  x1="1388.66" y1="1495.01" x2="1267.546" y2="1421.139">
			<stop offset="0" stop-color="#f9b776"  />
			<stop offset="100" stop-color="#f47960"  />
		</linearGradient>
	</defs>
	<style>
		tspan { white-space:pre }
		.shp0 { fill: url(#grd1) } 
		.shp1 { fill: #eac4f9 } 
		.shp2 { fill: url(#grd2) } 
		.shp3 { fill: url(#grd3) } 
		.shp4 { fill: url(#grd4) } 
		.shp5 { fill: url(#grd5) } 
		.shp6 { fill: url(#grd6) } 
		.shp7 { fill: url(#grd7) } 
		.shp8 { fill: url(#grd8) } 
		.shp9 { fill: url(#grd9) } 
		.shp10 { fill: url(#grd10) } 
		.shp11 { fill: url(#grd11) } 
		.shp12 { fill: url(#grd12) } 
		.shp13 { fill: url(#grd13) } 
		.shp14 { fill: url(#grd14) } 
		.shp15 { fill: url(#grd15) } 
		.shp16 { fill: #ffffff } 
		.shp17 { fill: url(#grd16) } 
		.shp18 { fill: url(#grd17) } 
		.shp19 { fill: url(#grd18) } 
		.shp20 { fill: url(#grd19) } 
		.shp21 { fill: url(#grd20) } 
		.shp22 { fill: url(#grd21) } 
		.shp23 { fill: url(#grd22) } 
		.shp24 { fill: url(#grd23) } 
		.shp25 { fill: url(#grd24) } 
		.shp26 { fill: url(#grd25) } 
		.shp27 { fill: url(#grd26) } 
		.shp28 { fill: url(#grd27) } 
		.shp29 { fill: url(#grd28) } 
		.shp30 { fill: url(#grd29) } 
		.shp31 { fill: url(#grd30) } 
		.shp32 { fill: #ce41a4 } 
		.shp33 { fill: url(#grd31) } 
		.shp34 { fill: url(#grd32) } 
		.shp35 { fill: url(#grd33) } 
		.shp36 { fill: url(#grd34) } 
		.shp37 { fill: url(#grd35) } 
		.shp38 { fill: url(#grd36) } 
		.shp39 { fill: url(#grd37) } 
		.shp40 { fill: url(#grd38) } 
		.shp41 { fill: url(#grd39) } 
		.shp42 { fill: url(#grd40) } 
		.shp43 { fill: url(#grd41) } 
		.shp44 { fill: url(#grd42) } 
		.shp45 { fill: url(#grd43) } 
		.shp46 { fill: url(#grd44) } 
		.shp47 { fill: url(#grd45) } 
		.shp48 { fill: url(#grd46) } 
		.shp49 { fill: url(#grd47) } 
		.shp50 { fill: url(#grd48) } 
		.shp51 { fill: url(#grd49) } 
		.shp52 { fill: url(#grd50) } 
		.shp53 { fill: url(#grd51) } 
		.shp54 { fill: url(#grd52) } 
		.shp55 { fill: url(#grd53) } 
		.shp56 { fill: url(#grd54) } 
		.shp57 { fill: url(#grd55) } 
		.shp58 { fill: url(#grd56) } 
		.shp59 { fill: url(#grd57) } 
		.shp60 { fill: url(#grd58) } 
		.shp61 { fill: url(#grd59) } 
	</style>
	<g id="Clip-Path" clip-path="url(#cp1)">
		<g id="Layer">
			<g id="Clip-Path" clip-path="url(#cp2)">
				<g id="Layer">
					<path id="Layer" fill-rule="evenodd" class="shp0" d="M1646.02 2862.28C1478.57 2862.28 1350.65 2838.87 1299.63 2828.5C1114.6 2790.92 756.93 2718.28 498.35 2414.19C107.14 1954.13 168.05 1229.32 471.51 750.86C527.01 663.34 820.21 177.59 1416.14 99.69C1475.29 91.96 1536.1 88.05 1597.69 88.05C1911.63 88.05 2247.12 189.46 2501.64 402.7C2630.82 510.92 2732.04 641.49 2807.76 784.65L2473.78 784.65C2446.6 784.65 2425.69 797.83 2425.69 815.3L2425.69 1682.68C2400.84 1727.06 2386.67 1778.24 2386.67 1832.72C2386.67 1887.21 2400.84 1938.38 2425.69 1982.76L2425.69 2658.05C2405.74 2670.09 2385.66 2681.49 2365.55 2692.24L2365.55 1161.34C2365.55 1146.9 2344.02 1137.3 2316.84 1137.3L1933.41 1137.3C1906.23 1137.3 1885.06 1146.9 1885.06 1161.34L1885.06 1704.16C1860.93 1718.43 1838.94 1735.9 1819.64 1755.99L1819.64 1539.17C1819.64 1526.3 1796.2 1514.4 1769.02 1514.4L1385.59 1514.4C1358.41 1514.4 1339.15 1526.3 1339.15 1539.17L1339.15 2762.07C1339.15 2774.94 1358.41 2786.79 1385.59 2786.79L1769.02 2786.79C1796.2 2786.79 1819.64 2774.94 1819.64 2762.07L1819.64 2182.04C1838.94 2202.13 1860.93 2219.6 1885.06 2233.87L1885.06 2761.87C1885.06 2776.31 1906.23 2786.79 1933.41 2786.79L2142.71 2786.79C1963.84 2844.9 1790.28 2862.28 1646.02 2862.28ZM2976.65 1710.95C2962.42 1677.99 2942.58 1648 2918.35 1622.2L2918.35 1058.25C2981.08 1271.56 2998.36 1497.62 2976.65 1710.95Z" />
					<path id="Layer" class="shp1" d="M266.8 731.43C265.26 730.85 264.12 729.43 263.99 727.71C263.57 722.06 263.26 716.3 263.07 710.59C262.99 708.25 264.86 706.32 267.24 706.28C273.02 706.15 271.46 711.91 272.6 727.22C272.77 729.56 270.99 731.57 268.61 731.7C267.98 731.74 267.36 731.64 266.8 731.43Z" />
					<path id="Layer" class="shp1" d="M872.43 333.66C843.17 319.51 837.48 320.97 839.83 314.98C841.33 311.18 845.93 312.6 845.41 312.62C855.8 316.7 866.14 321.22 876.14 326.05C878.3 327.09 879.21 329.64 878.18 331.74C877.2 333.74 874.72 334.73 872.43 333.66ZM755.88 292.18C756.26 289.88 758.49 288.35 760.84 288.76C771.78 290.71 782.79 293.1 793.58 295.87C799.13 297.3 797.05 305.5 791.52 304.08C780.94 301.36 770.15 299.02 759.43 297.11C757.05 296.69 755.49 294.46 755.88 292.18ZM945.75 378.71C919.9 358.97 914.08 359.29 917.63 353.93C918.92 351.98 921.59 351.46 923.6 352.75C932.93 358.8 942.14 365.29 950.98 372.04C955.52 375.5 950.3 382.18 945.75 378.71ZM669.23 286.54C669.13 284.2 670.98 282.25 673.37 282.19C684.44 281.89 695.69 282.03 706.8 282.6C712.52 282.91 712.17 291.36 706.48 291.07C695.6 290.52 684.58 290.38 673.73 290.67C671.35 290.73 669.33 288.89 669.23 286.54ZM586.22 301.43C584.93 300.94 583.89 299.86 583.53 298.45C582.94 296.17 584.34 293.88 586.65 293.34C597.41 290.82 608.41 288.7 619.35 287.02C621.7 286.65 623.93 288.24 624.33 290.56C624.74 292.87 623.16 295.04 620.81 295.4C610.09 297.05 599.31 299.13 588.77 301.6C587.89 301.8 587.01 301.73 586.22 301.43ZM504.74 329.45C503.73 329.07 502.86 328.32 502.35 327.29C501.31 325.17 502.21 322.64 504.35 321.65C514.35 317.03 524.65 312.74 534.97 308.91C537.19 308.08 539.69 309.19 540.57 311.39C541.44 313.58 540.35 316.03 538.13 316.85C528.01 320.61 517.92 324.81 508.12 329.34C507.02 329.85 505.8 329.85 504.74 329.45ZM429.02 371.79C427.57 369.92 427.92 367.26 429.81 365.86C438.62 359.33 447.79 353.07 457.09 347.24C461.87 344.26 466.59 351.42 461.8 354.42C452.7 360.13 443.7 366.26 435.08 372.66C433.19 374.06 430.48 373.67 429.02 371.79ZM366.62 430.16C364.81 428.6 364.61 425.92 366.16 424.17C373.39 416 381.06 408.01 388.94 400.42C392.99 396.52 399.08 402.63 395.03 406.53C387.31 413.96 379.79 421.79 372.71 429.79C371.15 431.55 368.42 431.71 366.62 430.16ZM316.18 494.22C321.54 484.75 327.35 475.37 333.45 466.34C336.6 461.68 343.79 466.47 340.66 471.1C334.68 479.95 328.99 489.15 323.75 498.43C320.99 503.31 313.43 499.09 316.18 494.22ZM282 573.03C285.29 562.59 289.06 552.09 293.07 542.18C295.23 536.85 303.17 540.32 301.1 545.42C297.1 555.3 293.47 565.43 290.25 575.65C289.55 577.88 287.13 579.1 284.85 578.38C282.55 577.64 281.31 575.24 282 573.03ZM264.79 657.25C265.84 646.4 267.35 635.46 269.28 624.74C269.69 622.44 271.93 620.93 274.27 621.37C280.67 622.61 276.5 626.21 273.38 658.19C273.15 660.52 271.05 662.19 268.67 661.93C266.27 661.67 264.56 659.55 264.79 657.25Z" />
					<path id="Layer" class="shp1" d="M998.03 426C988.12 415.41 981.97 411.82 986.09 407.78C987.76 406.14 990.5 406.15 992.2 407.84C1002.89 418.37 1008.25 422.57 1004.13 426.29C1002.9 427.4 999.66 427.73 998.03 426Z" />
					<path id="Layer" class="shp1" d="M1113.48 735.22C1111.75 734.57 1110.56 732.88 1110.67 730.98C1110.97 725.4 1111.15 719.76 1111.22 714.2C1111.25 711.86 1113.21 710.02 1115.59 710.08C1117.97 710.15 1119.88 712.09 1119.85 714.44C1119.78 720.11 1119.59 725.86 1119.29 731.55C1119.16 733.89 1117.13 735.66 1114.75 735.5C1114.3 735.47 1113.88 735.37 1113.48 735.22Z" />
					<path id="Layer" class="shp1" d="M1098.28 825.57C1096.19 824.78 1095.01 822.55 1095.62 820.41C1098.8 809.32 1101.52 798 1103.72 786.78C1104.17 784.49 1106.43 783.01 1108.77 783.49C1111.12 783.98 1112.65 786.21 1112.2 788.51C1109.95 799.96 1107.17 811.5 1103.94 822.82C1103.3 825.07 1100.91 826.35 1098.62 825.68C1098.5 825.65 1098.39 825.61 1098.28 825.57ZM1062.92 909.97C1057.01 906.77 1062.58 904.65 1076.5 873.22C1078.76 868.12 1086.7 871.58 1084.43 876.7C1079.68 887.43 1074.41 898.07 1068.77 908.32C1067.62 910.4 1064.97 911.09 1062.92 909.97ZM1009.11 984.24C1004.05 979.84 1010.01 978.96 1030.65 951.44C1034.02 946.96 1041 952.06 1037.63 956.54C1030.58 965.93 1023.04 975.14 1015.2 983.9C1013.64 985.64 1010.92 985.81 1009.11 984.24ZM941.82 1046.28C941.05 1046 940.36 1045.49 939.84 1044.79C938.43 1042.89 938.83 1040.24 940.75 1038.88C950.18 1032.19 959.43 1025.01 968.25 1017.56C970.04 1016.04 972.76 1016.26 974.34 1018.05C975.91 1019.83 975.73 1022.51 973.93 1024.02C964.94 1031.63 955.5 1038.95 945.88 1045.78C944.66 1046.64 943.13 1046.78 941.82 1046.28ZM861.05 1091.14C859.99 1090.74 859.08 1089.94 858.59 1088.84C857.63 1086.68 858.62 1084.19 860.8 1083.28C871.51 1078.79 882.15 1073.79 892.44 1068.43C894.53 1067.34 897.15 1068.13 898.29 1070.2C899.44 1072.28 898.67 1074.84 896.57 1075.94C886.08 1081.41 875.21 1086.51 864.28 1091.09C863.22 1091.54 862.06 1091.52 861.05 1091.14ZM772.03 1117.46C770.67 1116.95 769.59 1115.77 769.29 1114.26C768.83 1111.96 770.35 1109.75 772.69 1109.33C784.16 1107.27 795.69 1104.69 806.96 1101.67C809.25 1101.06 811.64 1102.4 812.3 1104.66C812.95 1106.92 811.63 1109.25 809.34 1109.86C797.85 1112.94 786.08 1115.57 774.36 1117.68C773.55 1117.82 772.75 1117.73 772.03 1117.46ZM679.04 1123.86C677.36 1123.22 676.17 1121.59 676.22 1119.73C676.28 1117.38 678.27 1115.56 680.65 1115.66C692.38 1116.14 704.24 1116.12 715.91 1115.62C718.29 1115.52 720.33 1117.34 720.47 1119.68C720.61 1122.02 718.79 1124 716.42 1124.1C704.5 1124.61 692.39 1124.62 680.42 1124.14C679.94 1124.12 679.47 1124.02 679.04 1123.86ZM448.22 1046.47C438.39 1039.66 428.71 1032.35 419.46 1024.75C417.62 1023.23 417.35 1020.56 418.87 1018.77C423.13 1013.73 424.28 1019.6 453.12 1039.55C455.08 1040.91 455.58 1043.56 454.23 1045.47C452.87 1047.38 450.19 1047.82 448.22 1046.47ZM583.86 1104.91C585.5 1098.54 589.27 1103.4 623.63 1109.48C625.99 1109.88 627.57 1112.1 627.19 1114.41C626.8 1116.71 624.58 1118.25 622.23 1117.83C610.47 1115.75 598.62 1113.15 587 1110.1C584.67 1109.49 583.29 1107.16 583.86 1104.91ZM531.38 1091.52C520.28 1086.98 509.23 1081.92 498.56 1076.49C496.42 1075.41 495.57 1072.85 496.64 1070.77C499.66 1064.92 502.1 1070.4 534.59 1083.7C536.81 1084.6 537.88 1087.09 536.99 1089.25C535.44 1093.03 530.86 1091.54 531.38 1091.52Z" />
					<path id="Layer" class="shp1" d="M376.74 984.46C366.53 973.43 361.38 969.01 365.67 965.49C370.13 961.82 372.63 967.51 383.08 978.8C384.7 980.54 384.59 983.23 382.83 984.79C381.08 986.35 378.35 986.2 376.74 984.46Z" />
					<path id="Layer" class="shp2" d="M423.93 877.21L485.27 869.61C503.96 891.59 526.31 910.86 551.79 926.37C554.19 985.52 550.16 989.83 556.49 991.94L627.18 1015.49C629.25 1016.18 631.51 1015.51 632.82 1013.82L670.05 965.76C699.72 968.63 729.11 966.6 757.2 960.2L801.83 1003.1C803.39 1004.6 805.74 1004.98 807.67 1004.04L873.85 971.8C875.78 970.85 876.88 968.8 876.57 966.68L867.92 906.26C890 888.22 909.27 866.54 924.66 841.72L986.56 841.49C988.73 841.49 990.64 840.13 991.3 838.1L1014.2 768.96C1014.87 766.94 1014.15 764.7 1012.42 763.4L962.95 726.07C965.42 696.94 962.91 668.01 955.97 640.3C997.04 597.21 1002.81 597.17 999.81 591.35C965.53 527.64 967.48 522.22 960.76 523.04L899.42 530.64C880.73 508.66 858.39 489.39 832.9 473.88C830.51 414.77 834.53 410.42 828.21 408.31C757.57 386.12 755.88 381.26 751.88 386.43L714.65 434.49C684.98 431.62 655.58 433.65 627.49 440.05C583.57 399.53 582.99 393.31 577.02 396.22C512.1 429.27 507.19 427.04 508.12 433.57L516.77 493.99C494.69 512.03 475.43 533.71 460.04 558.53C400.95 559.96 395.48 555.83 393.39 562.15C371.97 630.95 366.93 632.82 372.28 636.85L421.74 674.19C419.27 703.31 421.78 732.24 428.72 759.95C387.79 802.9 381.87 803.05 384.88 808.9C419.17 872.61 417.21 878.04 423.93 877.21Z" />
					<path id="Layer" fill-rule="evenodd" class="shp3" d="M620.05 694.36C622.68 655.22 657.25 625.96 697.12 629.13C736.98 632.32 767.28 666.74 764.65 705.89C762.02 745.03 727.44 774.29 687.58 771.12C647.7 767.94 617.42 733.5 620.05 694.36ZM696.26 641.82C663.91 639.24 635.16 662.76 632.97 695.39C630.81 727.54 655.69 755.83 688.43 758.43C721.17 761.04 749.57 737.01 751.73 704.86C753.89 672.66 728.95 644.42 696.26 641.82ZM688 764.77L688.04 764.79L688 764.77Z" />
					<path id="Layer" class="shp4" d="M629.28 869.64L629.28 869.64C619.23 865.85 609.52 861.22 600.33 855.85C597.56 854.23 596.43 850.94 597.49 848.11C597.62 847.77 597.78 847.44 597.97 847.12C599.76 844.1 603.74 843.13 606.82 844.93C617.4 851.12 628.71 856.23 640.45 860.15C728.86 889.6 823.9 845.1 855.8 760.65C856.61 758.49 857.39 756.31 858.12 754.1C887.65 664.89 837.45 568.69 746.93 538.51C656.54 508.39 558.76 555.58 529.26 644.55C511.73 697.52 527.05 733.06 524.99 738.51C522.77 744.4 514.05 743.72 512.61 737.56C504.74 703.94 506.49 667.69 519.44 633.41C575.31 485.5 785.79 476.49 859.14 618.73C881.71 662.5 885.72 712.03 870.43 758.21C869.65 760.6 868.81 762.96 867.92 765.31C851.73 808.2 820.1 842.78 778.2 863.2C734 884.72 683.67 887.92 636.46 872.19C634.05 871.39 631.65 870.54 629.28 869.64Z" />
					<path id="Layer" class="shp1" d="M990.71 420.95C989.77 420.59 989.08 419.73 989 418.69C988.75 415.26 988.56 411.76 988.44 408.3C988.4 406.88 989.53 405.71 990.98 405.69C994.48 405.61 993.53 409.11 994.22 418.39C994.33 419.81 993.25 421.03 991.8 421.11C991.42 421.13 991.05 421.07 990.71 420.95Z" />
					<path id="Layer" class="shp1" d="M1358.12 179.63C1340.37 171.05 1336.91 171.93 1338.34 168.3C1339.25 166 1342.04 166.86 1341.73 166.87C1348.03 169.35 1354.3 172.09 1360.37 175.02C1361.68 175.65 1362.23 177.19 1361.61 178.47C1361.01 179.68 1359.51 180.28 1358.12 179.63ZM1287.41 154.47C1287.65 153.07 1288.99 152.14 1290.42 152.4C1297.06 153.58 1303.74 155.03 1310.28 156.71C1313.65 157.58 1312.39 162.55 1309.03 161.69C1302.62 160.04 1296.07 158.62 1289.56 157.46C1288.12 157.21 1287.18 155.86 1287.41 154.47ZM1402.6 206.97C1386.92 194.99 1383.39 195.18 1385.54 191.93C1386.32 190.75 1387.94 190.43 1389.16 191.22C1394.82 194.89 1400.41 198.82 1405.77 202.92C1408.53 205.02 1405.36 209.07 1402.6 206.97ZM1234.85 151.05C1234.79 149.63 1235.91 148.45 1237.35 148.41C1244.07 148.23 1250.9 148.32 1257.64 148.66C1261.11 148.85 1260.9 153.97 1257.44 153.8C1250.84 153.46 1244.16 153.38 1237.57 153.55C1236.13 153.59 1234.91 152.47 1234.85 151.05ZM1184.49 160.08C1183.7 159.78 1183.07 159.13 1182.85 158.27C1182.5 156.89 1183.35 155.5 1184.75 155.17C1191.27 153.65 1197.95 152.36 1204.59 151.34C1206.01 151.12 1207.36 152.08 1207.61 153.49C1207.85 154.89 1206.89 156.21 1205.47 156.43C1198.97 157.42 1192.43 158.69 1186.03 160.18C1185.5 160.31 1184.97 160.26 1184.49 160.08ZM1135.06 177.08C1134.44 176.85 1133.92 176.4 1133.61 175.77C1132.98 174.48 1133.52 172.95 1134.82 172.35C1140.89 169.54 1147.13 166.94 1153.39 164.62C1154.74 164.12 1156.26 164.79 1156.79 166.12C1157.32 167.46 1156.66 168.94 1155.31 169.44C1149.17 171.72 1143.05 174.26 1137.11 177.01C1136.44 177.32 1135.7 177.33 1135.06 177.08ZM1089.12 202.77C1088.24 201.63 1088.45 200.02 1089.6 199.17C1094.94 195.21 1100.51 191.41 1106.15 187.88C1109.05 186.07 1111.91 190.41 1109.01 192.23C1103.48 195.69 1098.03 199.41 1092.79 203.29C1091.65 204.14 1090 203.91 1089.12 202.77ZM1051.26 238.17C1050.17 237.23 1050.04 235.61 1050.98 234.54C1055.37 229.59 1060.02 224.74 1064.8 220.14C1067.26 217.77 1070.95 221.48 1068.5 223.84C1063.81 228.35 1059.26 233.1 1054.96 237.96C1054.01 239.02 1052.36 239.12 1051.26 238.17ZM1020.67 277.04C1023.91 271.29 1027.44 265.6 1031.14 260.12C1033.05 257.3 1037.41 260.21 1035.52 263.02C1031.89 268.38 1028.43 273.96 1025.25 279.59C1023.58 282.55 1019 280 1020.67 277.04ZM999.93 324.85C1001.92 318.52 1004.21 312.15 1006.65 306.14C1007.95 302.9 1012.77 305 1011.51 308.1C1009.09 314.1 1006.89 320.24 1004.93 326.44C1004.51 327.79 1003.04 328.53 1001.66 328.1C1000.26 327.65 999.51 326.19 999.93 324.85ZM989.49 375.94C990.13 369.36 991.04 362.73 992.21 356.22C992.46 354.83 993.82 353.91 995.24 354.18C999.12 354.93 996.59 357.12 994.7 376.51C994.56 377.92 993.28 378.94 991.84 378.79C990.38 378.63 989.35 377.34 989.49 375.94Z" />
					<path id="Layer" class="shp1" d="M1434.32 235.65C1428.3 229.23 1424.57 227.05 1427.07 224.6C1428.09 223.61 1429.75 223.61 1430.78 224.63C1437.26 231.03 1440.52 233.58 1438.02 235.83C1437.27 236.51 1435.3 236.7 1434.32 235.65Z" />
					<path id="Layer" class="shp1" d="M1504.35 423.25C1503.31 422.85 1502.58 421.83 1502.65 420.67C1502.83 417.29 1502.94 413.87 1502.98 410.5C1503 409.08 1504.19 407.96 1505.63 407.99C1507.08 408.04 1508.24 409.21 1508.22 410.64C1508.18 414.08 1508.06 417.57 1507.88 421.02C1507.8 422.44 1506.57 423.51 1505.12 423.41C1504.85 423.4 1504.6 423.34 1504.35 423.25Z" />
					<path id="Layer" class="shp1" d="M1495.13 478.06C1493.87 477.58 1493.15 476.22 1493.52 474.93C1495.45 468.2 1497.1 461.33 1498.43 454.52C1498.71 453.13 1500.08 452.24 1501.5 452.53C1502.92 452.83 1503.85 454.18 1503.58 455.57C1502.21 462.52 1500.53 469.52 1498.56 476.39C1498.18 477.75 1496.73 478.53 1495.34 478.13L1495.13 478.06ZM1473.68 529.26C1470.1 527.32 1473.48 526.03 1481.92 506.96C1483.29 503.87 1488.11 505.97 1486.73 509.08C1483.85 515.59 1480.65 522.04 1477.23 528.26C1476.54 529.52 1474.92 529.94 1473.68 529.26ZM1441.04 574.31C1437.97 571.65 1441.58 571.11 1454.11 554.42C1456.15 551.7 1460.38 554.79 1458.34 557.51C1454.07 563.21 1449.49 568.8 1444.73 574.11C1443.79 575.17 1442.14 575.27 1441.04 574.31ZM1400.21 611.96C1399.75 611.78 1399.33 611.48 1399.01 611.05C1398.16 609.89 1398.4 608.29 1399.57 607.46C1405.29 603.4 1410.9 599.05 1416.25 594.53C1417.33 593.61 1418.99 593.74 1419.94 594.83C1420.89 595.91 1420.79 597.53 1419.7 598.45C1414.24 603.07 1408.51 607.51 1402.68 611.65C1401.94 612.17 1401.01 612.26 1400.21 611.96ZM1351.21 639.17C1350.57 638.93 1350.02 638.44 1349.72 637.77C1349.14 636.46 1349.74 634.95 1351.06 634.4C1357.56 631.67 1364.02 628.64 1370.26 625.39C1371.53 624.73 1373.12 625.21 1373.81 626.47C1374.5 627.73 1374.04 629.28 1372.77 629.94C1366.4 633.27 1359.81 636.36 1353.18 639.14C1352.53 639.41 1351.83 639.4 1351.21 639.17ZM1297.21 655.14C1296.39 654.83 1295.73 654.11 1295.55 653.2C1295.27 651.8 1296.19 650.46 1297.61 650.2C1304.57 648.95 1311.56 647.39 1318.4 645.56C1319.79 645.19 1321.24 646 1321.64 647.37C1322.04 648.74 1321.23 650.16 1319.85 650.53C1312.87 652.4 1305.73 653.99 1298.62 655.27C1298.13 655.36 1297.65 655.3 1297.21 655.14ZM1240.8 659.02C1239.77 658.63 1239.06 657.64 1239.09 656.51C1239.12 655.09 1240.33 653.99 1241.77 654.04C1248.89 654.33 1256.08 654.32 1263.16 654.02C1264.61 653.96 1265.85 655.06 1265.93 656.48C1266.02 657.9 1264.91 659.1 1263.47 659.16C1256.24 659.47 1248.9 659.48 1241.64 659.19C1241.34 659.18 1241.06 659.12 1240.8 659.02ZM1100.77 612.07C1094.8 607.94 1088.93 603.5 1083.32 598.89C1082.2 597.97 1082.04 596.35 1082.96 595.26C1085.55 592.21 1086.25 595.77 1103.74 607.87C1104.93 608.7 1105.23 610.3 1104.41 611.46C1103.59 612.62 1101.96 612.89 1100.77 612.07ZM1183.06 647.52C1184.05 643.66 1186.34 646.61 1207.18 650.29C1208.61 650.54 1209.57 651.89 1209.34 653.28C1209.1 654.68 1207.76 655.61 1206.33 655.36C1199.2 654.1 1192.01 652.52 1184.96 650.67C1183.54 650.3 1182.71 648.89 1183.06 647.52ZM1151.22 639.4C1144.48 636.65 1137.78 633.58 1131.3 630.28C1130.01 629.63 1129.49 628.07 1130.14 626.81C1131.97 623.26 1133.46 626.59 1153.17 634.65C1154.51 635.2 1155.16 636.71 1154.62 638.02C1153.68 640.31 1150.9 639.41 1151.22 639.4Z" />
					<path id="Layer" class="shp1" d="M1057.4 574.45C1051.21 567.76 1048.08 565.08 1050.69 562.94C1053.39 560.72 1054.91 564.17 1061.25 571.01C1062.23 572.07 1062.16 573.7 1061.1 574.65C1060.04 575.6 1058.38 575.51 1057.4 574.45Z" />
					<path id="Layer" class="shp5" d="M1086.03 509.38L1123.25 504.77C1134.58 518.11 1148.14 529.8 1163.6 539.21C1165.05 575.09 1162.61 577.71 1166.45 578.99L1209.34 593.28C1210.59 593.69 1211.96 593.29 1212.75 592.26L1235.34 563.11C1253.34 564.85 1271.17 563.62 1288.21 559.73L1315.29 585.76C1316.24 586.67 1317.66 586.9 1318.83 586.33L1358.98 566.77C1360.15 566.2 1360.82 564.95 1360.63 563.67L1355.38 527.01C1368.78 516.07 1380.47 502.92 1389.8 487.86L1427.36 487.72C1428.67 487.71 1429.83 486.89 1430.24 485.66L1444.12 443.71C1444.53 442.49 1444.1 441.13 1443.04 440.34L1413.03 417.69C1414.53 400.02 1413.01 382.47 1408.8 365.66C1433.72 339.52 1437.22 339.5 1435.4 335.96C1414.6 297.31 1415.78 294.02 1411.71 294.53L1374.49 299.14C1363.16 285.8 1349.6 274.11 1334.14 264.7C1332.69 228.84 1335.13 226.2 1331.29 224.92C1288.44 211.46 1287.41 208.51 1284.98 211.65L1262.4 240.8C1244.4 239.06 1226.56 240.29 1209.52 244.18C1182.88 219.59 1182.53 215.82 1178.91 217.58C1139.52 237.64 1136.54 236.29 1137.11 240.25L1142.36 276.9C1128.96 287.84 1117.27 301 1107.94 316.05C1072.09 316.92 1068.77 314.42 1067.5 318.25C1054.51 359.99 1051.45 361.12 1054.7 363.57L1084.7 386.22C1083.21 403.89 1084.73 421.44 1088.94 438.25C1064.11 464.3 1060.51 464.4 1062.34 467.95C1083.14 506.6 1081.96 509.89 1086.03 509.38Z" />
					<path id="Layer" fill-rule="evenodd" class="shp6" d="M1205.01 398.46C1206.6 374.71 1227.58 356.96 1251.76 358.89C1275.95 360.82 1294.33 381.71 1292.73 405.45C1291.13 429.2 1270.16 446.95 1245.98 445.02C1221.78 443.1 1203.41 422.2 1205.01 398.46ZM1251.25 366.59C1231.62 365.02 1214.18 379.29 1212.85 399.08C1211.54 418.59 1226.63 435.75 1246.49 437.33C1266.36 438.91 1283.58 424.33 1284.89 404.83C1286.21 385.29 1271.07 368.16 1251.25 366.59ZM1246.23 441.17L1246.26 441.18L1246.23 441.17Z" />
					<path id="Layer" class="shp7" d="M1210.61 504.79L1210.61 504.79C1204.51 502.49 1198.62 499.69 1193.04 496.43C1191.37 495.45 1190.68 493.45 1191.33 491.73C1191.4 491.52 1191.5 491.32 1191.62 491.13C1192.7 489.3 1195.11 488.71 1196.98 489.8C1203.4 493.55 1210.26 496.66 1217.38 499.03C1271.02 516.9 1328.68 489.9 1348.03 438.67C1348.52 437.37 1348.99 436.04 1349.44 434.7C1367.35 380.58 1336.9 322.22 1281.98 303.91C1227.15 285.64 1167.83 314.26 1149.93 368.24C1139.3 400.37 1148.59 421.94 1147.34 425.24C1145.99 428.82 1140.7 428.4 1139.83 424.67C1135.05 404.27 1136.12 382.28 1143.97 361.48C1177.87 271.75 1305.56 266.28 1350.06 352.57C1363.75 379.13 1366.18 409.18 1356.91 437.19C1356.43 438.64 1355.92 440.08 1355.38 441.5C1345.56 467.52 1326.37 488.5 1300.95 500.88C1274.14 513.94 1243.6 515.88 1214.96 506.34C1213.5 505.86 1212.05 505.34 1210.61 504.79Z" />
					<path id="Layer" class="shp8" d="M1215.94 1884.11L828.12 1884.11C800.94 1884.11 775.84 1903.92 775.84 1917.66L775.84 2759.53C775.84 2773.27 800.94 2786.79 828.12 2786.79L1215.94 2786.79C1243.12 2786.79 1274.58 2773.27 1274.58 2759.53L1274.58 1917.66C1274.58 1903.92 1243.12 1884.11 1215.94 1884.11Z" />
					<path id="Layer" class="shp9" d="M712.29 2192.81C712.29 2185.7 687.79 2178.35 660.61 2178.35L277.18 2178.35C250 2178.35 225.72 2185.7 225.72 2192.81L225.72 2772.97C225.72 2780.08 250 2786.79 277.18 2786.79L660.61 2786.79C687.79 2786.79 712.29 2780.08 712.29 2772.97L712.29 2192.81Z" />
					<path id="Layer" fill-rule="evenodd" class="shp10" d="M2918.35 2750.01L2918.35 2043.24C2862.25 2102.95 2782.58 2140.24 2694.19 2140.24C2578.83 2140.24 2478.32 2076.73 2425.69 1982.76L2425.69 2750.01C2425.69 2767.48 2446.6 2786.79 2473.78 2786.79L2861.93 2786.79C2889.11 2786.79 2918.35 2767.48 2918.35 2750.01ZM2694.19 1525.21C2782.58 1525.21 2862.25 1562.49 2918.35 1622.2L2918.35 815.3C2918.35 797.83 2889.11 784.65 2861.93 784.65L2473.78 784.65C2446.6 784.65 2425.69 797.83 2425.69 815.3L2425.69 1682.68C2478.32 1588.72 2578.83 1525.21 2694.19 1525.21Z" />
					<path id="Layer" class="shp11" d="M1769.02 2786.79L1385.59 2786.79C1358.41 2786.79 1339.15 2774.94 1339.15 2762.07L1339.15 1539.17C1339.15 1526.3 1358.41 1514.4 1385.59 1514.4L1769.02 1514.4C1796.2 1514.4 1819.64 1526.3 1819.64 1539.17L1819.64 1755.99C1766.54 1811.25 1733.9 1886.33 1733.9 1969.01C1733.9 2051.7 1766.54 2126.78 1819.64 2182.04L1819.64 2762.07C1819.64 2774.94 1796.2 2786.79 1769.02 2786.79Z" />
					<path id="Layer" class="shp12" d="M2316.84 2786.79L2142.71 2786.79L1933.41 2786.79C1906.23 2786.79 1885.06 2776.31 1885.06 2761.87L1885.06 2233.87C1930.87 2260.97 1984.33 2276.53 2041.41 2276.53C2211.25 2276.53 2348.93 2138.85 2348.93 1969.01C2348.93 1799.18 2211.25 1661.5 2041.41 1661.5C1984.33 1661.5 1930.87 1677.06 1885.06 1704.16L1885.06 1161.34C1885.06 1146.9 1906.23 1137.3 1933.41 1137.3L2316.84 1137.3C2344.02 1137.3 2365.55 1146.9 2365.55 1161.34L2365.55 2692.24L2365.55 2761.87C2365.55 2776.31 2344.02 2786.79 2316.84 2786.79Z" />
					<path id="Layer" class="shp13" d="M2333.92 793.55L2644.28 336.7C2653.29 323.43 2672.13 323.29 2681.32 336.42L3001.3 793.27C3012.31 808.99 3001.54 831.09 2982.87 831.09L2352.53 831.09C2334.02 831.09 2323.21 809.31 2333.92 793.55Z" />
					<path id="Layer" fill-rule="evenodd" class="shp14" d="M2694.19 2140.24C2578.83 2140.24 2478.32 2076.73 2425.69 1982.76C2400.84 1938.38 2386.67 1887.21 2386.67 1832.72C2386.67 1778.24 2400.84 1727.06 2425.69 1682.68C2478.32 1588.72 2578.83 1525.21 2694.19 1525.21C2782.58 1525.21 2862.25 1562.49 2918.35 1622.2C2942.58 1648 2962.42 1677.99 2976.65 1710.95C2992.77 1748.3 3001.7 1789.46 3001.7 1832.72C3001.7 1914.17 2970.03 1988.22 2918.35 2043.24C2862.25 2102.95 2782.58 2140.24 2694.19 2140.24ZM2694.19 1535.43C2530 1535.43 2396.9 1668.53 2396.9 1832.72C2396.9 1996.91 2530 2130.01 2694.19 2130.01C2858.37 2130.01 2991.48 1996.91 2991.48 1832.72C2991.48 1668.53 2858.37 1535.43 2694.19 1535.43Z" />
					<path id="Layer" fill-rule="evenodd" class="shp15" d="M2694.19 2130.01C2530 2130.01 2396.9 1996.91 2396.9 1832.72C2396.9 1668.53 2530 1535.43 2694.19 1535.43C2858.37 1535.43 2991.48 1668.53 2991.48 1832.72C2991.48 1996.91 2858.37 2130.01 2694.19 2130.01ZM2700.66 1587.58C2561.7 1587.58 2449.04 1700.23 2449.04 1839.2C2449.04 1978.17 2561.7 2090.82 2700.66 2090.82C2839.63 2090.82 2952.28 1978.17 2952.28 1839.2C2952.28 1700.23 2839.63 1587.58 2700.66 1587.58Z" />
					<path id="Layer" class="shp16" d="M2449.04 1716.05C2448.01 1716.05 2446.96 1715.81 2445.97 1715.31C2442.61 1713.62 2441.26 1709.52 2442.96 1706.15C2491.12 1610.74 2587.38 1551.47 2694.18 1551.47C2711.23 1551.47 2728.3 1553 2744.92 1556.04C2748.62 1556.71 2751.08 1560.26 2750.41 1563.97C2749.73 1567.68 2746.17 1570.1 2742.47 1569.46C2726.65 1566.57 2710.41 1565.11 2694.18 1565.11C2592.56 1565.11 2500.96 1621.51 2455.13 1712.3C2453.93 1714.68 2451.53 1716.05 2449.04 1716.05Z" />
					<path id="Layer" class="shp17" d="M2700.66 2090.82C2561.7 2090.82 2449.04 1978.17 2449.04 1839.2C2449.04 1700.23 2561.7 1587.58 2700.66 1587.58C2839.63 1587.58 2952.28 1700.23 2952.28 1839.2C2952.28 1978.17 2839.63 2090.82 2700.66 2090.82Z" />
					<path id="Layer" class="shp18" d="M2675.97 2026.26L2675.97 1998.88C2647.43 1997.74 2619.21 1991 2599.16 1982.23C2592 1979.09 2588.35 1971.06 2590.41 1963.52L2597.36 1938.02C2599.91 1928.67 2610.09 1923.83 2619.03 1927.58C2638.92 1935.92 2663.47 1942.51 2689.95 1942.51C2717.43 1942.51 2737.93 1933.19 2737.93 1914.09C2737.93 1896.85 2722.09 1886.6 2683.89 1876.36C2629.39 1861.45 2590.25 1837.69 2590.25 1789.7C2590.25 1746.38 2621.93 1713.3 2676.9 1704.45L2676.9 1677.07C2676.9 1668.26 2684.05 1661.12 2692.85 1661.12L2708.94 1661.12C2717.75 1661.12 2724.89 1668.26 2724.89 1677.07L2724.89 1701.65C2751.3 1702.71 2770.52 1707.22 2785.77 1712.58C2793.59 1715.33 2797.86 1723.75 2795.69 1731.74L2789.29 1755.33C2786.83 1764.42 2777.11 1769.4 2768.3 1766.07C2754.25 1760.76 2734.39 1755.23 2708.58 1755.23C2675.97 1755.23 2666.66 1768.74 2666.66 1780.85C2666.66 1795.76 2686.22 1806.01 2728.62 1819.05C2789.18 1837.22 2814.34 1862.38 2814.34 1907.57C2814.34 1949.03 2783.59 1986.3 2723.96 1995.62L2723.96 2026.26C2723.96 2035.07 2716.82 2042.21 2708.01 2042.21L2691.92 2042.21C2683.11 2042.21 2675.97 2035.07 2675.97 2026.26Z" />
					<path id="Layer" class="shp19" d="M2991.83 2341.45L2396.54 2341.45C2394.53 2341.45 2392.91 2339.82 2392.91 2337.82L2392.91 2230.31C2392.91 2228.31 2394.53 2226.68 2396.54 2226.68L2991.83 2226.68C2993.84 2226.68 2995.46 2228.31 2995.46 2230.31L2995.46 2337.82C2995.46 2339.82 2993.84 2341.45 2991.83 2341.45Z" />
					<path id="Layer" class="shp20" d="M2992.3 2471.04L2397.01 2471.04C2395.01 2471.04 2393.38 2469.41 2393.38 2467.4L2393.38 2359.9C2393.38 2357.89 2395.01 2356.26 2397.01 2356.26L2992.3 2356.26C2994.31 2356.26 2995.94 2357.89 2995.94 2359.9L2995.94 2467.4C2995.94 2469.41 2994.31 2471.04 2992.3 2471.04Z" />
					<path id="Layer" class="shp21" d="M2992.78 2600.62L2397.49 2600.62C2395.48 2600.62 2393.85 2599 2393.85 2596.99L2393.85 2489.48C2393.85 2487.48 2395.48 2485.85 2397.49 2485.85L2992.78 2485.85C2994.78 2485.85 2996.41 2487.48 2996.41 2489.48L2996.41 2596.99C2996.41 2599 2994.78 2600.62 2992.78 2600.62Z" />
					<path id="Layer" class="shp22" d="M2993.25 2726.86L2397.96 2726.86C2395.95 2726.86 2394.33 2725.23 2394.33 2723.22L2394.33 2615.72C2394.33 2613.71 2395.95 2612.08 2397.96 2612.08L2993.25 2612.08C2995.26 2612.08 2996.88 2613.71 2996.88 2615.72L2996.88 2723.22C2996.88 2725.23 2995.26 2726.86 2993.25 2726.86Z" />
					<path id="Layer" class="shp23" d="M2993.72 2853.09L2398.43 2853.09C2396.43 2853.09 2394.8 2851.46 2394.8 2849.46L2394.8 2741.95C2394.8 2739.94 2396.43 2738.32 2398.43 2738.32L2993.72 2738.32C2995.73 2738.32 2997.36 2739.94 2997.36 2741.95L2997.36 2849.46C2997.36 2851.46 2995.73 2853.09 2993.72 2853.09Z" />
					<path id="Layer" fill-rule="evenodd" class="shp24" d="M2041.41 2276.53C1984.33 2276.53 1930.87 2260.97 1885.06 2233.87C1860.93 2219.6 1838.94 2202.13 1819.64 2182.04C1766.54 2126.78 1733.9 2051.7 1733.9 1969.01C1733.9 1886.33 1766.54 1811.25 1819.64 1755.99C1838.94 1735.9 1860.93 1718.43 1885.06 1704.16C1930.87 1677.06 1984.33 1661.5 2041.41 1661.5C2211.25 1661.5 2348.93 1799.18 2348.93 1969.01C2348.93 2138.85 2211.25 2276.53 2041.41 2276.53ZM2041.41 1671.73C1877.23 1671.73 1744.13 1804.83 1744.13 1969.01C1744.13 2133.2 1877.23 2266.3 2041.41 2266.3C2205.6 2266.3 2338.71 2133.2 2338.71 1969.01C2338.71 1804.83 2205.6 1671.73 2041.41 1671.73Z" />
					<path id="Layer" fill-rule="evenodd" class="shp25" d="M2041.41 2266.3C1877.23 2266.3 1744.13 2133.2 1744.13 1969.01C1744.13 1804.83 1877.23 1671.73 2041.41 1671.73C2205.6 1671.73 2338.71 1804.83 2338.71 1969.01C2338.71 2133.2 2205.6 2266.3 2041.41 2266.3ZM2047.89 1723.87C1908.93 1723.87 1796.27 1836.53 1796.27 1975.49C1796.27 2114.46 1908.93 2227.11 2047.89 2227.11C2186.86 2227.11 2299.51 2114.46 2299.51 1975.49C2299.51 1836.53 2186.86 1723.87 2047.89 1723.87Z" />
					<path id="Layer" class="shp16" d="M1796.27 1852.34C1795.24 1852.34 1794.19 1852.11 1793.2 1851.61C1789.84 1849.91 1788.49 1845.81 1790.19 1842.45C1838.34 1747.04 1934.61 1687.76 2041.41 1687.76C2058.47 1687.76 2075.54 1689.3 2092.15 1692.33C2095.85 1693 2098.31 1696.56 2097.63 1700.26C2096.96 1703.97 2093.4 1706.42 2089.7 1705.75C2073.9 1702.87 2057.65 1701.4 2041.41 1701.4C1939.79 1701.4 1848.19 1757.8 1802.36 1848.59C1801.16 1850.97 1798.76 1852.34 1796.27 1852.34Z" />
					<path id="Layer" class="shp26" d="M2047.89 2227.11C1908.93 2227.11 1796.27 2114.46 1796.27 1975.49C1796.27 1836.53 1908.93 1723.87 2047.89 1723.87C2186.86 1723.87 2299.51 1836.53 2299.51 1975.49C2299.51 2114.46 2186.86 2227.11 2047.89 2227.11Z" />
					<path id="Layer" class="shp27" d="M2023.2 2162.55L2023.2 2135.17C1994.66 2134.03 1966.44 2127.3 1946.39 2118.52C1939.23 2115.39 1935.58 2107.35 1937.64 2099.81L1944.59 2074.32C1947.14 2064.96 1957.32 2060.12 1966.26 2063.87C1986.14 2072.21 2010.7 2078.8 2037.18 2078.8C2064.66 2078.8 2085.16 2069.48 2085.16 2050.38C2085.16 2033.15 2069.32 2022.9 2031.12 2012.65C1976.61 1997.74 1937.48 1973.98 1937.48 1926C1937.48 1882.67 1969.16 1849.59 2024.13 1840.74L2024.13 1813.36C2024.13 1804.55 2031.27 1797.41 2040.08 1797.41L2056.17 1797.41C2064.98 1797.41 2072.12 1804.55 2072.12 1813.36L2072.12 1837.94C2098.52 1839 2117.75 1843.52 2133 1848.88C2140.82 1851.62 2145.09 1860.04 2142.92 1868.04L2136.52 1891.62C2134.06 1900.71 2124.34 1905.69 2115.52 1902.36C2101.48 1897.05 2081.62 1891.52 2055.81 1891.52C2023.2 1891.52 2013.88 1905.03 2013.88 1917.14C2013.88 1932.05 2033.45 1942.3 2075.84 1955.35C2136.41 1973.51 2161.57 1998.67 2161.57 2043.86C2161.57 2085.32 2130.82 2122.59 2071.19 2131.91L2071.19 2162.55C2071.19 2171.36 2064.04 2178.5 2055.24 2178.5L2039.15 2178.5C2030.34 2178.5 2023.2 2171.36 2023.2 2162.55Z" />
					<path id="Layer" class="shp28" d="M2339.06 2464.33L1743.77 2464.33C1741.76 2464.33 1740.13 2462.7 1740.13 2460.7L1740.13 2353.19C1740.13 2351.18 1741.76 2349.56 1743.77 2349.56L2339.06 2349.56C2341.07 2349.56 2342.69 2351.18 2342.69 2353.19L2342.69 2460.7C2342.69 2462.7 2341.07 2464.33 2339.06 2464.33Z" />
					<path id="Layer" class="shp29" d="M2339.53 2593.92L1744.24 2593.92C1742.24 2593.92 1740.61 2592.29 1740.61 2590.28L1740.61 2482.78C1740.61 2480.77 1742.24 2479.14 1744.24 2479.14L2339.53 2479.14C2341.54 2479.14 2343.17 2480.77 2343.17 2482.78L2343.17 2590.28C2343.17 2592.29 2341.54 2593.92 2339.53 2593.92Z" />
					<path id="Layer" class="shp30" d="M2340.01 2723.5L1744.72 2723.5C1742.71 2723.5 1741.08 2721.88 1741.08 2719.87L1741.08 2612.36C1741.08 2610.36 1742.71 2608.73 1744.72 2608.73L2340.01 2608.73C2342.01 2608.73 2343.64 2610.36 2343.64 2612.36L2343.64 2719.87C2343.64 2721.88 2342.01 2723.5 2340.01 2723.5Z" />
					<path id="Layer" class="shp31" d="M2340.48 2853.09L1745.19 2853.09C1743.18 2853.09 1741.55 2851.46 1741.55 2849.46L1741.55 2741.95C1741.55 2739.94 1743.18 2738.32 1745.19 2738.32L2340.48 2738.32C2342.49 2738.32 2344.11 2739.94 2344.11 2741.95L2344.11 2849.46C2344.11 2851.46 2342.49 2853.09 2340.48 2853.09Z" />
					<path id="Layer" class="shp32" d="M619.98 2573.59C618.56 2573.59 617.15 2572.99 616.15 2571.82C613.23 2568.39 610.34 2564.93 607.49 2561.46C605.73 2559.32 606.03 2556.15 608.18 2554.38C610.33 2552.62 613.5 2552.93 615.26 2555.08C618.08 2558.5 620.93 2561.91 623.81 2565.3C625.61 2567.42 625.36 2570.59 623.24 2572.39C622.3 2573.2 621.14 2573.59 619.98 2573.59Z" />
					<path id="Layer" class="shp32" d="M1548.25 817.6C1545.63 817.6 1543.43 815.57 1543.24 812.92C1543.05 810.15 1545.14 807.75 1547.91 807.55C1556.96 806.93 1566.06 806.77 1575.07 807.08C1577.85 807.17 1580.02 809.5 1579.92 812.28C1579.83 815.05 1577.46 817.21 1574.72 817.13C1566.06 816.83 1557.31 816.98 1548.61 817.59C1548.49 817.6 1548.37 817.6 1548.25 817.6ZM1495.8 826.59C1493.59 826.59 1491.57 825.12 1490.96 822.88C1490.22 820.2 1491.8 817.44 1494.48 816.7C1503.24 814.31 1512.15 812.32 1520.96 810.81C1523.69 810.34 1526.3 812.18 1526.77 814.91C1527.24 817.65 1525.4 820.25 1522.66 820.72C1514.17 822.18 1505.58 824.09 1497.13 826.41C1496.69 826.53 1496.24 826.59 1495.8 826.59ZM1445.97 845.29C1444.1 845.29 1442.3 844.24 1441.44 842.44C1440.23 839.93 1441.29 836.93 1443.79 835.72C1451.96 831.8 1460.34 828.21 1468.69 825.07C1471.29 824.09 1474.19 825.41 1475.17 828.01C1476.15 830.61 1474.84 833.51 1472.24 834.48C1464.16 837.52 1456.06 840.99 1448.15 844.79C1447.45 845.13 1446.71 845.29 1445.97 845.29ZM1400.09 872.3C1398.51 872.3 1396.95 871.55 1395.97 870.16C1394.37 867.89 1394.92 864.75 1397.19 863.15C1404.59 857.95 1412.24 853.01 1419.92 848.48C1422.31 847.07 1425.4 847.87 1426.8 850.26C1428.22 852.65 1427.42 855.74 1425.03 857.15C1417.58 861.54 1410.16 866.33 1402.98 871.38C1402.1 872 1401.09 872.3 1400.09 872.3ZM1359.07 906.27C1357.77 906.27 1356.47 905.77 1355.48 904.77C1353.54 902.79 1353.57 899.6 1355.55 897.65C1360.3 892.99 1365.3 888.4 1370.41 884.01C1372.16 882.51 1373.92 881.03 1375.7 879.56C1377.84 877.79 1381.01 878.09 1382.78 880.23C1384.55 882.37 1384.25 885.54 1382.1 887.31C1380.38 888.74 1378.67 890.18 1376.96 891.65C1372.02 895.89 1367.19 900.33 1362.6 904.83C1361.62 905.79 1360.35 906.27 1359.07 906.27ZM1324.7 946.87C1323.71 946.87 1322.7 946.58 1321.82 945.96C1319.55 944.37 1318.99 941.23 1320.59 938.96C1325.78 931.55 1331.34 924.33 1337.11 917.5C1338.91 915.38 1342.08 915.11 1344.2 916.91C1346.32 918.7 1346.59 921.88 1344.8 924C1339.21 930.6 1333.84 937.57 1328.83 944.73C1327.85 946.13 1326.29 946.87 1324.7 946.87ZM1297.92 992.87C1297.19 992.87 1296.44 992.7 1295.74 992.36C1293.23 991.15 1292.19 988.15 1293.4 985.64C1297.4 977.36 1301.66 969.32 1306.04 961.77C1307.43 959.37 1310.5 958.55 1312.91 959.94C1315.32 961.34 1316.13 964.41 1314.74 966.82C1310.49 974.16 1306.35 981.96 1302.45 990.02C1301.58 991.82 1299.79 992.87 1297.92 992.87ZM1277.64 1042.09C1277.08 1042.09 1276.52 1042 1275.96 1041.8C1273.34 1040.87 1271.97 1037.99 1272.9 1035.38C1276.1 1026.36 1279.23 1018.15 1282.46 1010.26C1283.51 1007.69 1286.45 1006.46 1289.02 1007.51C1291.59 1008.56 1292.82 1011.5 1291.77 1014.07C1288.6 1021.81 1285.53 1029.88 1282.38 1038.74C1281.65 1040.8 1279.71 1042.09 1277.64 1042.09ZM1261.25 1092.81C1260.77 1092.81 1260.28 1092.74 1259.79 1092.59C1257.13 1091.78 1255.63 1088.97 1256.44 1086.31C1259.03 1077.78 1261.65 1069.27 1264.36 1060.79C1265.21 1058.14 1268.05 1056.69 1270.68 1057.53C1273.33 1058.38 1274.79 1061.21 1273.94 1063.85C1271.24 1072.29 1268.64 1080.75 1266.07 1089.23C1265.41 1091.41 1263.41 1092.81 1261.25 1092.81ZM1245.62 1143.77C1245.1 1143.77 1244.59 1143.69 1244.07 1143.52C1241.43 1142.67 1239.97 1139.84 1240.83 1137.19C1243.54 1128.76 1246.15 1120.29 1248.73 1111.82C1249.54 1109.17 1252.35 1107.67 1255 1108.48C1257.66 1109.28 1259.16 1112.09 1258.35 1114.75C1255.76 1123.27 1253.13 1131.79 1250.4 1140.27C1249.72 1142.41 1247.74 1143.77 1245.62 1143.77ZM1227.53 1193.89C1226.9 1193.89 1226.25 1193.77 1225.62 1193.51C1223.05 1192.45 1221.83 1189.51 1222.88 1186.94C1226.08 1179.19 1229.18 1171.12 1232.34 1162.28C1233.27 1159.67 1236.15 1158.3 1238.77 1159.24C1241.38 1160.18 1242.75 1163.06 1241.81 1165.67C1238.59 1174.66 1235.45 1182.87 1232.19 1190.78C1231.38 1192.72 1229.51 1193.89 1227.53 1193.89ZM1197.01 1236.69C1195.58 1236.69 1194.16 1236.09 1193.17 1234.91C1191.37 1232.79 1191.63 1229.62 1193.75 1227.82C1200.35 1222.24 1205.93 1216.16 1210.82 1209.26C1212.43 1206.99 1215.57 1206.45 1217.83 1208.06C1220.1 1209.67 1220.64 1212.81 1219.03 1215.07C1213.72 1222.57 1207.4 1229.44 1200.25 1235.5C1199.31 1236.3 1198.16 1236.69 1197.01 1236.69ZM1150.73 1262.45C1148.7 1262.45 1146.78 1261.21 1146.02 1259.19C1145.05 1256.59 1146.36 1253.69 1148.96 1252.71C1157.87 1249.35 1165.6 1245.88 1172.61 1242.09C1175.05 1240.77 1178.1 1241.67 1179.43 1244.12C1180.75 1246.56 1179.84 1249.61 1177.4 1250.94C1169.99 1254.95 1161.85 1258.61 1152.51 1262.13C1151.92 1262.35 1151.32 1262.45 1150.73 1262.45ZM1099.73 1277.9C1097.5 1277.9 1095.46 1276.41 1094.87 1274.16C1094.16 1271.47 1095.76 1268.72 1098.44 1268.01C1106.68 1265.83 1115.47 1263.47 1124.01 1260.95C1126.68 1260.17 1129.47 1261.69 1130.25 1264.36C1131.04 1267.02 1129.52 1269.82 1126.85 1270.6C1118.2 1273.15 1109.32 1275.54 1101.02 1277.74C1100.59 1277.85 1100.15 1277.9 1099.73 1277.9ZM1048.35 1292.15C1046.2 1292.15 1044.22 1290.77 1043.55 1288.61C1042.72 1285.96 1044.21 1283.14 1046.86 1282.32C1054.54 1279.93 1062.74 1277.57 1072.64 1274.87C1075.32 1274.13 1078.09 1275.72 1078.81 1278.4C1079.55 1281.08 1077.96 1283.84 1075.28 1284.57C1065.49 1287.24 1057.41 1289.58 1049.84 1291.93C1049.35 1292.08 1048.84 1292.15 1048.35 1292.15ZM998.59 1311.11C996.71 1311.11 994.9 1310.04 994.04 1308.22C992.86 1305.71 993.93 1302.71 996.44 1301.53C1004.36 1297.8 1012.51 1294.36 1021.36 1291.02C1023.96 1290.04 1026.86 1291.36 1027.84 1293.95C1028.82 1296.55 1027.51 1299.46 1024.91 1300.44C1016.31 1303.68 1008.4 1307.01 1000.74 1310.63C1000.04 1310.95 999.31 1311.11 998.59 1311.11ZM952.98 1338.39C951.45 1338.39 949.94 1337.7 948.95 1336.39C947.29 1334.17 947.73 1331.01 949.95 1329.34C957.09 1323.98 964.67 1318.9 972.5 1314.23C974.88 1312.81 977.98 1313.59 979.4 1315.98C980.82 1318.37 980.04 1321.46 977.65 1322.88C970.13 1327.36 962.85 1332.24 956 1337.39C955.09 1338.06 954.03 1338.39 952.98 1338.39ZM914.29 1374.77C913.13 1374.77 911.97 1374.37 911.02 1373.56C908.91 1371.75 908.67 1368.57 910.47 1366.47C916.39 1359.56 922.68 1352.96 929.19 1346.83C931.21 1344.92 934.4 1345.02 936.3 1347.04C938.2 1349.07 938.11 1352.25 936.08 1354.15C929.84 1360.03 923.79 1366.38 918.11 1373.01C917.12 1374.17 915.71 1374.77 914.29 1374.77ZM883.31 1418.03C882.42 1418.03 881.52 1417.8 880.7 1417.3C878.33 1415.86 877.58 1412.76 879.02 1410.39C883.62 1402.85 888.62 1395.27 893.9 1387.85C895.5 1385.59 898.65 1385.06 900.91 1386.67C903.17 1388.28 903.7 1391.42 902.09 1393.68C896.95 1400.91 892.08 1408.29 887.62 1415.62C886.67 1417.18 885.01 1418.03 883.31 1418.03ZM859.27 1465.53C858.63 1465.53 857.99 1465.42 857.37 1465.16C854.8 1464.12 853.56 1461.18 854.61 1458.61C857.95 1450.38 861.74 1442.1 865.85 1433.99C867.11 1431.52 870.13 1430.53 872.61 1431.79C875.09 1433.04 876.08 1436.07 874.82 1438.55C870.83 1446.4 867.17 1454.43 863.93 1462.4C863.13 1464.35 861.25 1465.53 859.27 1465.53ZM875.62 1488.87C873.13 1488.87 870.97 1487.02 870.64 1484.48C870.29 1481.73 872.23 1479.21 874.99 1478.85C884.03 1477.69 893.12 1476.93 901.99 1476.59C904.79 1476.51 907.1 1478.64 907.21 1481.42C907.31 1484.2 905.15 1486.53 902.37 1486.64C893.8 1486.97 885.02 1487.71 876.27 1488.83C876.05 1488.86 875.84 1488.87 875.62 1488.87ZM955.29 1489.9C955.01 1489.9 954.73 1489.88 954.45 1489.83C946.06 1488.41 937.34 1487.42 928.52 1486.9C925.75 1486.73 923.63 1484.35 923.8 1481.58C923.96 1478.8 926.35 1476.7 929.12 1476.85C938.29 1477.4 947.38 1478.43 956.13 1479.91C958.87 1480.37 960.71 1482.97 960.25 1485.71C959.83 1488.16 957.7 1489.9 955.29 1489.9ZM1006.22 1505.11C1005.53 1505.11 1004.83 1504.96 1004.16 1504.66C996.45 1501.19 988.26 1498.17 979.82 1495.67C977.15 1494.88 975.63 1492.08 976.42 1489.42C977.21 1486.76 980.01 1485.23 982.67 1486.02C991.55 1488.65 1000.17 1491.83 1008.29 1495.49C1010.82 1496.63 1011.95 1499.61 1010.81 1502.14C1009.97 1504.01 1008.14 1505.11 1006.22 1505.11ZM843.76 1516.45C843.42 1516.45 843.08 1516.41 842.74 1516.34C840.02 1515.79 838.27 1513.13 838.82 1510.41C839.87 1505.31 841.07 1500.19 842.41 1495.09C836.6 1496.49 830.77 1498.06 824.99 1499.78C822.33 1500.56 819.53 1499.05 818.74 1496.39C817.94 1493.72 819.46 1490.92 822.12 1490.13C829.89 1487.82 837.76 1485.77 845.56 1484.03C846.4 1481.44 849.18 1479.99 851.81 1480.79C854.46 1481.6 855.96 1484.42 855.15 1487.07C852.58 1495.45 850.41 1503.98 848.68 1512.42C848.19 1514.8 846.1 1516.45 843.76 1516.45ZM773.76 1518.85C771.85 1518.85 770.04 1517.76 769.19 1515.93C768.02 1513.4 769.12 1510.42 771.64 1509.25C779.85 1505.46 788.22 1501.94 796.53 1498.79C799.12 1497.81 802.03 1499.11 803.02 1501.71C804 1504.3 802.7 1507.21 800.1 1508.19C792.01 1511.26 783.85 1514.69 775.86 1518.38C775.18 1518.7 774.46 1518.85 773.76 1518.85ZM1050.66 1534.12C1049.44 1534.12 1048.22 1533.68 1047.26 1532.78C1041.05 1527.06 1034.2 1521.76 1026.88 1517.01C1024.55 1515.5 1023.88 1512.38 1025.39 1510.05C1026.91 1507.72 1030.02 1507.06 1032.35 1508.57C1040.15 1513.63 1047.45 1519.28 1054.07 1525.39C1056.12 1527.27 1056.25 1530.45 1054.36 1532.5C1053.37 1533.57 1052.02 1534.12 1050.66 1534.12ZM726.98 1544.33C725.31 1544.33 723.68 1543.5 722.72 1541.98C721.24 1539.63 721.94 1536.53 724.29 1535.04C731.92 1530.23 739.75 1525.63 747.54 1521.38C749.98 1520.05 753.04 1520.95 754.37 1523.39C755.7 1525.83 754.8 1528.88 752.36 1530.21C744.75 1534.36 737.11 1538.85 729.66 1543.55C728.83 1544.08 727.9 1544.33 726.98 1544.33ZM838.31 1569.38L838.31 1569.38C835.53 1569.38 833.28 1567.12 833.28 1564.34C833.29 1555.37 833.77 1546.24 834.7 1537.23C834.98 1534.46 837.44 1532.46 840.22 1532.74C842.98 1533.03 844.99 1535.5 844.7 1538.26C843.81 1546.94 843.35 1555.72 843.34 1564.35C843.34 1567.13 841.09 1569.38 838.31 1569.38ZM683.74 1575.44C682.28 1575.44 680.83 1574.81 679.84 1573.58C678.09 1571.43 678.41 1568.26 680.57 1566.51C687.31 1561.03 694.26 1555.7 701.23 1550.65L701.98 1550.12C704.24 1548.5 707.38 1549.03 708.99 1551.29C710.6 1553.56 710.08 1556.7 707.81 1558.31L707.13 1558.8C700.31 1563.74 693.51 1568.96 686.91 1574.32C685.98 1575.07 684.86 1575.44 683.74 1575.44ZM1082.31 1576.58C1080.42 1576.58 1078.6 1575.51 1077.75 1573.68C1076.22 1570.4 1074.51 1567.16 1072.67 1564.04C1070.17 1559.85 1067.42 1555.74 1064.49 1551.83C1062.82 1549.61 1063.27 1546.45 1065.49 1544.79C1067.71 1543.12 1070.87 1543.57 1072.54 1545.79C1075.68 1549.99 1078.64 1554.4 1081.31 1558.91C1083.33 1562.31 1085.2 1565.85 1086.87 1569.43C1088.04 1571.95 1086.95 1574.94 1084.43 1576.11C1083.75 1576.43 1083.02 1576.58 1082.31 1576.58ZM644.29 1611.28C643.01 1611.28 641.74 1610.8 640.76 1609.83C638.78 1607.88 638.76 1604.69 640.72 1602.72C647.04 1596.33 653.58 1590.05 660.15 1584.07C662.2 1582.2 665.38 1582.35 667.25 1584.41C669.12 1586.46 668.97 1589.65 666.92 1591.51C660.48 1597.38 654.07 1603.52 647.87 1609.79C646.89 1610.79 645.59 1611.28 644.29 1611.28ZM843.82 1622.3C841.5 1622.3 839.41 1620.67 838.9 1618.31C837.03 1609.5 835.61 1600.47 834.67 1591.47C834.38 1588.71 836.39 1586.23 839.15 1585.95C841.92 1585.67 844.39 1587.67 844.68 1590.43C845.58 1599.07 846.95 1607.75 848.74 1616.22C849.32 1618.94 847.59 1621.61 844.87 1622.18C844.52 1622.26 844.17 1622.3 843.82 1622.3ZM1093.08 1628.31L1092.97 1628.31C1090.2 1628.25 1087.99 1625.95 1088.06 1623.17C1088.07 1622.38 1088.08 1621.6 1088.08 1620.81C1088.08 1613.05 1087.29 1605.32 1085.74 1597.82C1085.18 1595.1 1086.93 1592.43 1089.65 1591.87C1092.36 1591.3 1095.03 1593.06 1095.59 1595.78C1097.28 1603.95 1098.14 1612.37 1098.14 1620.81C1098.14 1621.67 1098.13 1622.53 1098.11 1623.39C1098.05 1626.13 1095.81 1628.31 1093.08 1628.31ZM608.74 1651.04C607.63 1651.04 606.5 1650.67 605.57 1649.92C603.42 1648.17 603.08 1645 604.83 1642.84C610.51 1635.83 616.38 1628.94 622.28 1622.34C624.13 1620.27 627.31 1620.09 629.38 1621.94C631.45 1623.79 631.63 1626.97 629.78 1629.04C623.99 1635.52 618.23 1642.29 612.65 1649.18C611.65 1650.4 610.2 1651.04 608.74 1651.04ZM860.44 1672.83C858.53 1672.83 856.7 1671.74 855.86 1669.89C852.14 1661.72 848.81 1653.2 845.97 1644.56C845.1 1641.92 846.54 1639.08 849.18 1638.21C851.81 1637.34 854.66 1638.78 855.53 1641.42C858.25 1649.71 861.44 1657.89 865.01 1665.72C866.16 1668.25 865.05 1671.23 862.52 1672.38C861.84 1672.69 861.14 1672.83 860.44 1672.83ZM1080.67 1679.73C1079.93 1679.73 1079.19 1679.57 1078.48 1679.23C1075.98 1678.02 1074.93 1675.01 1076.14 1672.51C1079.86 1664.82 1082.76 1656.73 1084.76 1648.48C1085.41 1645.78 1088.14 1644.12 1090.83 1644.77C1093.53 1645.43 1095.19 1648.14 1094.54 1650.84C1092.37 1659.79 1089.23 1668.55 1085.2 1676.89C1084.33 1678.69 1082.54 1679.73 1080.67 1679.73ZM577.06 1693.97C576.09 1693.97 575.12 1693.7 574.25 1693.12C571.95 1691.57 571.34 1688.44 572.89 1686.14C577.9 1678.68 583.11 1671.28 588.37 1664.14C590.02 1661.9 593.17 1661.43 595.4 1663.07C597.64 1664.72 598.12 1667.87 596.47 1670.11C591.29 1677.13 586.17 1684.41 581.24 1691.75C580.27 1693.19 578.67 1693.97 577.06 1693.97ZM888.07 1718.26C886.6 1718.26 885.15 1717.62 884.15 1716.39C880.94 1712.42 877.77 1708.13 874.73 1703.64C872.61 1700.5 870.53 1697.25 868.55 1693.97C867.11 1691.59 867.87 1688.5 870.25 1687.07C872.63 1685.63 875.72 1686.39 877.16 1688.77C879.05 1691.9 881.04 1695.01 883.06 1698C885.94 1702.25 888.94 1706.31 891.98 1710.07C893.72 1712.22 893.39 1715.39 891.23 1717.14C890.3 1717.89 889.18 1718.26 888.07 1718.26ZM1049.57 1722.76C1048.29 1722.76 1047 1722.27 1046.02 1721.3C1044.05 1719.34 1044.04 1716.16 1046 1714.18C1051.96 1708.17 1057.6 1701.54 1062.74 1694.47C1064.37 1692.23 1067.51 1691.73 1069.77 1693.36C1072.01 1695 1072.51 1698.14 1070.88 1700.39C1065.43 1707.87 1059.47 1714.9 1053.14 1721.27C1052.15 1722.26 1050.86 1722.76 1049.57 1722.76ZM549.14 1739.45C548.31 1739.45 547.47 1739.24 546.69 1738.8C544.26 1737.44 543.4 1734.38 544.76 1731.96C549.15 1724.11 553.73 1716.31 558.35 1708.76C559.8 1706.4 562.9 1705.65 565.27 1707.11C567.64 1708.56 568.38 1711.66 566.93 1714.03C562.37 1721.46 557.86 1729.14 553.53 1736.87C552.61 1738.52 550.9 1739.45 549.14 1739.45ZM928.7 1752.07C927.96 1752.07 927.21 1751.9 926.49 1751.56C918.48 1747.62 910.68 1742.45 903.3 1736.19C901.18 1734.39 900.93 1731.22 902.72 1729.1C904.52 1726.98 907.7 1726.72 909.81 1728.52C916.56 1734.25 923.66 1738.96 930.93 1742.52C933.42 1743.75 934.45 1746.76 933.22 1749.26C932.35 1751.04 930.56 1752.07 928.7 1752.07ZM1006.09 1753.03C1004.14 1753.03 1002.28 1751.88 1001.46 1749.97C1000.37 1747.42 1001.56 1744.46 1004.12 1743.37C1011.67 1740.15 1019.16 1735.93 1026.37 1730.85C1028.64 1729.24 1031.78 1729.79 1033.38 1732.06C1034.98 1734.33 1034.44 1737.47 1032.17 1739.07C1024.38 1744.56 1016.27 1749.12 1008.06 1752.63C1007.42 1752.9 1006.75 1753.03 1006.09 1753.03ZM967.64 1761.24C962.8 1761.24 957.95 1760.86 953.2 1760.1C950.45 1759.67 948.58 1757.09 949.02 1754.35C949.46 1751.6 952.05 1749.74 954.78 1750.17C962.95 1751.47 971.4 1751.52 979.82 1750.3C982.56 1749.92 985.11 1751.81 985.51 1754.56C985.91 1757.31 984 1759.86 981.25 1760.26C976.71 1760.91 972.13 1761.24 967.64 1761.24ZM524.85 1786.94C524.13 1786.94 523.41 1786.78 522.72 1786.46C520.21 1785.29 519.12 1782.3 520.29 1779.78C524.08 1771.65 528.04 1763.53 532.08 1755.64C533.34 1753.17 536.37 1752.19 538.85 1753.46C541.32 1754.72 542.3 1757.75 541.03 1760.22C537.06 1768 533.15 1776.01 529.41 1784.03C528.55 1785.86 526.74 1786.94 524.85 1786.94ZM504.02 1836.03C503.42 1836.03 502.81 1835.92 502.22 1835.69C499.63 1834.7 498.33 1831.78 499.33 1829.19C502.54 1820.84 505.92 1812.47 509.38 1804.31C510.46 1801.75 513.42 1800.56 515.97 1801.64C518.53 1802.73 519.73 1805.68 518.64 1808.24C515.23 1816.29 511.89 1824.56 508.72 1832.8C507.95 1834.8 506.04 1836.03 504.02 1836.03ZM486.56 1886.38C486.06 1886.38 485.56 1886.31 485.06 1886.15C482.41 1885.33 480.93 1882.51 481.75 1879.86C484.4 1871.35 487.21 1862.78 490.12 1854.39C491.03 1851.76 493.9 1850.37 496.52 1851.28C499.15 1852.19 500.54 1855.06 499.63 1857.68C496.75 1865.97 493.97 1874.44 491.36 1882.84C490.69 1885 488.7 1886.38 486.56 1886.38ZM472.38 1937.72C471.98 1937.72 471.58 1937.68 471.19 1937.58C468.49 1936.93 466.83 1934.21 467.48 1931.51C469.58 1922.87 471.84 1914.15 474.21 1905.57C474.95 1902.9 477.71 1901.32 480.39 1902.07C483.07 1902.8 484.64 1905.57 483.9 1908.25C481.56 1916.72 479.33 1925.35 477.26 1933.88C476.7 1936.18 474.64 1937.72 472.38 1937.72ZM461.45 1989.86C461.15 1989.86 460.86 1989.84 460.56 1989.79C457.83 1989.3 456 1986.69 456.49 1983.95C458.04 1975.2 459.75 1966.34 461.58 1957.63C462.15 1954.91 464.82 1953.17 467.53 1953.73C470.25 1954.3 471.99 1956.97 471.42 1959.69C469.62 1968.3 467.92 1977.06 466.39 1985.71C465.96 1988.15 463.84 1989.86 461.45 1989.86ZM453.83 2042.63C453.64 2042.63 453.45 2042.62 453.26 2042.6C450.5 2042.29 448.51 2039.8 448.82 2037.04C449.81 2028.23 450.95 2019.28 452.23 2010.44C452.63 2007.69 455.17 2005.77 457.93 2006.18C460.68 2006.57 462.58 2009.13 462.19 2011.87C460.92 2020.61 459.79 2029.45 458.82 2038.16C458.53 2040.73 456.35 2042.63 453.83 2042.63ZM449.66 2095.78L449.43 2095.77C446.66 2095.65 444.51 2093.3 444.63 2090.53C445.02 2081.7 445.58 2072.69 446.27 2063.75C446.49 2060.98 448.88 2058.92 451.68 2059.12C454.45 2059.34 456.52 2061.76 456.31 2064.53C455.61 2073.37 455.07 2082.26 454.68 2090.97C454.56 2093.67 452.34 2095.78 449.66 2095.78ZM449.21 2149.08C446.5 2149.08 444.26 2146.92 444.18 2144.19C443.99 2137.44 443.89 2130.55 443.89 2123.69C443.89 2121.58 443.9 2119.47 443.92 2117.36C443.94 2114.59 446.19 2112.37 448.95 2112.37L448.99 2112.37C451.77 2112.39 454 2114.67 453.98 2117.44C453.96 2119.53 453.95 2121.61 453.95 2123.69C453.95 2130.45 454.05 2137.25 454.24 2143.91C454.32 2146.68 452.13 2149 449.36 2149.08L449.21 2149.08ZM452.89 2202.24C450.36 2202.24 448.18 2200.34 447.9 2197.77C446.92 2189.02 446.11 2180.02 445.49 2171.01C445.3 2168.24 447.39 2165.84 450.16 2165.65C452.91 2165.45 455.33 2167.55 455.52 2170.33C456.13 2179.19 456.93 2188.04 457.89 2196.65C458.2 2199.41 456.22 2201.9 453.46 2202.21C453.27 2202.23 453.08 2202.24 452.89 2202.24ZM461.14 2254.88C458.79 2254.88 456.69 2253.23 456.22 2250.84C454.46 2242.11 452.87 2233.21 451.49 2224.4C451.05 2221.66 452.93 2219.08 455.67 2218.65C458.43 2218.23 460.99 2220.09 461.42 2222.84C462.79 2231.51 464.35 2240.27 466.08 2248.86C466.63 2251.59 464.86 2254.24 462.14 2254.78C461.8 2254.85 461.47 2254.88 461.14 2254.88ZM473.8 2306.65C471.62 2306.65 469.61 2305.21 468.97 2303.01C466.49 2294.41 464.16 2285.68 462.05 2277.06C461.39 2274.36 463.04 2271.64 465.74 2270.98C468.44 2270.32 471.16 2271.97 471.82 2274.67C473.9 2283.16 476.19 2291.75 478.64 2300.22C479.41 2302.89 477.87 2305.67 475.2 2306.45C474.74 2306.58 474.27 2306.65 473.8 2306.65ZM490.65 2357.21C488.62 2357.21 486.71 2355.97 485.95 2353.95C482.79 2345.61 479.76 2337.1 476.95 2328.65C476.07 2326.02 477.49 2323.17 480.13 2322.29C482.77 2321.41 485.61 2322.84 486.49 2325.47C489.26 2333.79 492.25 2342.17 495.36 2350.39C496.34 2352.99 495.03 2355.9 492.43 2356.88C491.85 2357.1 491.25 2357.21 490.65 2357.21ZM511.45 2406.28C509.56 2406.28 507.75 2405.21 506.89 2403.39C503.1 2395.31 499.41 2387.06 495.94 2378.87C494.86 2376.32 496.05 2373.36 498.61 2372.28C501.16 2371.19 504.12 2372.39 505.2 2374.95C508.62 2383.01 512.25 2391.14 516 2399.11C517.18 2401.62 516.1 2404.62 513.59 2405.8C512.89 2406.13 512.17 2406.28 511.45 2406.28ZM535.92 2453.63C534.16 2453.63 532.46 2452.71 531.53 2451.08C527.14 2443.3 522.85 2435.35 518.77 2427.46C517.49 2424.99 518.46 2421.96 520.93 2420.68C523.4 2419.4 526.43 2420.38 527.71 2422.84C531.73 2430.63 535.96 2438.46 540.29 2446.13C541.66 2448.55 540.81 2451.62 538.39 2452.98C537.61 2453.42 536.76 2453.63 535.92 2453.63ZM563.79 2499.07C562.16 2499.07 560.56 2498.28 559.6 2496.82C554.65 2489.37 549.79 2481.76 545.15 2474.2C543.7 2471.83 544.44 2468.74 546.81 2467.28C549.18 2465.83 552.28 2466.57 553.73 2468.94C558.3 2476.4 563.1 2483.91 567.98 2491.26C569.51 2493.57 568.88 2496.69 566.57 2498.23C565.71 2498.8 564.75 2499.07 563.79 2499.07ZM594.79 2542.44C593.28 2542.44 591.79 2541.76 590.8 2540.47C585.36 2533.39 579.98 2526.14 574.82 2518.92C573.2 2516.66 573.73 2513.51 575.99 2511.9C578.25 2510.28 581.39 2510.8 583 2513.06C588.1 2520.19 593.41 2527.35 598.77 2534.34C600.47 2536.54 600.05 2539.7 597.85 2541.4C596.94 2542.1 595.86 2542.44 594.79 2542.44Z" />
					<path id="Layer" class="shp32" d="M1615.45 821.88C1615.12 821.88 1614.79 821.84 1614.46 821.78C1610.16 820.91 1605.81 820.16 1601.52 819.54C1598.77 819.14 1596.86 816.58 1597.26 813.83C1597.66 811.08 1600.2 809.18 1602.96 809.58C1607.44 810.23 1611.97 811.02 1616.44 811.91C1619.16 812.46 1620.92 815.11 1620.38 817.84C1619.9 820.22 1617.8 821.88 1615.45 821.88Z" />
					<path id="Layer" class="shp33" d="M1640.75 870.13C1640.75 870.13 1660.51 988.76 1574.98 1012.66C1489.46 1036.55 1397.24 1039.43 1376.55 1075.74C1376.55 1075.74 1382.68 840.65 1616.42 835.37L1640.75 870.13Z" />
					<path id="Layer" class="shp34" d="M1892.47 842.15C1892.47 842.15 1951.43 944.45 1930.38 978.49C1910.36 1010.87 1683.15 1151.74 1661.02 1165.41C1660.03 1166.03 1658.76 1165.75 1658.07 1164.81C1652.36 1157 1650.71 1146.97 1653.64 1137.75C1667.81 1093.23 1711.25 960.65 1737.24 924.78C1768.63 881.45 1892.47 842.15 1892.47 842.15Z" />
					<path id="Layer" class="shp16" d="M1733.07 1101.94C1733.77 1102.12 1734.55 1102.02 1735.21 1101.59C1736.45 1100.8 1859.55 1021.49 1911.21 985.29C1920.41 978.85 1924.95 967.58 1922.78 956.59C1919.35 939.26 1911.59 905.54 1898.07 874.46C1897.47 873.09 1895.88 872.46 1894.5 873.06C1893.12 873.66 1892.49 875.26 1893.09 876.63C1906.41 907.24 1914.07 940.53 1917.45 957.64C1919.21 966.53 1915.54 975.63 1908.09 980.85C1856.52 1016.99 1733.51 1096.24 1732.27 1097.03C1731.01 1097.84 1730.65 1099.52 1731.46 1100.78C1731.85 1101.38 1732.43 1101.78 1733.07 1101.94Z" />
					<path id="Layer" class="shp35" d="M1730.47 620.78C1730.47 620.78 1650.78 533.64 1611.97 543.41C1575.05 552.7 1372.06 726.67 1352.34 743.62C1351.45 744.38 1351.33 745.67 1352.02 746.62C1357.73 754.43 1366.8 759.03 1376.47 759.02C1423.2 758.99 1562.7 757.68 1604.76 743.75C1655.55 726.94 1730.47 620.78 1730.47 620.78Z" />
					<path id="Layer" class="shp16" d="M1436.66 696.93C1437.47 697.14 1438.37 696.97 1439.07 696.39C1440.2 695.45 1552.94 602.17 1602.99 563.94C1610.21 558.42 1620 557.68 1627.93 562.04C1643.23 570.44 1672.64 587.81 1697.78 609.76C1698.9 610.76 1700.63 610.63 1701.61 609.5C1702.6 608.37 1702.48 606.66 1701.35 605.67C1677.11 584.5 1649.47 567.67 1630.55 557.28C1620.73 551.89 1608.62 552.81 1599.69 559.63C1549.56 597.92 1436.74 691.27 1435.61 692.21C1434.45 693.16 1434.29 694.88 1435.25 696.03C1435.63 696.49 1436.13 696.79 1436.66 696.93Z" />
					<path id="Layer" class="shp36" d="M2211.61 606.7C2178.08 653.3 2134.45 700.47 2077.8 742.18C1901.93 871.68 1750.27 936.44 1706.65 953.7C1698.76 956.82 1689.84 955.28 1683.32 949.85C1631.91 907.1 1593.18 854.99 1567.06 793.56C1562.15 782.01 1564.19 768.64 1572.21 758.97C1606.99 717.03 1712.79 597.29 1881.8 474.36C1938.26 433.29 1995.96 406.07 2050.16 388.2C2138.5 457.68 2187.13 551.8 2211.61 606.7Z" />
					<path id="Layer" class="shp37" d="M2050.16 388.2C2169.89 348.72 2272.5 354.91 2306.69 358.61C2313.37 359.34 2317.96 365.61 2316.63 372.2C2309.84 405.79 2284.85 504.89 2211.61 606.7C2187.13 551.8 2138.5 457.68 2050.16 388.2Z" />
					<path id="Layer" class="shp38" d="M1926.59 511.24C1880.94 544.64 1873 611.45 1908.85 660.45C1944.71 709.44 2010.79 722.08 2056.44 688.67C2102.09 655.26 2110.03 588.46 2074.17 539.46C2038.32 490.46 1972.24 477.83 1926.59 511.24Z" />
					<path id="Layer" class="shp39" d="M1940.28 525.09C1903.9 551.71 1897.57 604.94 1926.15 643.98C1954.72 683.02 2007.37 693.09 2043.75 666.47C2080.12 639.85 2086.45 586.62 2057.88 547.58C2029.3 508.53 1976.65 498.47 1940.28 525.09Z" />
					<path id="Layer" class="shp16" d="M2040.49 636.32C2041.52 636.58 2042.66 636.23 2043.34 635.32C2060.7 612.1 2060.36 578.85 2042.51 554.46C2038.02 548.31 2032.64 542.98 2026.53 538.61C2025.32 537.73 2023.62 538.01 2022.75 539.23C2021.88 540.45 2022.15 542.14 2023.37 543.01C2029.01 547.06 2033.98 551.99 2038.13 557.66C2054.58 580.14 2054.94 610.74 2038.99 632.07C2038.1 633.27 2038.34 634.97 2039.54 635.86C2039.84 636.09 2040.16 636.23 2040.49 636.32Z" />
					<path id="Layer" class="shp40" d="M1782.5 662.92C1752.34 684.99 1747.09 729.12 1770.78 761.49C1794.47 793.86 1838.13 802.21 1868.29 780.13C1898.44 758.06 1903.69 713.93 1880 681.56C1856.31 649.19 1812.66 640.85 1782.5 662.92Z" />
					<path id="Layer" class="shp41" d="M1791.54 672.07C1767.51 689.65 1763.33 724.82 1782.21 750.61C1801.08 776.4 1835.87 783.06 1859.9 765.47C1883.93 747.88 1888.11 712.72 1869.23 686.92C1850.36 661.13 1815.57 654.48 1791.54 672.07Z" />
					<path id="Layer" class="shp16" d="M1857.52 746.44C1858.55 746.71 1859.69 746.35 1860.37 745.44C1872.08 729.78 1871.86 707.36 1859.83 690.93C1856.8 686.79 1853.18 683.19 1849.06 680.25C1847.85 679.37 1846.15 679.65 1845.27 680.87C1844.4 682.09 1844.68 683.79 1845.9 684.66C1849.55 687.27 1852.76 690.46 1855.45 694.13C1866.08 708.66 1866.32 728.42 1856.02 742.19C1855.12 743.39 1855.37 745.09 1856.57 745.99C1856.86 746.21 1857.18 746.36 1857.52 746.44Z" />
					<path id="Layer" class="shp42" d="M1377.62 2776.4C1377.62 2776.4 1372.03 2808.02 1369.29 2839.31C1368.22 2851.54 1377.65 2862.16 1389.92 2862.67C1431.59 2864.41 1520.74 2867.78 1552.73 2866.36C1557.53 2866.14 1560.68 2861.22 1558.9 2856.75C1557.41 2853 1554.53 2849.97 1550.87 2848.28L1403.62 2780.61L1377.62 2776.4Z" />
					<path id="Layer" class="shp43" d="M1373.04 2757.83L1377.53 2795.64C1377.53 2795.64 1403.32 2807.65 1420.94 2794.13L1410.26 2751.99L1373.04 2757.83Z" />
					<path id="Layer" class="shp44" d="M1376.41 2046.91C1374.48 2056.79 1366.01 2539.69 1417.63 2756.1C1418.47 2759.63 1416.68 2763.27 1413.32 2764.64C1405.4 2767.88 1389.88 2772.56 1371.28 2773.19C1365.52 2773.38 1360.36 2769.64 1358.73 2764.11C1343.98 2713.9 1273.27 2462.33 1264.05 2222.02C1253.74 1953.49 1264.05 2212.88 1264.05 2212.88L1270.09 2046.89L1376.41 2046.91Z" />
					<path id="Layer" class="shp45" d="M1208.23 2792.9C1208.23 2792.9 1199.34 2808.86 1190.74 2851.26C1189.18 2858.92 1194.53 2866.25 1202.31 2867.02C1216.07 2868.37 1237.26 2870.11 1254.23 2869.99C1262.05 2869.94 1268.15 2863.13 1267.21 2855.36C1265.33 2839.88 1259.48 2814.49 1241.39 2794.69L1208.23 2792.9Z" />
					<path id="Layer" class="shp46" d="M1200.42 2744.26L1210.91 2801.44C1210.91 2801.44 1221.27 2809.15 1241.78 2803.56L1236.77 2742.04L1200.42 2744.26Z" />
					<path id="Layer" class="shp47" d="M1172.1 2061.73C1129.89 2316.52 1181.26 2691.45 1198.59 2764.84C1199.65 2769.33 1203.28 2772.77 1207.83 2773.53C1215.56 2774.81 1228.3 2775.86 1240.85 2772.21C1245.17 2770.96 1248.21 2767.05 1248.39 2762.55C1250.71 2703.22 1246.53 2339 1285.87 2195.06C1287.86 2187.76 1292.32 2181.4 1298.48 2177.02L1374.83 2122.74L1380.68 2035L1172.1 2061.73Z" />
					<path id="Layer" class="shp48" d="M1441.12 1578.96C1314.6 1576.87 1175 1612.18 1175 1612.18C1137.29 1832.23 1168.4 2086.04 1168.4 2086.04C1266.35 2111.73 1376.84 2070.34 1376.84 2070.34C1393.12 1978.36 1469.08 1719.51 1469.08 1719.51C1530.89 1711.84 1581.82 1694 1623.75 1670.42C1591.76 1633.35 1576.69 1586.17 1570.13 1558.28C1525.4 1572.18 1480.14 1579.6 1441.12 1578.96Z" />
					<path id="Layer" class="shp49" d="M1814.83 1392.6C1802.4 1377.59 1786.67 1384.69 1786.67 1384.69C1768.05 1463.34 1670.43 1527.11 1570.13 1558.28C1576.69 1586.17 1591.76 1633.35 1623.75 1670.42C1790.2 1576.84 1814.83 1392.6 1814.83 1392.6Z" />
					<path id="Layer" class="shp50" d="M1811.81 1396.42C1813.11 1400.56 1798.05 1406.85 1789.19 1389.94C1788.88 1381.84 1783.95 1347.12 1788.79 1340.52C1814.58 1305.36 1864.58 1261.28 1864.58 1261.28C1873.03 1269.62 1866.07 1277.81 1866.07 1277.81L1841.81 1303.08C1846.89 1312.25 1853.08 1319.99 1855.98 1331.08C1858.17 1339.48 1856.83 1348.45 1852.59 1356.1C1848.33 1363.77 1842.52 1373.74 1837.03 1381.54C1826.63 1396.31 1811.81 1396.42 1811.81 1396.42Z" />
					<path id="Layer" class="shp51" d="M1831.2 1319.48L1809.1 1338.21L1802.16 1356.87L1821.87 1378.73C1821.87 1378.73 1828.49 1341.72 1833.42 1333.71C1838.34 1325.69 1835.79 1321.82 1831.2 1319.48Z" />
					<path id="Layer" class="shp52" d="M1223.53 1734.68L1175 1612.18C1175 1612.18 1056.82 1692.47 1037.39 1794.28C1059.72 1795.92 1100.35 1801.73 1140.12 1821.81C1148.86 1773.74 1223.53 1734.68 1223.53 1734.68Z" />
					<path id="Layer" class="shp53" d="M1326.8 1849.96C1326.8 1849.96 1194.12 1924.95 1149.35 1860.92C1140.05 1847.62 1137.83 1834.41 1140.12 1821.81C1100.35 1801.73 1059.72 1795.92 1037.39 1794.28C1031.53 1824.97 1034.63 1857.61 1052.66 1890.6C1131.08 2034.05 1344.36 1882.67 1344.36 1882.67L1326.8 1849.96Z" />
					<path id="Layer" class="shp54" d="M1310.86 1944.82L1383.27 1691.94C1384.09 1689.07 1386.54 1686.98 1389.5 1686.63C1402.62 1685.1 1440.64 1680.81 1484.53 1677.09C1537.41 1672.62 1598.8 1669 1635.5 1672.08C1640.71 1672.52 1643.86 1678.04 1641.54 1682.73C1620.68 1724.94 1534.86 1896.64 1491.88 1952.89C1490.46 1954.75 1488.25 1955.84 1485.91 1955.82L1317.9 1954.26C1313.01 1954.21 1309.51 1949.52 1310.86 1944.82Z" />
					<path id="Layer" class="shp55" d="M1492.05 1655.17L1544.55 1646.42C1547.34 1645.96 1549.63 1648.63 1548.74 1651.32L1543.55 1667.07C1543.09 1668.44 1541.9 1669.43 1540.47 1669.62L1489.95 1676.37C1487.33 1676.72 1485.18 1674.34 1485.78 1671.78L1489 1658.03C1489.34 1656.55 1490.55 1655.42 1492.05 1655.17Z" />
					<path id="Layer" class="shp56" d="M1452.73 1699.62L1457.06 1677.09C1457.49 1674.83 1459.36 1673.12 1461.65 1672.89L1567.69 1662.13C1571.26 1661.76 1574.11 1665.04 1573.28 1668.52L1566.53 1696.6C1565.99 1698.84 1564.04 1700.46 1561.73 1700.58L1458.11 1705.8C1454.74 1705.97 1452.1 1702.93 1452.73 1699.62Z" />
					<path id="Layer" class="shp57" d="M1328.35 1883.73C1328.35 1883.73 1318.26 1842.25 1322.33 1827.54C1326.4 1812.82 1334.29 1793.9 1360.56 1798.1C1386.84 1802.31 1417.84 1813.38 1417.84 1813.38C1417.84 1813.38 1416.27 1832.54 1396.3 1826.36L1408.69 1835.94C1408.69 1835.94 1406.92 1851.29 1390.05 1843.09L1401.56 1855.8C1401.56 1855.8 1394.32 1868.41 1381.91 1860.32C1369.5 1852.24 1363.55 1888.72 1328.35 1883.73Z" />
					<path id="Layer" class="shp58" d="M1312.96 1476.25L1272.71 1592.66C1272.04 1594.59 1272.83 1596.73 1274.62 1597.71C1285.59 1603.78 1325.13 1621.32 1372.77 1591.11C1377.73 1587.97 1381.11 1582.83 1381.87 1577L1394.9 1476.25L1312.96 1476.25Z" />
					<path id="Layer" class="shp59" d="M1400.55 1368.44C1400.55 1368.44 1444.76 1451.65 1439.09 1485.26C1433.43 1518.88 1378.64 1516.46 1330.8 1489.17L1297.37 1399.31L1400.55 1368.44Z" />
					<path id="Layer" class="shp60" d="M1332.92 1445.04C1334.86 1444.18 1335.58 1441.8 1334.41 1440.02C1330.87 1434.61 1324.23 1423.57 1322.11 1413.91C1322.11 1413.91 1314.17 1408.82 1342.34 1402.08C1370.51 1395.33 1412.53 1384.86 1421.36 1360.88C1429.97 1337.5 1407.34 1278.71 1371.25 1325.56C1369.88 1327.34 1367.19 1327.38 1365.82 1325.59C1359.9 1317.89 1344.35 1301.91 1322.75 1311.6C1302.54 1320.67 1300.27 1335.48 1300.54 1342.94C1300.63 1345.14 1298.66 1346.84 1296.5 1346.43C1286.29 1344.48 1261.77 1342.81 1250.32 1367.96C1240.9 1388.68 1247.02 1400.41 1252.6 1406.14C1254.41 1408 1253.62 1411.06 1251.14 1411.82C1244.42 1413.88 1235.75 1419.57 1236.62 1435.3C1237.82 1457.05 1262.14 1455.14 1269.06 1454.15C1270.2 1453.98 1271.34 1454.37 1272.11 1455.22C1278.04 1461.79 1304.79 1489.69 1333.74 1493.05C1336.25 1493.34 1338.19 1490.87 1337.37 1488.48L1324.84 1452.06C1324.26 1450.37 1325.07 1448.52 1326.7 1447.79L1332.92 1445.04Z" />
					<path id="Layer" class="shp61" d="M1337.95 1450.21C1337.95 1450.21 1306.48 1428.61 1304.18 1446.8C1301.88 1464.98 1332.52 1473.14 1347.7 1466.36L1337.95 1450.21Z" />
				</g>
			</g>
		</g>
	</g>
</svg>