<svg xmlns="http://www.w3.org/2000/svg" viewBox="0 0 3264 3032" width="460" height="427">
	<defs>
		<clipPath clipPathUnits="userSpaceOnUse" id="cp1">
			<path d="M-184 -321L3526 -321L3526 3389L-184 3389L-184 -321Z" />
		</clipPath>
		<clipPath clipPathUnits="userSpaceOnUse" id="cp2">
			<path d="M-184 -321L-184 3389L3526 3389L3526 -321L-184 -321Z" />
		</clipPath>
		<linearGradient id="grd1" gradientUnits="userSpaceOnUse"  x1="3069.14" y1="2936.03" x2="865.32" y2="763.7">
			<stop offset="0" stop-color="#e8d7ff"  />
			<stop offset="100" stop-color="#fddff8"  />
		</linearGradient>
		<linearGradient id="grd2" gradientUnits="userSpaceOnUse"  x1="1407.37" y1="2319.13" x2="2073.493" y2="320.75">
			<stop offset="0" stop-color="#2b3582"  />
			<stop offset="100" stop-color="#150e42"  />
		</linearGradient>
		<linearGradient id="grd3" gradientUnits="userSpaceOnUse"  x1="397.105" y1="2416.32" x2="3366.115" y2="474.09">
			<stop offset="0" stop-color="#a737d5"  />
			<stop offset="100" stop-color="#ef497a"  />
		</linearGradient>
		<linearGradient id="grd4" gradientUnits="userSpaceOnUse"  x1="397.105" y1="2416.32" x2="3366.115" y2="474.09">
			<stop offset="0" stop-color="#b85ddd"  />
			<stop offset="100" stop-color="#f26b93"  />
		</linearGradient>
		<linearGradient id="grd5" gradientUnits="userSpaceOnUse"  x1="1745.09" y1="262.511" x2="1678.787" y2="1193.043">
			<stop offset="0" stop-color="#cb236d"  />
			<stop offset="100" stop-color="#4c246d"  />
		</linearGradient>
		<linearGradient id="grd6" gradientUnits="userSpaceOnUse"  x1="2463.68" y1="475.067" x2="2472.717" y2="1173.162">
			<stop offset="0" stop-color="#a737d5"  />
			<stop offset="100" stop-color="#ef497a"  />
		</linearGradient>
		<linearGradient id="grd7" gradientUnits="userSpaceOnUse"  x1="2631.83" y1="472.891" x2="2640.867" y2="1170.986">
			<stop offset="0" stop-color="#a737d5"  />
			<stop offset="100" stop-color="#ef497a"  />
		</linearGradient>
		<linearGradient id="grd8" gradientUnits="userSpaceOnUse"  x1="2799.98" y1="470.714" x2="2809.017" y2="1168.809">
			<stop offset="0" stop-color="#a737d5"  />
			<stop offset="100" stop-color="#ef497a"  />
		</linearGradient>
		<linearGradient id="grd9" gradientUnits="userSpaceOnUse"  x1="576.904" y1="2325.14" x2="941.875" y2="3730.95">
			<stop offset="0" stop-color="#cb236d"  />
			<stop offset="100" stop-color="#4c246d"  />
		</linearGradient>
		<linearGradient id="grd10" gradientUnits="userSpaceOnUse"  x1="539.374" y1="2311.5" x2="918.448" y2="3771.63">
			<stop offset="0" stop-color="#cb236d"  />
			<stop offset="100" stop-color="#4c246d"  />
		</linearGradient>
		<linearGradient id="grd11" gradientUnits="userSpaceOnUse"  x1="989.05" y1="2177.83" x2="548.817" y2="2755.805">
			<stop offset="0" stop-color="#fdf53f"  />
			<stop offset="100" stop-color="#d93c65"  />
		</linearGradient>
		<linearGradient id="grd12" gradientUnits="userSpaceOnUse"  x1="951.01" y1="2645.72" x2="776.996" y2="2645.72">
			<stop offset="0" stop-color="#f9b776"  />
			<stop offset="100" stop-color="#f47960"  />
		</linearGradient>
		<linearGradient id="grd13" gradientUnits="userSpaceOnUse"  x1="844.54" y1="2759.11" x2="870.135" y2="3151.561">
			<stop offset="0" stop-color="#cb236d"  />
			<stop offset="100" stop-color="#4c246d"  />
		</linearGradient>
		<linearGradient id="grd14" gradientUnits="userSpaceOnUse"  x1="1155.33" y1="2657.61" x2="788.127" y2="2657.61">
			<stop offset="0" stop-color="#f9b776"  />
			<stop offset="100" stop-color="#f47960"  />
		</linearGradient>
		<linearGradient id="grd15" gradientUnits="userSpaceOnUse"  x1="890.75" y1="2063.89" x2="667.943" y2="2598.625">
			<stop offset="0" stop-color="#cb236d"  />
			<stop offset="100" stop-color="#4c246d"  />
		</linearGradient>
		<linearGradient id="grd16" gradientUnits="userSpaceOnUse"  x1="1091.53" y1="2743" x2="1117.125" y2="3135.451">
			<stop offset="0" stop-color="#cb236d"  />
			<stop offset="100" stop-color="#4c246d"  />
		</linearGradient>
		<linearGradient id="grd17" gradientUnits="userSpaceOnUse"  x1="840.18" y1="2036.97" x2="411.289" y2="2650.727">
			<stop offset="0" stop-color="#53d8ff"  />
			<stop offset="100" stop-color="#3840f7"  />
		</linearGradient>
		<linearGradient id="grd18" gradientUnits="userSpaceOnUse"  x1="742.887" y1="2153.63" x2="761.254" y2="2035.776">
			<stop offset="0" stop-color="#f9b776"  />
			<stop offset="100" stop-color="#f47960"  />
		</linearGradient>
		<linearGradient id="grd19" gradientUnits="userSpaceOnUse"  x1="822.27" y1="1931.53" x2="660.03" y2="2041.731">
			<stop offset="0" stop-color="#f9b776"  />
			<stop offset="100" stop-color="#f47960"  />
		</linearGradient>
		<linearGradient id="grd20" gradientUnits="userSpaceOnUse"  x1="539.131" y1="1724.5" x2="811.249" y2="2007.612">
			<stop offset="0" stop-color="#2b3582"  />
			<stop offset="100" stop-color="#150e42"  />
		</linearGradient>
		<linearGradient id="grd21" gradientUnits="userSpaceOnUse"  x1="812.549" y1="1917.21" x2="650.307" y2="2027.412">
			<stop offset="0" stop-color="#f9b776"  />
			<stop offset="100" stop-color="#f47960"  />
		</linearGradient>
		<linearGradient id="grd22" gradientUnits="userSpaceOnUse"  x1="637.444" y1="2357.7" x2="292.502" y2="2357.7">
			<stop offset="0" stop-color="#f9b776"  />
			<stop offset="100" stop-color="#f47960"  />
		</linearGradient>
		<linearGradient id="grd23" gradientUnits="userSpaceOnUse"  x1="418.184" y1="1840.75" x2="690.302" y2="2123.862">
			<stop offset="0" stop-color="#2b3582"  />
			<stop offset="100" stop-color="#150e42"  />
		</linearGradient>
		<linearGradient id="grd24" gradientUnits="userSpaceOnUse"  x1="805.195" y1="2379.34" x2="1019.139" y2="2449.509">
			<stop offset="0" stop-color="#cb236d"  />
			<stop offset="100" stop-color="#4c246d"  />
		</linearGradient>
		<linearGradient id="grd25" gradientUnits="userSpaceOnUse"  x1="881.28" y1="2135.91" x2="1035.354" y2="2298.756">
			<stop offset="0" stop-color="#cb236d"  />
			<stop offset="100" stop-color="#4c246d"  />
		</linearGradient>
		<linearGradient id="grd26" gradientUnits="userSpaceOnUse"  x1="1017.93" y1="2222.44" x2="1087.839" y2="2327.714">
			<stop offset="0" stop-color="#a737d5"  />
			<stop offset="100" stop-color="#ef497a"  />
		</linearGradient>
		<linearGradient id="grd27" gradientUnits="userSpaceOnUse"  x1="1448.3" y1="2416.74" x2="299.73" y2="2416.74">
			<stop offset="0" stop-color="#9cfffb"  />
			<stop offset="100" stop-color="#9bfffa"  />
		</linearGradient>
		<linearGradient id="grd28" gradientUnits="userSpaceOnUse"  x1="2013.61" y1="4718.47" x2="2484.996" y2="6016.17">
			<stop offset="0" stop-color="#53d8ff"  />
			<stop offset="100" stop-color="#3840f7"  />
		</linearGradient>
		<linearGradient id="grd29" gradientUnits="userSpaceOnUse"  x1="1990.48" y1="4726.87" x2="2461.867" y2="6024.57">
			<stop offset="0" stop-color="#53d8ff"  />
			<stop offset="100" stop-color="#3840f7"  />
		</linearGradient>
		<linearGradient id="grd30" gradientUnits="userSpaceOnUse"  x1="1293.52" y1="4980.04" x2="1764.905" y2="6277.74">
			<stop offset="0" stop-color="#53d8ff"  />
			<stop offset="100" stop-color="#3840f7"  />
		</linearGradient>
		<linearGradient id="grd31" gradientUnits="userSpaceOnUse"  x1="1270.39" y1="4988.44" x2="1741.777" y2="6286.14">
			<stop offset="0" stop-color="#53d8ff"  />
			<stop offset="100" stop-color="#3840f7"  />
		</linearGradient>
		<linearGradient id="grd32" gradientUnits="userSpaceOnUse"  x1="1138.42" y1="1917.35" x2="2958.4" y2="-126.31">
			<stop offset="0" stop-color="#fdf53f"  />
			<stop offset="66.452" stop-color="#e57a58"  />
			<stop offset="100" stop-color="#d93c65"  />
		</linearGradient>
		<clipPath clipPathUnits="userSpaceOnUse" id="cp3">
			<path d="M2265.23 1329.77C2265.23 1660.95 1996.76 1929.42 1665.58 1929.42C1334.4 1929.42 1065.93 1660.95 1065.93 1329.77C1065.93 998.59 1334.4 730.12 1665.58 730.12C1996.76 730.12 2265.23 998.59 2265.23 1329.77Z" />
		</clipPath>
		<linearGradient id="grd33" gradientUnits="userSpaceOnUse"  x1="348.369" y1="3054.72" x2="834.159" y2="2159.827">
			<stop offset="0" stop-color="#fdf53f"  />
			<stop offset="66.452" stop-color="#e57a58"  />
			<stop offset="81.209" stop-color="#e05f5e"  />
			<stop offset="100" stop-color="#d93c65"  />
		</linearGradient>
		<linearGradient id="grd34" gradientUnits="userSpaceOnUse"  x1="1396.93" y1="2469.53" x2="1590.563" y2="2469.53">
			<stop offset="0" stop-color="#53d8ff"  />
			<stop offset="100" stop-color="#3840f7"  />
		</linearGradient>
		<linearGradient id="grd35" gradientUnits="userSpaceOnUse"  x1="1396.92" y1="2431.58" x2="1585.096" y2="2431.58">
			<stop offset="0" stop-color="#2b3582"  />
			<stop offset="100" stop-color="#150e42"  />
		</linearGradient>
		<linearGradient id="grd36" gradientUnits="userSpaceOnUse"  x1="1414.8" y1="2378.6" x2="1469.342" y2="2378.6">
			<stop offset="0" stop-color="#f9b776"  />
			<stop offset="100" stop-color="#f47960"  />
		</linearGradient>
		<linearGradient id="grd37" gradientUnits="userSpaceOnUse"  x1="1051.32" y1="2517.55" x2="1125.523" y2="2517.55">
			<stop offset="0" stop-color="#53d8ff"  />
			<stop offset="100" stop-color="#3840f7"  />
		</linearGradient>
		<linearGradient id="grd38" gradientUnits="userSpaceOnUse"  x1="1051.86" y1="2443.7" x2="1160.776" y2="2443.7">
			<stop offset="0" stop-color="#2b3582"  />
			<stop offset="100" stop-color="#150e42"  />
		</linearGradient>
		<linearGradient id="grd39" gradientUnits="userSpaceOnUse"  x1="1108.47" y1="2350.16" x2="1173.654" y2="2350.16">
			<stop offset="0" stop-color="#f9b776"  />
			<stop offset="100" stop-color="#f47960"  />
		</linearGradient>
		<linearGradient id="grd40" gradientUnits="userSpaceOnUse"  x1="1635.71" y1="1646.74" x2="1079.19" y2="2558.373">
			<stop offset="0" stop-color="#2b3582"  />
			<stop offset="100" stop-color="#150e42"  />
		</linearGradient>
		<linearGradient id="grd41" gradientUnits="userSpaceOnUse"  x1="1981.23" y1="706.16" x2="1466.85" y2="1806.49">
			<stop offset="0" stop-color="#53d8ff"  />
			<stop offset="100" stop-color="#3840f7"  />
		</linearGradient>
		<linearGradient id="grd42" gradientUnits="userSpaceOnUse"  x1="1178.88" y1="1671.99" x2="429.494" y2="2560.152">
			<stop offset="0" stop-color="#fdf53f"  />
			<stop offset="66.452" stop-color="#e57a58"  />
			<stop offset="100" stop-color="#d93c65"  />
		</linearGradient>
		<linearGradient id="grd43" gradientUnits="userSpaceOnUse"  x1="1429.6" y1="1194.21" x2="1457.843" y2="1045.932">
			<stop offset="0" stop-color="#f9b776"  />
			<stop offset="100" stop-color="#f47960"  />
		</linearGradient>
		<linearGradient id="grd44" gradientUnits="userSpaceOnUse"  x1="1506.03" y1="922.16" x2="1344.884" y2="1045.462">
			<stop offset="0" stop-color="#f9b776"  />
			<stop offset="100" stop-color="#f47960"  />
		</linearGradient>
		<linearGradient id="grd45" gradientUnits="userSpaceOnUse"  x1="1392.59" y1="824.53" x2="1542.673" y2="1017.761">
			<stop offset="0" stop-color="#2b3582"  />
			<stop offset="100" stop-color="#150e42"  />
		</linearGradient>
		<linearGradient id="grd46" gradientUnits="userSpaceOnUse"  x1="1486.04" y1="896.04" x2="1324.893" y2="1019.342">
			<stop offset="0" stop-color="#f9b776"  />
			<stop offset="100" stop-color="#f47960"  />
		</linearGradient>
		<linearGradient id="grd47" gradientUnits="userSpaceOnUse"  x1="1549.93" y1="1355.08" x2="1457.46" y2="1493.785">
			<stop offset="0" stop-color="#f9b776"  />
			<stop offset="100" stop-color="#f47960"  />
		</linearGradient>
		<linearGradient id="grd48" gradientUnits="userSpaceOnUse"  x1="1365.47" y1="1377.48" x2="1456.079" y2="1513.393">
			<stop offset="0" stop-color="#f9b776"  />
			<stop offset="100" stop-color="#f47960"  />
		</linearGradient>
		<linearGradient id="grd49" gradientUnits="userSpaceOnUse"  x1="1578.49" y1="1053.54" x2="2330.031" y2="1968.709">
			<stop offset="0" stop-color="#53d8ff"  />
			<stop offset="100" stop-color="#3840f7"  />
		</linearGradient>
		<linearGradient id="grd50" gradientUnits="userSpaceOnUse"  x1="1578.49" y1="1053.54" x2="2330.031" y2="1968.709">
			<stop offset="0" stop-color="#baefff"  />
			<stop offset="100" stop-color="#afb3fc"  />
		</linearGradient>
		<linearGradient id="grd51" gradientUnits="userSpaceOnUse"  x1="1578.49" y1="1053.54" x2="2330.031" y2="1968.709">
			<stop offset="0" stop-color="#e3f9ff"  />
			<stop offset="100" stop-color="#dfe1fe"  />
		</linearGradient>
		<linearGradient id="grd52" gradientUnits="userSpaceOnUse"  x1="1578.49" y1="1053.54" x2="2330.031" y2="1968.709">
			<stop offset="0" stop-color="#e3f9ff"  />
			<stop offset="100" stop-color="#dfe1fe"  />
		</linearGradient>
		<linearGradient id="grd53" gradientUnits="userSpaceOnUse"  x1="1759.41" y1="1227.8" x2="1935.988" y2="1473.514">
			<stop offset="0" stop-color="#cb236d"  />
			<stop offset="100" stop-color="#4c246d"  />
		</linearGradient>
		<linearGradient id="grd54" gradientUnits="userSpaceOnUse"  x1="1801.8" y1="1197.34" x2="1978.378" y2="1443.054">
			<stop offset="0" stop-color="#cb236d"  />
			<stop offset="100" stop-color="#4c246d"  />
		</linearGradient>
		<linearGradient id="grd55" gradientUnits="userSpaceOnUse"  x1="1850.01" y1="1167.79" x2="2026.588" y2="1413.504">
			<stop offset="0" stop-color="#cb236d"  />
			<stop offset="100" stop-color="#4c246d"  />
		</linearGradient>
		<linearGradient id="grd56" gradientUnits="userSpaceOnUse"  x1="1898.83" y1="1128.05" x2="2075.408" y2="1373.764">
			<stop offset="0" stop-color="#cb236d"  />
			<stop offset="100" stop-color="#4c246d"  />
		</linearGradient>
		<linearGradient id="grd57" gradientUnits="userSpaceOnUse"  x1="1939.22" y1="1096.34" x2="2115.797" y2="1342.054">
			<stop offset="0" stop-color="#cb236d"  />
			<stop offset="100" stop-color="#4c246d"  />
		</linearGradient>
		<linearGradient id="grd58" gradientUnits="userSpaceOnUse"  x1="1965.52" y1="1170.53" x2="1902.569" y2="1170.53">
			<stop offset="0" stop-color="#f9b776"  />
			<stop offset="100" stop-color="#f47960"  />
		</linearGradient>
		<linearGradient id="grd59" gradientUnits="userSpaceOnUse"  x1="1182.69" y1="697.39" x2="884.405" y2="225.446">
			<stop offset="0" stop-color="#fdf53f"  />
			<stop offset="100" stop-color="#d93c65"  />
		</linearGradient>
		<linearGradient id="grd60" gradientUnits="userSpaceOnUse"  x1="1500.05" y1="526.386" x2="1203.608" y2="57.359">
			<stop offset="0" stop-color="#fdf53f"  />
			<stop offset="100" stop-color="#d93c65"  />
		</linearGradient>
		<linearGradient id="grd61" gradientUnits="userSpaceOnUse"  x1="1913.18" y1="508.435" x2="1608.009" y2="25.597">
			<stop offset="0" stop-color="#fdf53f"  />
			<stop offset="100" stop-color="#d93c65"  />
		</linearGradient>
		<linearGradient id="grd62" gradientUnits="userSpaceOnUse"  x1="2243.77" y1="684.62" x2="1924.444" y2="179.386">
			<stop offset="0" stop-color="#fdf53f"  />
			<stop offset="100" stop-color="#d93c65"  />
		</linearGradient>
		<linearGradient id="grd63" gradientUnits="userSpaceOnUse"  x1="2084.71" y1="1357.69" x2="2745.531" y2="2751.9">
			<stop offset="0" stop-color="#2b3582"  />
			<stop offset="100" stop-color="#150e42"  />
		</linearGradient>
		<linearGradient id="grd64" gradientUnits="userSpaceOnUse"  x1="2833.01" y1="2879.19" x2="2731.243" y2="2879.19">
			<stop offset="0" stop-color="#cb236d"  />
			<stop offset="100" stop-color="#4c246d"  />
		</linearGradient>
		<linearGradient id="grd65" gradientUnits="userSpaceOnUse"  x1="2578.24" y1="2759.14" x2="2948.47" y2="3049.846">
			<stop offset="0" stop-color="#2b3582"  />
			<stop offset="100" stop-color="#150e42"  />
		</linearGradient>
		<linearGradient id="grd66" gradientUnits="userSpaceOnUse"  x1="2969.47" y1="2180.96" x2="2833.753" y2="2180.96">
			<stop offset="0" stop-color="#f9b776"  />
			<stop offset="100" stop-color="#f47960"  />
		</linearGradient>
		<linearGradient id="grd67" gradientUnits="userSpaceOnUse"  x1="2804.71" y1="2763.34" x2="2824.149" y2="2932.993">
			<stop offset="0" stop-color="#f9b776"  />
			<stop offset="100" stop-color="#f47960"  />
		</linearGradient>
		<linearGradient id="grd68" gradientUnits="userSpaceOnUse"  x1="2512.47" y1="2842.9" x2="2882.7" y2="3133.606">
			<stop offset="0" stop-color="#2b3582"  />
			<stop offset="100" stop-color="#150e42"  />
		</linearGradient>
		<linearGradient id="grd69" gradientUnits="userSpaceOnUse"  x1="2678.05" y1="2881.9" x2="2531.558" y2="2881.9">
			<stop offset="0" stop-color="#cb236d"  />
			<stop offset="100" stop-color="#4c246d"  />
		</linearGradient>
		<linearGradient id="grd70" gradientUnits="userSpaceOnUse"  x1="2646.36" y1="2781.48" x2="2665.799" y2="2951.133">
			<stop offset="0" stop-color="#f9b776"  />
			<stop offset="100" stop-color="#f47960"  />
		</linearGradient>
		<linearGradient id="grd71" gradientUnits="userSpaceOnUse"  x1="2770.79" y1="2835.21" x2="2732.93" y2="2236.773">
			<stop offset="0" stop-color="#2b3582"  />
			<stop offset="100" stop-color="#150e42"  />
		</linearGradient>
		<linearGradient id="grd72" gradientUnits="userSpaceOnUse"  x1="2651.1" y1="1748.01" x2="3127.408" y2="2532.086">
			<stop offset="0" stop-color="#53d8ff"  />
			<stop offset="100" stop-color="#3840f7"  />
		</linearGradient>
		<linearGradient id="grd73" gradientUnits="userSpaceOnUse"  x1="2761.45" y1="1664.11" x2="2841.196" y2="2008.725">
			<stop offset="0" stop-color="#f9b776"  />
			<stop offset="100" stop-color="#f47960"  />
		</linearGradient>
		<linearGradient id="grd74" gradientUnits="userSpaceOnUse"  x1="2774.06" y1="1603.63" x2="2737.477" y2="1818.905">
			<stop offset="0" stop-color="#f9b776"  />
			<stop offset="100" stop-color="#f47960"  />
		</linearGradient>
		<linearGradient id="grd75" gradientUnits="userSpaceOnUse"  x1="2812.53" y1="1705.52" x2="2704.72" y2="1590.994">
			<stop offset="0" stop-color="#2b3582"  />
			<stop offset="100" stop-color="#150e42"  />
		</linearGradient>
		<linearGradient id="grd76" gradientUnits="userSpaceOnUse"  x1="2805.81" y1="1838.6" x2="2812.317" y2="1687.427">
			<stop offset="0" stop-color="#f9b776"  />
			<stop offset="100" stop-color="#f47960"  />
		</linearGradient>
		<linearGradient id="grd77" gradientUnits="userSpaceOnUse"  x1="3529.48" y1="1372.41" x2="2688.656" y2="2108.817">
			<stop offset="0" stop-color="#53d8ff"  />
			<stop offset="100" stop-color="#3840f7"  />
		</linearGradient>
		<linearGradient id="grd78" gradientUnits="userSpaceOnUse"  x1="2798.74" y1="2317.77" x2="2920.87" y2="2684.16">
			<stop offset="0" stop-color="#2b3582"  />
			<stop offset="100" stop-color="#150e42"  />
		</linearGradient>
		<linearGradient id="grd79" gradientUnits="userSpaceOnUse"  x1="2516.87" y1="1829.55" x2="2993.176" y2="2613.624">
			<stop offset="0" stop-color="#53d8ff"  />
			<stop offset="100" stop-color="#3840f7"  />
		</linearGradient>
		<linearGradient id="grd80" gradientUnits="userSpaceOnUse"  x1="2281.53" y1="1541.07" x2="2361.838" y2="1803.519">
			<stop offset="0" stop-color="#f9b776"  />
			<stop offset="100" stop-color="#f47960"  />
		</linearGradient>
		<linearGradient id="grd81" gradientUnits="userSpaceOnUse"  x1="2250.26" y1="1550.64" x2="2330.568" y2="1813.09">
			<stop offset="0" stop-color="#f9b776"  />
			<stop offset="100" stop-color="#f47960"  />
		</linearGradient>
	</defs>
	<style>
		tspan { white-space:pre }
		.shp0 { fill: url(#grd1) } 
		.shp1 { fill: url(#grd2) } 
		.shp2 { fill: url(#grd3) } 
		.shp3 { fill: url(#grd4) } 
		.shp4 { fill: url(#grd5) } 
		.shp5 { fill: url(#grd6) } 
		.shp6 { fill: url(#grd7) } 
		.shp7 { fill: url(#grd8) } 
		.shp8 { fill: url(#grd9) } 
		.shp9 { fill: url(#grd10) } 
		.shp10 { fill: url(#grd11) } 
		.shp11 { fill: url(#grd12) } 
		.shp12 { fill: url(#grd13) } 
		.shp13 { fill: url(#grd14) } 
		.shp14 { fill: url(#grd15) } 
		.shp15 { fill: url(#grd16) } 
		.shp16 { fill: url(#grd17) } 
		.shp17 { fill: url(#grd18) } 
		.shp18 { fill: url(#grd19) } 
		.shp19 { fill: url(#grd20) } 
		.shp20 { fill: url(#grd21) } 
		.shp21 { fill: url(#grd22) } 
		.shp22 { fill: url(#grd23) } 
		.shp23 { fill: url(#grd24) } 
		.shp24 { fill: url(#grd25) } 
		.shp25 { fill: url(#grd26) } 
		.shp26 { fill: url(#grd27) } 
		.shp27 { fill: url(#grd28) } 
		.shp28 { fill: url(#grd29) } 
		.shp29 { fill: url(#grd30) } 
		.shp30 { fill: url(#grd31) } 
		.shp31 { fill: url(#grd32) } 
		.shp32 { fill: #ffffff } 
		.shp33 { fill: url(#grd33) } 
		.shp34 { fill: url(#grd34) } 
		.shp35 { fill: url(#grd35) } 
		.shp36 { fill: url(#grd36) } 
		.shp37 { fill: url(#grd37) } 
		.shp38 { fill: url(#grd38) } 
		.shp39 { fill: url(#grd39) } 
		.shp40 { fill: url(#grd40) } 
		.shp41 { fill: url(#grd41) } 
		.shp42 { fill: url(#grd42) } 
		.shp43 { fill: #eeaa4e } 
		.shp44 { fill: url(#grd43) } 
		.shp45 { fill: url(#grd44) } 
		.shp46 { fill: url(#grd45) } 
		.shp47 { fill: url(#grd46) } 
		.shp48 { fill: url(#grd47) } 
		.shp49 { fill: url(#grd48) } 
		.shp50 { fill: url(#grd49) } 
		.shp51 { fill: url(#grd50) } 
		.shp52 { fill: url(#grd51) } 
		.shp53 { fill: url(#grd52) } 
		.shp54 { fill: url(#grd53) } 
		.shp55 { fill: url(#grd54) } 
		.shp56 { fill: url(#grd55) } 
		.shp57 { fill: url(#grd56) } 
		.shp58 { fill: url(#grd57) } 
		.shp59 { fill: url(#grd58) } 
		.shp60 { fill: url(#grd59) } 
		.shp61 { fill: url(#grd60) } 
		.shp62 { fill: url(#grd61) } 
		.shp63 { fill: url(#grd62) } 
		.shp64 { fill: url(#grd63) } 
		.shp65 { fill: url(#grd64) } 
		.shp66 { fill: url(#grd65) } 
		.shp67 { fill: url(#grd66) } 
		.shp68 { fill: url(#grd67) } 
		.shp69 { fill: url(#grd68) } 
		.shp70 { fill: url(#grd69) } 
		.shp71 { fill: url(#grd70) } 
		.shp72 { fill: url(#grd71) } 
		.shp73 { fill: url(#grd72) } 
		.shp74 { fill: url(#grd73) } 
		.shp75 { fill: url(#grd74) } 
		.shp76 { fill: url(#grd75) } 
		.shp77 { fill: url(#grd76) } 
		.shp78 { fill: url(#grd77) } 
		.shp79 { fill: url(#grd78) } 
		.shp80 { fill: url(#grd79) } 
		.shp81 { fill: url(#grd80) } 
		.shp82 { fill: url(#grd81) } 
	</style>
	<g id="Clip-Path" clip-path="url(#cp1)">
		<g id="Layer">
			<g id="Clip-Path" clip-path="url(#cp2)">
				<g id="Layer">
					<path id="Layer" fill-rule="evenodd" class="shp0" d="M2357.47 2581.94C2406.16 2555.28 2469.12 2520.27 2537.33 2473.15L553.25 2473.15C579.41 2503.81 607.64 2533.27 637.95 2561.33C862.61 2769.33 1133.94 2837.91 1394.16 2837.91C1875.15 2837.91 2318.09 2603.5 2357.47 2581.94ZM282.26 1608.73C279.9 1665.13 280.58 1721.6 284.48 1777.59L282.26 1608.73ZM2735.59 595.07C2663.99 507.57 2598.5 450.98 2568.46 426.14C2236.6 151.75 1857.37 136.82 1760.53 134.39C1749.98 134.13 1739.46 134 1728.92 134C1309.14 134 905.55 342.59 642.07 654.74L2735.59 595.07Z" />
					<path id="Layer" fill-rule="evenodd" class="shp1" d="M2985.85 2473.15L341.81 2473.15C314.92 2473.15 292.92 2448.94 292.92 2419.35L284.48 1777.59L282.26 1608.73L270.91 745.78C270.91 717.25 300.34 662.53 354.43 662.53C356.45 662.53 358.5 662.6 360.58 662.76L642.07 654.74L2735.59 595.07L2944.62 589.11C2945.69 589.08 2946.75 589.07 2947.82 589.07C2980.42 589.07 3011.74 603.28 3034.88 628.69C3058.77 654.92 3071.85 690.79 3071.05 727.92L3034.74 2419.35C3034.74 2448.94 3012.74 2473.15 2985.85 2473.15ZM454.17 726.02C409.81 726.02 340.93 759.55 338.55 848.45L359.32 2367.73C359.32 2395.76 380.13 2418.68 405.57 2418.68L2940.21 2418.68C2965.65 2418.68 2986.47 2395.76 2986.47 2367.73L3023.3 750.52C3023.89 724.41 3014.66 699.17 2997.87 680.72C2981.63 662.88 2959.65 652.89 2936.78 652.89C2936.01 652.89 2935.23 652.9 2934.46 652.92C2747.95 658.43 2301.13 671.63 1837.48 685.34C1782.02 670.35 1723.72 662.36 1663.52 662.36C1589.53 662.36 1518.37 674.44 1451.88 696.73C919.84 712.45 457.89 726.1 457.89 726.1C456.67 726.05 455.43 726.02 454.17 726.02Z" />
					<path id="Layer" class="shp2" d="M2940.21 2418.68L405.57 2418.68C380.13 2418.68 359.32 2395.76 359.32 2367.73L338.55 848.45C340.93 759.55 409.81 726.02 454.17 726.02C455.43 726.02 456.67 726.05 457.89 726.1C457.89 726.1 919.84 712.45 1451.88 696.73C1396.48 715.3 1344.34 740.97 1296.53 772.65C1048.46 774.27 852.82 776.48 791.09 779.68C776.66 780.43 762.59 780.74 748.88 780.74C715.66 780.74 684.59 778.92 655.93 777.1C627.27 775.28 601.02 773.46 577.4 773.46C490.16 773.46 438.92 798.3 435.74 939.72C433.53 1038.27 419.72 2196.47 417 2325.06C415.98 2373.27 528.92 2406.95 648.83 2406.95C655.74 2406.95 662.67 2406.83 669.61 2406.61C780.22 2402.98 2392.03 2355.69 2825.52 2354.38C2882.88 2354.2 2929.74 2304.1 2931.52 2240.95C2937.5 2028.88 2950.48 1567.72 2958.32 1287.78C2968.46 925.4 2970.52 764.86 2874.73 764.86C2872.02 764.86 2869.22 764.99 2866.36 765.24C2845.31 767.12 2460.14 767.99 2025.59 769.41C1968.36 732.22 1905.05 703.59 1837.48 685.34C2301.13 671.63 2747.95 658.43 2934.46 652.92C2935.23 652.9 2936.01 652.89 2936.78 652.89C2959.65 652.89 2981.63 662.88 2997.87 680.72C3014.66 699.17 3023.89 724.41 3023.3 750.52L2986.47 2367.73C2986.47 2395.76 2965.65 2418.68 2940.21 2418.68Z" />
					<path id="Layer" class="shp3" d="M648.83 2406.95C528.92 2406.95 415.98 2373.27 417 2325.06C419.72 2196.47 433.53 1038.27 435.74 939.72C438.92 798.3 490.16 773.46 577.4 773.46C601.02 773.46 627.27 775.28 655.93 777.1C684.59 778.92 715.66 780.74 748.88 780.74C762.59 780.74 776.66 780.43 791.09 779.68C852.82 776.48 1048.46 774.27 1296.53 772.65C1116.74 891.76 998.18 1095.89 998.18 1327.71C998.18 1695.17 1296.06 1993.05 1663.52 1993.05C2030.98 1993.05 2328.87 1695.17 2328.87 1327.71C2328.87 1093.78 2208.13 888.04 2025.59 769.41C2460.14 767.99 2845.31 767.12 2866.36 765.24C2869.22 764.99 2872.02 764.86 2874.73 764.86C2970.52 764.86 2968.46 925.4 2958.32 1287.78C2950.48 1567.72 2937.5 2028.88 2931.52 2240.95C2929.74 2304.1 2882.88 2354.2 2825.52 2354.38C2392.03 2355.69 780.22 2402.98 669.61 2406.61C662.67 2406.83 655.74 2406.95 648.83 2406.95Z" />
					<path id="Layer" class="shp4" d="M2961.39 967.78L441 967.78L441 790.37C441 776.36 452.36 765 466.37 765L2933.88 765C2949.07 765 2961.39 777.31 2961.39 792.5L2961.39 967.78Z" />
					<path id="Layer" class="shp5" d="M2511.93 866.49C2511.93 890.34 2492.59 909.67 2468.75 909.67C2444.9 909.67 2425.56 890.34 2425.56 866.49C2425.56 842.64 2444.9 823.31 2468.75 823.31C2492.59 823.31 2511.93 842.64 2511.93 866.49Z" />
					<path id="Layer" class="shp6" d="M2680.11 866.49C2680.11 890.34 2660.78 909.67 2636.93 909.67C2613.08 909.67 2593.75 890.34 2593.75 866.49C2593.75 842.64 2613.08 823.31 2636.93 823.31C2660.78 823.31 2680.11 842.64 2680.11 866.49Z" />
					<path id="Layer" class="shp7" d="M2848.29 866.49C2848.29 890.34 2828.96 909.67 2805.11 909.67C2781.26 909.67 2761.93 890.34 2761.93 866.49C2761.93 842.64 2781.26 823.31 2805.11 823.31C2828.96 823.31 2848.29 842.64 2848.29 866.49Z" />
					<path id="Layer" class="shp8" d="M671.7 2869.73L696.17 2869.73L696.17 2605.07L671.7 2605.07L671.7 2869.73Z" />
					<path id="Layer" class="shp9" d="M576.76 2874.83L791.11 2874.83L791.11 2862.22C791.11 2860.39 789.62 2858.9 787.78 2858.9L580.08 2858.9C578.25 2858.9 576.76 2860.39 576.76 2862.22L576.76 2874.83Z" />
					<path id="Layer" class="shp10" d="M544.95 2595.88C544.95 2610.36 556.79 2622.2 571.26 2622.2L788.13 2622.2C802.61 2622.2 814.45 2610.36 814.45 2595.88L814.45 2572.08C814.45 2557.61 802.61 2545.76 788.13 2545.76L571.26 2545.76C556.79 2545.76 544.95 2557.61 544.95 2572.08L544.95 2595.88Z" />
					<path id="Layer" class="shp11" d="M864.61 2428.6C864.61 2428.6 900.97 2434.23 941.86 2461.57C948.29 2465.87 951.82 2473.37 950.85 2481.05C945.96 2519.83 925.83 2645.35 859.45 2767.95C855.95 2774.41 854.94 2781.94 856.49 2789.13L868.02 2842.79L889.41 2862.85L834.32 2862.85L797.64 2763.59L813.32 2758.63C825.48 2754.79 833.83 2743.6 834.05 2730.85L835.89 2624.37C834.32 2576.93 864.98 2544.2 864.98 2544.2L777 2539.92L864.61 2428.6Z" />
					<path id="Layer" class="shp12" d="M910.92 2872.53C915.93 2879.1 856.92 2887.76 827.11 2873.4C827.11 2873.4 785.78 2801.49 785.78 2764.47C785.78 2764.47 789.06 2756.92 813.32 2758.63C813.32 2758.63 827.2 2843.77 841.85 2853.31C856.51 2862.85 882.85 2854.28 882.85 2854.28C882.85 2854.28 903.51 2862.84 910.92 2872.53Z" />
					<path id="Layer" class="shp13" d="M788.13 2545.76C788.6 2544.96 882.85 2534.43 882.85 2534.43C882.85 2534.43 879.77 2563.09 889.41 2602.54C899.05 2641.99 1037.43 2812.9 1037.43 2812.9L1022.92 2858.9C1067.78 2874.53 1111.91 2877.03 1155.33 2866.87L1065.41 2812.9C1065.41 2812.9 981.25 2526.11 929.71 2474.95L835.23 2442.26L788.13 2545.76Z" />
					<path id="Layer" class="shp14" d="M576.76 2378.89C576.76 2378.89 522.46 2459.66 518 2496.5C513.54 2533.34 532.87 2548.32 589.85 2550.78C646.83 2553.25 798.93 2553.21 798.93 2553.21L928.76 2442.26C928.76 2442.26 834.15 2408.51 809.55 2398.96C784.95 2389.42 576.76 2378.89 576.76 2378.89Z" />
					<path id="Layer" class="shp15" d="M1028.4 2843.41C1028.4 2843.41 1012.78 2858.54 1023.33 2875.38C1023.33 2875.38 1147.08 2897.31 1180.68 2887.36C1180.68 2887.36 1173.7 2871.43 1135.87 2853.31L1138.66 2855.45C1142.19 2858.17 1140.12 2863.81 1135.67 2863.56C1110.74 2862.14 1059.15 2857.57 1028.4 2843.41Z" />
					<path id="Layer" class="shp16" d="M723.61 2368.2C723.61 2368.2 786.85 2307.99 817.98 2268.1C834.8 2246.55 840.09 2218.17 832.3 2191.95C818.09 2144.07 792.84 2094.48 790.53 2086.76C787 2074.93 716.1 2075.43 716.1 2075.43C716.1 2075.43 576.58 2165.98 521.76 2319.37L583.32 2338.53C583.32 2338.53 619.75 2277.42 655.75 2238.56C655.75 2238.56 593.46 2320.84 591.27 2354.52L723.61 2368.2Z" />
					<path id="Layer" class="shp17" d="M799.11 2020.65C798.37 2023.11 779.86 2084.46 778.41 2085.73C776.97 2087 737.83 2089.11 719.41 2076.52L750.66 2011.09L799.11 2020.65Z" />
					<path id="Layer" class="shp18" d="M768.71 1891.79C768.71 1891.79 802.12 1905.9 824.84 1954.17C847.55 2002.45 830.59 2024.74 809.28 2027.8C787.97 2030.86 756.1 2030.4 722.4 1999.21C688.69 1968.02 725.28 1875.07 768.71 1891.79Z" />
					<path id="Layer" class="shp19" d="M745.06 1973.43C745.06 1973.43 719.85 1902.8 782.47 1901.97L797.21 1912.27C797.21 1912.27 820.18 1873.11 782.47 1854.41C744.76 1835.72 688.49 1852.36 672.44 1903.17C656.39 1953.98 665.78 1986.79 692.48 2011.09C719.18 2035.4 730.19 2007.84 730.19 2007.84C730.19 2007.84 715.65 1985.1 721.57 1972.94C727.49 1960.78 741.14 1975.46 741.14 1975.46L745.06 1973.43Z" />
					<path id="Layer" class="shp20" d="M738.03 1981.3C738.03 1981.3 725.29 1944.92 708.29 1959.41C691.29 1973.9 722.11 1993.02 734.17 1999.21L738.03 1981.3Z" />
					<path id="Layer" class="shp21" d="M852.44 2372.67L805.98 2327.89L741.71 2355.04C741.71 2355.04 677.73 2364.95 641.12 2355.04C604.5 2345.13 604.5 2345.13 604.5 2345.13L521.76 2319.37L508.76 2356.09C505.46 2365.42 508.78 2375.77 516.84 2381.5C524 2386.59 532.39 2392.18 537.74 2394.52C548.63 2399.28 806.35 2391.22 806.35 2391.22L852.44 2372.67Z" />
					<path id="Layer" class="shp22" d="M677.35 1911.13C685.4 1902.91 680.17 1889.01 668.79 1887.24C632.08 1881.51 576.11 1887.36 552.6 1965.94C526.12 2054.46 508.88 2098.72 491.19 2106.49C479.57 2111.59 478.83 2127.72 490.4 2132.92C498.96 2136.76 511.21 2138.12 528.75 2134.26C664.03 2104.5 630.12 1959.38 677.35 1911.13Z" />
					<path id="Layer" class="shp23" d="M676.62 2393.78C676.82 2393.79 677.03 2393.8 677.24 2393.79L946.75 2393.5C953.41 2393.5 958.8 2388.09 958.8 2381.43C958.79 2374.76 953.36 2369.26 946.72 2369.38L677.21 2369.67C670.55 2369.68 665.15 2375.08 665.16 2381.75C665.17 2388.2 670.24 2393.47 676.62 2393.78Z" />
					<path id="Layer" class="shp24" d="M1189.02 2149.08L964.57 2149.08C948.02 2149.08 932.95 2158.64 925.88 2173.62L822.12 2393.64L1101.05 2393.64C1111.72 2393.64 1121.31 2387.12 1125.23 2377.19L1205.69 2173.6C1210.34 2161.83 1201.67 2149.08 1189.02 2149.08Z" />
					<path id="Layer" class="shp25" d="M1030.9 2261.9C1026.03 2277.01 1029.63 2291.68 1038.92 2294.68C1048.22 2297.67 1059.7 2287.84 1064.56 2272.73C1069.42 2257.62 1065.83 2242.94 1056.54 2239.95C1047.24 2236.96 1035.76 2246.79 1030.9 2261.9Z" />
					<path id="Layer" class="shp26" d="M299.93 2403.63C299.3 2400.57 300.16 2397.41 302.27 2395.01C304.38 2392.61 307.53 2391.22 310.85 2391.22L1435.5 2391.22C1439.87 2391.22 1443.93 2393.31 1446.28 2396.75C1448.64 2400.2 1448.95 2404.54 1447.12 2408.25L1434.93 2432.98C1432.14 2438.64 1426.1 2442.26 1419.44 2442.26L318.57 2442.26C312.38 2442.26 307.06 2438.15 305.88 2432.45L299.93 2403.63Z" />
					<path id="Layer" class="shp27" d="M1372.47 2924.75C1373.77 2924.75 1375.09 2924.49 1376.36 2923.93C1381.37 2921.73 1383.68 2915.79 1381.53 2910.66L1174.54 2418.34C1172.38 2413.22 1166.58 2410.85 1161.57 2413.05C1156.56 2415.26 1154.25 2421.2 1156.4 2426.32L1363.39 2918.64C1365 2922.46 1368.64 2924.75 1372.47 2924.75Z" />
					<path id="Layer" class="shp28" d="M1139.28 2924.75C1143.11 2924.75 1146.75 2922.47 1148.35 2918.64L1355.34 2426.32C1357.5 2421.2 1355.18 2415.26 1350.18 2413.05C1345.17 2410.85 1339.37 2413.21 1337.21 2418.34L1130.22 2910.66C1128.07 2915.79 1130.38 2921.73 1135.39 2923.93C1136.66 2924.49 1137.98 2924.75 1139.28 2924.75Z" />
					<path id="Layer" class="shp29" d="M557.36 2924.75C558.66 2924.75 559.98 2924.49 561.25 2923.93C566.26 2921.73 568.58 2915.79 566.42 2910.66L359.43 2418.34C357.28 2413.22 351.48 2410.85 346.46 2413.05C341.46 2415.26 339.14 2421.2 341.3 2426.32L548.29 2918.64C549.89 2922.46 553.53 2924.75 557.36 2924.75Z" />
					<path id="Layer" class="shp30" d="M324.18 2924.75C328 2924.75 331.64 2922.47 333.25 2918.64L540.24 2426.32C542.39 2421.2 540.08 2415.26 535.07 2413.05C530.07 2410.85 524.26 2413.21 522.11 2418.34L315.12 2910.66C312.96 2915.79 315.27 2921.73 320.28 2923.93C321.55 2924.49 322.88 2924.75 324.18 2924.75Z" />
					<path id="Layer" fill-rule="evenodd" class="shp31" d="M1663.52 1993.05C1296.06 1993.05 998.18 1695.17 998.18 1327.71C998.18 1095.89 1116.74 891.76 1296.53 772.65C1344.34 740.97 1396.48 715.3 1451.88 696.73C1518.37 674.44 1589.53 662.36 1663.52 662.36C1723.72 662.36 1782.02 670.35 1837.48 685.34C1905.05 703.59 1968.36 732.22 2025.59 769.41C2208.13 888.04 2328.87 1093.78 2328.87 1327.71C2328.87 1695.17 2030.98 1993.05 1663.52 1993.05ZM1665.58 730.12C1334.4 730.12 1065.93 998.59 1065.93 1329.77C1065.93 1660.95 1334.4 1929.42 1665.58 1929.42C1783.47 1929.42 1893.4 1895.41 1986.11 1836.65C2007.65 1823 2028.27 1808.02 2047.83 1791.81C2086.85 1759.5 2121.71 1722.33 2151.48 1681.25C2160.58 1668.69 2169.2 1655.77 2177.33 1642.5C2233.09 1551.45 2265.23 1444.36 2265.23 1329.77C2265.23 998.59 1996.76 730.12 1665.58 730.12Z" />
					<path id="Layer" class="shp32" d="M2265.23 1329.77C2265.23 1660.95 1996.76 1929.42 1665.58 1929.42C1334.4 1929.42 1065.93 1660.95 1065.93 1329.77C1065.93 998.59 1334.4 730.12 1665.58 730.12C1996.76 730.12 2265.23 998.59 2265.23 1329.77Z" />
					<g id="Clip-Path" clip-path="url(#cp3)">
						<g id="Layer">
							<path id="Layer" class="shp33" d="M975 2068.35C969.69 2073.76 971.09 2082.77 977.74 2086.42C1008.28 2103.19 1085.08 2133.65 1149.81 2062.13C1232.71 1970.54 1434.61 1543.21 1459.52 1433.49C1484.42 1323.76 1578.58 1154.71 1630.31 1134.76C1682.04 1114.82 1520.65 1126.15 1475.72 1126.92C1430.79 1127.68 1398.41 1105.42 1425.14 1095.19C1425.14 1095.19 1288.47 1041.85 1185.98 1200.53C1124.04 1296.43 924.62 1739.54 759.32 1788.16C753.2 1789.96 787.89 1813.5 790.58 1819.29C806.5 1853.56 865 1954.86 1018.34 2007.9C1018.34 2007.9 998.44 2044.48 975 2068.35Z" />
							<path id="Layer" class="shp34" d="M1585.09 2460.17C1551.92 2463.03 1494.35 2467.69 1448.96 2469.69C1421.68 2470.89 1405.97 2468.22 1396.93 2464.59C1396.94 2465.62 1396.97 2466.58 1397.01 2467.47C1397.23 2472.25 1401.11 2476.07 1405.93 2476.34C1491.69 2481.13 1559.9 2478 1584.18 2476.52C1589.2 2476.21 1592.19 2470.76 1589.62 2466.48C1588.34 2464.34 1586.78 2462.24 1585.09 2460.17Z" />
							<path id="Layer" class="shp35" d="M1448.96 2469.69C1494.35 2467.69 1551.92 2463.03 1585.09 2460.17C1552.48 2420.15 1448.96 2393.18 1448.96 2393.18L1419.73 2393.18C1399.62 2422.17 1396.71 2449.77 1396.93 2464.59C1405.97 2468.22 1421.68 2470.89 1448.96 2469.69Z" />
							<path id="Layer" class="shp36" d="M1414.8 2345.45L1417.54 2399.59C1417.84 2405.46 1422.23 2410.38 1428.1 2411.22C1433.94 2412.06 1441.76 2412.17 1450.06 2409.4C1455.16 2407.7 1458.95 2403.4 1459.89 2398.16L1469.35 2345.45L1414.8 2345.45Z" />
							<path id="Layer" class="shp37" d="M1075.48 2522.62C1061.1 2520.03 1054.59 2510.37 1051.86 2500.04C1051.84 2500.14 1051.82 2500.23 1051.81 2500.32C1049.69 2511.21 1054.6 2522.5 1064.4 2527.87C1076.26 2534.36 1089.22 2535.46 1099.29 2534.93C1110.08 2534.35 1119.99 2528.58 1125.44 2519.34L1125.52 2519.2C1114.69 2526.13 1099.47 2526.94 1075.48 2522.62Z" />
							<path id="Layer" class="shp38" d="M1143.31 2362.14L1119.2 2362.14C1082.47 2361.17 1059.41 2461.28 1051.86 2500.04C1054.59 2510.37 1061.1 2520.03 1075.48 2522.62C1099.47 2526.94 1114.69 2526.13 1125.52 2519.2C1145.36 2485.45 1155.2 2436.03 1159.93 2407.19C1165.31 2374.39 1143.31 2362.14 1143.31 2362.14Z" />
							<path id="Layer" class="shp39" d="M1122.29 2311.88L1108.91 2365.13C1107.26 2371.66 1110.39 2378.41 1116.43 2381.51C1123.92 2385.36 1134.46 2389.39 1144.15 2388.22C1148.71 2387.68 1152.49 2384.46 1154 2380.17L1173.66 2324.15L1122.29 2311.88Z" />
							<path id="Layer" class="shp40" d="M1593.26 1610.56C1593.26 1610.56 1473.62 2358.43 1475.59 2362.54C1475.59 2362.54 1442.54 2377.56 1406.52 2364.46C1406.52 2364.46 1417.34 1964.67 1442.69 1811.38C1442.69 1811.38 1238.5 2168.71 1173.66 2346.77C1173.66 2346.77 1139.84 2342.73 1111.84 2324.31C1111.84 2324.31 1331.7 1681.12 1390.35 1595.45L1593.26 1610.56Z" />
							<path id="Layer" class="shp41" d="M1447.47 1806.93C1446.93 1806.93 1446.38 1806.79 1445.89 1806.48C1444.49 1805.6 1444.07 1803.76 1444.94 1802.37L1489.65 1730.95C1490.09 1730.26 1490.79 1729.77 1491.59 1729.61L1524.5 1722.99C1526.11 1722.65 1527.68 1723.71 1528.01 1725.33C1528.33 1726.94 1527.29 1728.51 1525.67 1728.84L1494.03 1735.21L1450 1805.53C1449.43 1806.44 1448.46 1806.93 1447.47 1806.93Z" />
							<path id="Layer" class="shp42" d="M1526.63 1631.34C1486.66 1631.34 1434.37 1628.42 1383.29 1616.95C1379.38 1616.07 1377.24 1611.87 1378.79 1608.21L1379.59 1606.34C1386.85 1589.25 1390.1 1570.78 1389.06 1552.26C1385.89 1496.04 1370.77 1368.99 1338.52 1281.91C1294.3 1356.68 1301.68 1414.09 1326.6 1456.13C1314.86 1473.56 1301.14 1497.29 1289.25 1526.8C1134.5 1435.96 1190.24 1256.01 1224.67 1177C1235.86 1151.34 1257.55 1131.53 1284.34 1122.68C1375.25 1092.65 1479.69 1086.61 1548.97 1086.61C1576.69 1086.61 1598.78 1087.58 1612.12 1088.36C1620.67 1088.86 1629.1 1090.5 1637.19 1093.31C1675.09 1106.44 1707.98 1133.57 1737.39 1158.22L1730.99 1158.19C1730.97 1158.19 1730.94 1158.19 1730.92 1158.19C1717.52 1158.19 1706.67 1174.49 1706.74 1194.53L1707.31 1297.64C1674.97 1276.57 1649.2 1247.46 1630.13 1243.2C1640.51 1320.17 1640.41 1441.93 1598.05 1620.44C1596.94 1625.11 1592.92 1628.57 1588.09 1628.96C1576.89 1629.89 1554.83 1631.34 1526.63 1631.34Z" />
							<path id="Layer" class="shp43" d="M1630.31 1247.85C1628.63 1247.85 1627.18 1246.61 1626.95 1244.91C1617 1169.71 1596.72 1136.9 1596.52 1136.57C1595.52 1134.99 1595.99 1132.9 1597.57 1131.9C1599.15 1130.89 1601.24 1131.36 1602.24 1132.94C1603.11 1134.3 1623.49 1167.12 1633.67 1244.02C1633.92 1245.88 1632.61 1247.58 1630.76 1247.82C1630.6 1247.84 1630.45 1247.85 1630.31 1247.85Z" />
							<path id="Layer" class="shp44" d="M1415.31 984.38C1415.31 984.38 1406.5 1077.56 1398.74 1105.13C1397.56 1109.31 1399.38 1113.72 1403.18 1115.89C1416.35 1123.41 1447.93 1135.69 1491.14 1114.51C1498.14 1111.08 1502.35 1103.79 1502.02 1096.06L1498.22 1006.02L1415.31 984.38Z" />
							<path id="Layer" class="shp45" d="M1500.12 865.16C1500.12 865.16 1528.31 929.92 1530.2 963.91C1532.09 997.89 1539.42 1019.95 1500.12 1026.79C1460.82 1033.64 1427.71 1014.06 1409.78 980.2C1409.78 980.2 1381.68 928.04 1387.98 906.67C1394.28 885.31 1500.12 865.16 1500.12 865.16Z" />
							<path id="Layer" class="shp46" d="M1423.21 955.86L1425.44 954.88C1428.29 953.62 1429.51 950.23 1428.08 947.47C1422.54 936.76 1411.73 912.22 1425.69 906.5C1443.68 899.12 1514.92 884.59 1530.29 859.31C1545.07 835.02 1531.98 803.65 1512.3 794.73C1510.99 794.14 1509.43 794.61 1508.76 795.89L1507.12 798.99C1506 801.11 1502.86 800.79 1502.19 798.49L1502.19 798.49C1501.55 796.27 1498.61 795.84 1497.39 797.8C1492.66 805.36 1479.9 817.62 1445.79 823.92C1397.31 832.86 1365.26 852.48 1364.46 885.99C1364.41 888.11 1362.14 889.3 1360.33 888.19C1356.75 886.01 1351.02 884.98 1343.36 891.42C1330.05 902.62 1335.5 931.66 1364.68 955.55C1366.07 956.68 1366.06 958.85 1364.56 959.82C1359.27 963.27 1351.38 971.47 1371.82 982.39C1392.96 993.69 1408.74 992.77 1414.82 991.76C1416.34 991.51 1417.31 990.05 1416.98 988.55L1410.49 959.11C1410.12 957.44 1411.39 955.86 1413.1 955.86L1423.21 955.86Z" />
							<path id="Layer" class="shp47" d="M1424.43 962.07C1424.43 962.07 1413.67 920.71 1395.13 932.31C1376.58 943.91 1404.75 978.65 1419.66 980.2L1424.43 962.07Z" />
							<path id="Layer" class="shp48" d="M1423.63 1590.44L1550.84 1587.68C1550.84 1587.68 1439.91 1556.32 1433.03 1564.86C1433.03 1564.86 1364.28 1519.68 1326.6 1456.13C1314.86 1473.56 1301.14 1497.29 1289.25 1526.8C1323.03 1546.63 1367.39 1581.08 1423.63 1590.44Z" />
							<path id="Layer" class="shp49" d="M1420.05 1568.42C1420.05 1568.42 1417.42 1619.1 1483.95 1611.74C1520.11 1607.74 1578.49 1574.03 1578.49 1574.03C1578.49 1574.03 1426.34 1573.62 1420.05 1568.42Z" />
							<path id="Layer" class="shp50" d="M1986.11 1836.65L1986.11 1836.65L1734.27 1836.65C1720.97 1836.65 1710.16 1820.59 1710.09 1800.7L1707.31 1297.64L1706.74 1194.53C1706.67 1174.49 1717.52 1158.19 1730.92 1158.19C1730.94 1158.19 1730.97 1158.19 1730.99 1158.19L1737.39 1158.22L2153.21 1159.89C2166.54 1159.94 2177.33 1176.11 2177.33 1196.03L2177.33 1642.5C2169.2 1655.77 2160.58 1668.69 2151.48 1681.25L2153.72 1244.75C2153.78 1224.52 2142.87 1208.03 2129.33 1207.91L1754.8 1204.46C1754.75 1204.46 1754.7 1204.46 1754.64 1204.46C1740.97 1204.46 1729.92 1221.18 1730.11 1241.65L1738.12 1763.42C1738.31 1783.5 1749.27 1799.58 1762.65 1799.58C1762.8 1799.58 1762.96 1799.58 1763.11 1799.57L2047.83 1791.81C2028.27 1808.02 2007.65 1823 1986.11 1836.65Z" />
							<path id="Layer" fill-rule="evenodd" class="shp51" d="M1762.65 1799.58C1749.27 1799.58 1738.31 1783.5 1738.12 1763.42L1730.11 1241.65C1729.92 1221.18 1740.97 1204.46 1754.64 1204.46C1754.7 1204.46 1754.75 1204.46 1754.8 1204.46L2129.33 1207.91C2142.87 1208.03 2153.78 1224.52 2153.72 1244.75L2151.48 1681.25C2121.71 1722.33 2086.85 1759.5 2047.83 1791.81L1763.11 1799.57C1762.96 1799.58 1762.8 1799.58 1762.65 1799.58ZM1829.04 1506.99C1824.84 1506.99 1821.48 1512.26 1821.71 1518.55C1821.92 1524.3 1825.06 1528.83 1828.91 1528.93L2081.28 1535.8C2081.33 1535.81 2081.37 1535.81 2081.42 1535.81C2085.46 1535.81 2088.76 1530.9 2088.76 1524.83L2088.76 1523.94C2088.76 1517.95 2085.54 1513.06 2081.53 1512.97L1829.16 1506.99C1829.12 1506.99 1829.08 1506.99 1829.04 1506.99ZM1796.85 1459.04C1792.8 1459.04 1789.51 1463.95 1789.51 1470.01L1789.51 1473.87C1789.51 1479.93 1792.8 1484.84 1796.85 1484.84L2085.43 1484.84C2089.49 1484.84 2092.77 1479.93 2092.77 1473.87L2092.77 1470.01C2092.77 1463.95 2089.49 1459.04 2085.43 1459.04L1796.85 1459.04Z" />
							<path id="Layer" class="shp52" d="M2085.43 1484.84L1796.85 1484.84C1792.8 1484.84 1789.51 1479.93 1789.51 1473.87L1789.51 1470.01C1789.51 1463.95 1792.8 1459.04 1796.85 1459.04L2085.43 1459.04C2089.49 1459.04 2092.77 1463.95 2092.77 1470.01L2092.77 1473.87C2092.77 1479.93 2089.49 1484.84 2085.43 1484.84Z" />
							<path id="Layer" class="shp53" d="M2081.42 1535.81C2081.37 1535.81 2081.33 1535.81 2081.28 1535.8L1828.91 1528.93C1825.06 1528.83 1821.92 1524.3 1821.71 1518.55C1821.48 1512.26 1824.84 1506.99 1829.04 1506.99C1829.08 1506.99 1829.12 1506.99 1829.16 1506.99L2081.53 1512.97C2085.54 1513.06 2088.76 1517.95 2088.76 1523.94L2088.76 1524.83C2088.76 1530.9 2085.46 1535.81 2081.42 1535.81Z" />
							<path id="Layer" fill-rule="evenodd" class="shp32" d="M1776.45 1772.4C1771.28 1772.4 1766.38 1770.29 1762.26 1766.3C1756.12 1760.33 1752.38 1750.54 1752.25 1740.1L1744.07 1385.05L1744.07 1384.98C1743.85 1366.65 1754.25 1352 1767.74 1351.6L2108.5 1341.69C2113.81 1341.53 2118.88 1343.61 2123.13 1347.68C2129.33 1353.63 2133.11 1363.44 2133.24 1373.94L2142.03 1732.78C2142.26 1751.35 2131.77 1766.03 2118.15 1766.27L1776.79 1772.4C1776.68 1772.4 1776.57 1772.4 1776.45 1772.4ZM1757.62 1384.78L1765.81 1739.87C1765.89 1746.75 1768.15 1753.12 1771.7 1756.57C1773.26 1758.08 1774.86 1758.84 1776.46 1758.84L1776.55 1758.84L2117.91 1752.72C2123.01 1752.63 2128.61 1744.19 2128.47 1733.03L2119.69 1374.19C2119.6 1367.28 2117.33 1360.9 2113.75 1357.46C2112.16 1355.94 2110.49 1355.17 2108.89 1355.24L1768.13 1365.15C1763.07 1365.3 1757.5 1373.72 1757.62 1384.78Z" />
							<path id="Layer" class="shp32" d="M2127.02 1424.49L1755.26 1424.49C1751.52 1424.49 1748.49 1421.46 1748.49 1417.72C1748.49 1413.97 1751.52 1410.94 1755.26 1410.94L2127.02 1410.94C2130.76 1410.94 2133.8 1413.97 2133.8 1417.72C2133.8 1421.46 2130.76 1424.49 2127.02 1424.49Z" />
							<path id="Layer" fill-rule="evenodd" class="shp54" d="M1772.16 1230.86C1772.16 1223.98 1777.37 1218.25 1784.21 1217.55C1787.51 1217.21 1791.06 1216.99 1794.49 1216.99C1804.82 1216.99 1810.19 1218.24 1815.35 1222C1820.91 1225.93 1825.4 1234.69 1825.4 1247.57C1825.4 1257.76 1822.28 1267.41 1814.28 1272.6L1814.28 1272.96C1822.47 1276.89 1827.64 1287.62 1827.64 1302.64C1827.64 1314.44 1824.23 1323.74 1819.45 1329.82C1814.18 1336.26 1805.6 1340.01 1790.98 1340.01C1788.68 1340.01 1786.57 1339.94 1784.63 1339.82C1777.6 1339.38 1772.16 1333.51 1772.16 1326.47L1772.16 1230.86ZM1790.39 1263.66L1794.29 1263.66C1802.87 1263.66 1806.77 1259.37 1806.77 1251.86C1806.77 1245.06 1803.56 1241.13 1797.02 1241.13C1793.51 1241.13 1791.66 1241.49 1790.39 1241.84L1790.39 1263.66ZM1790.39 1315.16C1791.86 1315.52 1793.61 1315.52 1796.34 1315.52C1802.78 1315.52 1808.14 1311.4 1808.14 1300.85C1808.14 1290.66 1802.58 1287.26 1795.17 1287.26L1790.39 1287.26L1790.39 1315.16Z" />
							<path id="Layer" fill-rule="evenodd" class="shp55" d="M1837.49 1227.09C1837.49 1222.56 1840.81 1218.73 1845.29 1218.07C1849.64 1217.42 1854.85 1216.99 1860.7 1216.99C1871.71 1216.99 1879.03 1219.85 1884.1 1226.47C1888.29 1232.01 1890.92 1240.77 1890.92 1252.93C1890.92 1269.02 1883.81 1279.22 1879.22 1281.9L1879.22 1282.61C1883.61 1286.01 1886.05 1293.88 1887.9 1303.89C1889.25 1311.35 1890.61 1320.75 1891.75 1328.06C1892.61 1333.59 1888.34 1338.58 1882.74 1338.58L1882.16 1338.58C1877.81 1338.58 1874.07 1335.53 1873.22 1331.27C1872.29 1326.61 1871.16 1320.02 1869.86 1311.04C1867.81 1296.56 1865.18 1293.7 1859.04 1293.7L1855.72 1293.7L1855.72 1329.47C1855.72 1334.5 1851.64 1338.58 1846.61 1338.58C1841.57 1338.58 1837.49 1334.5 1837.49 1329.47L1837.49 1227.09ZM1855.72 1269.92L1861.18 1269.92C1868.4 1269.92 1872.69 1264.55 1872.69 1255.43C1872.69 1246.31 1868.98 1241.66 1862.74 1241.66C1858.65 1241.66 1856.7 1242.02 1855.72 1242.38L1855.72 1269.92Z" />
							<path id="Layer" fill-rule="evenodd" class="shp56" d="M1928.38 1314.24L1925.52 1333.6C1925.09 1336.46 1922.63 1338.58 1919.74 1338.58L1912.31 1338.58C1908.69 1338.58 1905.94 1335.31 1906.56 1331.74L1925.45 1222.9C1925.94 1220.1 1928.37 1218.06 1931.21 1218.06L1946.58 1218.06C1949.4 1218.06 1951.82 1220.08 1952.33 1222.85L1972.18 1331.69C1972.83 1335.28 1970.08 1338.58 1966.43 1338.58L1957.93 1338.58C1955.06 1338.58 1952.62 1336.5 1952.17 1333.67L1949.02 1314.17C1948.57 1311.34 1946.13 1309.26 1943.26 1309.26L1934.16 1309.26C1931.27 1309.26 1928.81 1311.38 1928.38 1314.24ZM1938.52 1284.58C1942.13 1284.58 1944.87 1281.35 1944.29 1277.79L1941.9 1263.3C1940.98 1257.96 1939.94 1251.42 1938.97 1245.47C1938.83 1244.64 1937.63 1244.65 1937.51 1245.48C1936.77 1250.69 1935.57 1258.94 1934.88 1263.48L1932.75 1277.89C1932.22 1281.41 1934.96 1284.58 1938.52 1284.58Z" />
							<path id="Layer" class="shp57" d="M1975.94 1332.73L1976.08 1223.89C1976.08 1220.67 1978.7 1218.06 1981.92 1218.06L1994.89 1218.06C1997.45 1218.06 1999.71 1219.73 2000.47 1222.17L2010.02 1252.93C2013.5 1264.08 2016.92 1277.32 2019.88 1290.51C2020.08 1291.42 2021.42 1291.25 2021.39 1290.33C2021.1 1279.58 2020.65 1260.79 2020.65 1249.53L2020.65 1223.9C2020.65 1220.68 2023.26 1218.06 2026.49 1218.06L2031.86 1218.06C2035.09 1218.06 2037.71 1220.68 2037.7 1223.91L2037.57 1332.75C2037.56 1335.97 2034.95 1338.58 2031.72 1338.58L2021.74 1338.58C2019.15 1338.58 2016.87 1336.88 2016.14 1334.39L2005.63 1298.71C2001.99 1286.6 1997.98 1272.73 1994.5 1258.52C1994.28 1257.64 1992.99 1257.8 1992.99 1258.71C1993.04 1269.94 1993.15 1292.68 1993.15 1306.04L1993.02 1332.77C1993.01 1335.98 1990.4 1338.58 1987.18 1338.58L1981.78 1338.58C1978.55 1338.58 1975.94 1335.96 1975.94 1332.73Z" />
							<path id="Layer" fill-rule="evenodd" class="shp58" d="M2046.3 1224.3C2046.3 1221.49 2048.31 1219.09 2051.07 1218.56C2056.55 1217.51 2062.92 1216.99 2069.41 1216.99C2083.26 1216.99 2091.74 1220.74 2098.96 1229.15C2106.66 1238.09 2112.02 1252.75 2112.02 1274.75C2112.02 1299.78 2106.37 1314.98 2099.93 1323.92C2091.84 1335.19 2079.65 1340.01 2065.8 1340.01C2059.54 1340.01 2054.77 1339.57 2051.2 1338.97C2048.38 1338.5 2046.3 1336.07 2046.3 1333.21L2046.3 1224.3ZM2064.73 1313.73C2065.8 1314.08 2067.66 1314.08 2069.02 1314.08C2082.48 1314.44 2092.33 1302.82 2092.33 1276.53C2092.33 1252.57 2083.06 1242.56 2071.17 1242.56C2067.75 1242.56 2065.71 1243.1 2064.73 1243.45L2064.73 1313.73Z" />
							<path id="Layer" class="shp59" d="M1950.04 1182.19C1941.93 1188.69 1931.71 1191.91 1922.74 1187.74C1917.5 1185.3 1897.28 1167.89 1903.88 1158.67C1904.99 1157.13 1906.57 1156.35 1908.11 1155.67C1923.03 1149.05 1937.63 1152.03 1953.09 1152.62C1957.49 1152.79 1964.27 1152.19 1965.39 1159.83C1966.87 1169.86 1955.3 1177.98 1950.04 1182.19Z" />
						</g>
					</g>
					<path id="Layer" class="shp32" d="M1212.02 772.47C1217.4 745.26 1223.18 718.03 1229.39 690.81C1231.09 683.36 1236.43 677.08 1243.63 674.1C1269.91 663.24 1296.43 652.88 1323.17 643.07C1341.57 636.34 1345.11 612.06 1328.66 601.87C1304.77 587.21 1280.43 572.94 1255.62 559.11C1248.83 555.31 1244.56 548.54 1244.3 540.94C1243.33 513.24 1242.53 485.51 1241.89 457.75C1241.55 438.58 1216.68 429.71 1200.07 443.08C1176.09 462.37 1152.62 482.04 1129.66 502.08C1123.36 507.59 1114.8 510.11 1106.68 508.92C1077.04 504.52 1047.09 500.74 1016.85 497.59C995.9 495.42 979.05 516.69 988.45 533.18C1001.93 557.1 1015.26 581.11 1028.42 605.19C1032.03 611.78 1031.8 619.9 1027.9 626.88C1013.64 652.34 999.94 677.95 986.81 703.65C977.8 721.43 993.15 740.08 1012.37 735.59C1040.33 729.1 1068.3 723.23 1096.24 717.96C1103.91 716.51 1111.62 718.9 1116.84 724.3C1135.87 744.01 1154.54 763.96 1172.83 784.13C1185.47 798 1208.28 791.23 1212.02 772.47Z" />
					<path id="Layer" class="shp60" d="M1214.3 451.03C1212.73 451.42 1211.26 452.16 1209.91 453.25C1186.01 472.43 1162.62 491.99 1139.74 511.92C1134.79 516.23 1128.84 519.5 1122.49 521.38C1116.13 523.26 1109.43 523.78 1103.06 522.84C1073.53 518.5 1043.7 514.77 1013.57 511.67C1011.87 511.5 1010.21 511.67 1008.69 512.21C1005.86 513.21 1003.4 515.38 1002.15 518.06C1001.29 519.88 1000.63 522.67 1002.33 525.73C1015.67 549.75 1028.85 573.84 1041.86 598C1047.58 608.63 1047.13 621.64 1040.86 632.79C1026.58 658.15 1012.86 683.65 999.72 709.25C997.29 713.98 999.49 717.59 1000.54 718.89C1001.6 720.21 1004.61 723.15 1009.81 721.93C1037.93 715.41 1066.06 709.5 1094.17 704.21C1106.54 701.86 1118.96 705.75 1127.28 714.47C1146.23 734.28 1164.81 754.33 1183.02 774.62C1186.38 778.37 1190.51 777.64 1192.12 777.17C1193.74 776.68 1197.6 775.04 1198.58 769.98C1203.84 742.72 1209.51 715.46 1215.6 688.19C1218.27 676.19 1226.84 666.08 1238.48 661.27C1264.92 650.33 1291.59 639.92 1318.49 630.04C1323.47 628.21 1324.52 624.08 1324.76 622.37C1324.98 620.67 1325.05 616.42 1320.63 613.72C1296.76 599.15 1272.44 584.99 1247.65 571.25C1236.76 565.23 1229.85 554.4 1229.35 542.22C1228.21 514.52 1227.24 486.79 1226.45 459.04C1226.35 455.51 1224.38 453.48 1222.75 452.41C1220.34 450.83 1217.19 450.31 1214.3 451.03Z" />
					<path id="Layer" class="shp32" d="M1060.1 612.64C1059.2 612.96 1058.52 613.76 1058.49 614.71C1058.21 622.67 1055.89 630.67 1051.82 637.87C1046.38 647.49 1041.02 657.13 1035.75 666.78C1035.17 667.84 1035.57 669.09 1036.63 669.58C1037.7 670.07 1039.02 669.6 1039.6 668.55C1044.87 658.91 1050.23 649.28 1055.67 639.68C1060.09 631.87 1062.62 623.2 1062.94 614.55C1062.98 613.38 1062.01 612.48 1060.79 612.52C1060.54 612.53 1060.32 612.57 1060.1 612.64Z" />
					<path id="Layer" class="shp32" d="M1087.11 533.07C1086.31 533.32 1085.66 533.95 1085.46 534.75C1085.17 535.9 1085.94 536.99 1087.17 537.16C1091.11 537.7 1095.05 538.27 1098.99 538.84C1108.07 540.15 1117.63 539.43 1126.67 536.75C1135.72 534.06 1144.19 529.41 1151.25 523.29C1152.19 522.47 1152.3 521.14 1151.47 520.31C1150.65 519.5 1149.21 519.5 1148.25 520.32C1141.75 525.97 1133.92 530.26 1125.58 532.73C1117.23 535.21 1108.42 535.89 1100.04 534.66C1096.1 534.09 1092.16 533.52 1088.2 532.97C1087.83 532.92 1087.46 532.95 1087.11 533.07Z" />
					<path id="Layer" class="shp32" d="M1192.23 485.6C1190.47 486.06 1188.74 486.75 1187.12 487.7C1186 488.33 1185.62 489.66 1186.24 490.61C1186.86 491.6 1188.26 491.85 1189.37 491.22C1193.62 488.77 1198.75 488.48 1203.09 490.44C1207.44 492.41 1210.03 496.17 1210.21 500.74C1210.81 515.1 1211.45 529.47 1212.14 543.82C1213 561.28 1223.01 576.65 1238.6 585.25C1251.43 592.31 1264.14 599.48 1276.72 606.77C1281.11 609.29 1283.36 613.84 1282.78 618.82C1282.19 623.83 1278.95 627.93 1274.09 629.82C1260.17 635.24 1246.32 640.82 1232.52 646.52C1215.73 653.47 1203.41 668.06 1199.68 685.29C1196.59 699.45 1193.61 713.61 1190.75 727.76C1189.75 732.71 1186.27 736.49 1181.44 737.93C1176.61 739.36 1171.75 738.07 1168.4 734.41C1158.83 723.95 1149.16 713.56 1139.39 703.22C1127.53 690.66 1109.67 685.01 1091.81 688.39C1077.14 691.15 1062.47 694.08 1047.8 697.17C1045.18 697.7 1042.56 697.54 1040.22 696.65C1039.12 696.23 1037.84 696.78 1037.36 697.87C1036.86 698.97 1037.36 700.17 1038.45 700.59C1041.56 701.78 1045.03 702.01 1048.49 701.28C1063.14 698.19 1077.78 695.27 1092.42 692.52C1108.84 689.43 1125.28 694.59 1136.22 706.15C1146.01 716.47 1155.69 726.85 1165.27 737.29C1169.64 742.04 1176.24 743.81 1182.53 741.94C1188.83 740.08 1193.54 734.92 1194.86 728.49C1197.74 714.34 1200.73 700.19 1203.84 686.04C1207.29 670.17 1218.64 656.76 1234.08 650.37C1247.85 644.67 1261.68 639.11 1275.58 633.7C1281.9 631.23 1286.31 625.67 1287.08 619.15C1287.86 612.62 1284.81 606.48 1279.08 603.16C1266.49 595.86 1253.78 588.67 1240.95 581.59C1226.59 573.68 1217.37 559.47 1216.63 543.38C1215.97 529.03 1215.35 514.68 1214.78 500.31C1214.55 494.33 1211.04 489.23 1205.35 486.64C1201.27 484.8 1196.61 484.44 1192.23 485.6Z" />
					<path id="Layer" class="shp32" d="M1493.57 616.41C1503.55 590.71 1513.95 565.07 1524.75 539.52C1527.71 532.5 1534.01 527.39 1541.56 525.84C1569.12 520.22 1596.84 515.15 1624.72 510.64C1643.9 507.55 1651.62 484.36 1637.29 471.2C1616.49 452.19 1595.17 433.49 1573.36 415.12C1567.38 410.08 1564.4 402.61 1565.46 395.09C1569.35 367.67 1573.41 340.26 1577.64 312.86C1580.65 293.93 1557.91 280.45 1539.34 290.38C1512.56 304.72 1486.23 319.53 1460.34 334.79C1453.25 338.94 1444.46 339.83 1436.75 337.06C1408.63 327.01 1380.12 317.49 1351.25 308.51C1331.23 302.3 1311.16 319.91 1317.44 337.95C1326.4 364.08 1335.2 390.25 1343.83 416.46C1346.19 423.65 1344.57 431.57 1339.55 437.67C1321.27 459.9 1303.53 482.38 1286.33 505.05C1274.5 520.76 1286.18 542.06 1305.63 541.41C1333.92 540.5 1362.13 540.18 1390.25 540.43C1397.96 540.49 1405.06 544.35 1409.2 550.65C1424.3 573.71 1439.02 596.93 1453.33 620.29C1463.23 636.38 1486.65 634.12 1493.57 616.41Z" />
					<path id="Layer" class="shp61" d="M1551.86 300.94C1550.26 301.03 1548.69 301.47 1547.17 302.28C1520.49 316.52 1494.25 331.24 1468.46 346.41C1462.89 349.68 1456.52 351.72 1450 352.36C1443.48 352.98 1436.84 352.19 1430.8 350.03C1402.78 340.06 1374.38 330.61 1345.61 321.71C1343.97 321.2 1342.34 321.07 1340.76 321.29C1337.84 321.71 1335.07 323.38 1333.39 325.76C1332.24 327.38 1331.12 329.99 1332.24 333.33C1341.04 359.52 1349.68 385.75 1358.15 412.02C1361.87 423.58 1359.17 436.26 1351.14 445.99C1332.85 468.13 1315.1 490.5 1297.89 513.08C1294.71 517.25 1296.23 521.2 1297.02 522.7C1297.82 524.21 1300.25 527.67 1305.5 527.5C1333.95 526.59 1362.33 526.26 1390.61 526.51C1403.06 526.64 1414.48 532.85 1421.07 543.02C1436.09 566.17 1450.7 589.47 1464.92 612.91C1467.54 617.24 1471.69 617.35 1473.35 617.18C1475.01 617.02 1479.06 616.13 1480.89 611.37C1490.76 585.6 1501.05 559.9 1511.75 534.28C1516.44 523 1526.56 514.71 1538.77 512.24C1566.49 506.58 1594.38 501.47 1622.42 496.93C1627.61 496.09 1629.37 492.22 1629.89 490.59C1630.4 488.97 1631.2 484.8 1627.36 481.3C1606.56 462.39 1585.26 443.79 1563.45 425.52C1553.87 417.48 1549 405.53 1550.63 393.47C1554.36 366.01 1558.26 338.58 1562.32 311.15C1562.84 307.65 1561.28 305.3 1559.87 303.93C1557.8 301.91 1554.8 300.79 1551.86 300.94Z" />
					<path id="Layer" class="shp32" d="M1373.35 429.94C1372.42 430.07 1371.63 430.74 1371.43 431.66C1369.77 439.42 1366.12 446.84 1360.92 453.12C1353.96 461.51 1347.08 469.93 1340.27 478.39C1339.53 479.31 1339.7 480.61 1340.64 481.31C1341.6 481.99 1342.96 481.83 1343.71 480.88C1350.52 472.44 1357.4 464.02 1364.36 455.64C1370.01 448.85 1373.97 440.78 1375.79 432.37C1376.03 431.23 1375.24 430.15 1374.05 429.95C1373.82 429.91 1373.57 429.92 1373.35 429.94Z" />
					<path id="Layer" class="shp32" d="M1413.49 357C1412.66 357.1 1411.91 357.6 1411.58 358.34C1411.1 359.42 1411.66 360.63 1412.83 361.03C1416.58 362.34 1420.32 363.65 1424.05 364.97C1432.68 368.02 1442.12 369.17 1451.4 368.27C1460.69 367.37 1469.76 364.46 1477.7 359.8C1478.77 359.17 1479.1 357.89 1478.45 356.91C1477.78 355.94 1476.38 355.67 1475.3 356.3C1467.97 360.59 1459.6 363.3 1451.03 364.12C1442.47 364.94 1433.75 363.91 1425.8 361.08C1422.07 359.75 1418.32 358.42 1414.57 357.12C1414.21 357 1413.84 356.96 1413.49 357Z" />
					<path id="Layer" class="shp32" d="M1524.27 330.66C1522.48 330.78 1520.67 331.14 1518.91 331.74C1517.72 332.16 1517.1 333.36 1517.54 334.44C1517.99 335.53 1519.29 336.05 1520.49 335.63C1525.07 334.04 1530.15 334.75 1534.03 337.52C1537.93 340.3 1539.8 344.47 1539.19 349.01C1537.27 363.25 1535.38 377.48 1533.55 391.72C1531.33 409.04 1538.44 426.1 1552.16 437.54C1563.46 446.95 1574.62 456.45 1585.65 466.03C1589.5 469.36 1590.9 474.24 1589.46 479.04C1588.02 483.83 1584.12 487.26 1579.05 488.18C1564.5 490.83 1549.99 493.63 1535.53 496.59C1517.93 500.19 1503.36 512.16 1496.72 528.36C1491.24 541.67 1485.87 555.01 1480.61 568.37C1478.77 573.02 1474.72 576.08 1469.77 576.57C1464.81 577.04 1460.29 574.81 1457.67 570.58C1450.16 558.46 1442.55 546.37 1434.83 534.32C1425.46 519.66 1409.03 510.69 1391.07 510.52C1376.31 510.38 1361.53 510.4 1346.73 510.58C1344.08 510.62 1341.57 509.94 1339.44 508.6C1338.45 507.99 1337.11 508.26 1336.45 509.24C1335.78 510.21 1336.04 511.5 1337.04 512.12C1339.86 513.89 1343.19 514.8 1346.68 514.75C1361.46 514.58 1376.22 514.56 1390.95 514.69C1407.46 514.83 1422.58 523.1 1431.23 536.59C1438.97 548.61 1446.6 560.69 1454.12 572.8C1457.54 578.31 1463.67 581.33 1470.13 580.72C1476.58 580.09 1482.09 575.96 1484.49 569.87C1489.76 556.53 1495.15 543.2 1500.65 529.89C1506.79 514.98 1520.19 503.97 1536.38 500.67C1550.82 497.73 1565.3 494.92 1579.82 492.28C1586.43 491.05 1591.72 486.48 1593.61 480.19C1595.52 473.94 1593.61 467.31 1588.58 462.93C1577.56 453.33 1566.4 443.82 1555.1 434.39C1542.45 423.85 1535.94 408.12 1538.01 392.16C1539.87 377.93 1541.77 363.7 1543.73 349.47C1544.52 343.56 1542 337.83 1536.9 334.22C1533.23 331.62 1528.75 330.39 1524.27 330.66Z" />
					<path id="Layer" class="shp32" d="M1878.14 620.29C1892.47 596.93 1907.19 573.73 1922.32 550.68C1926.46 544.37 1933.56 540.52 1941.27 540.46C1969.39 540.23 1997.6 540.57 2025.89 541.5C2045.34 542.16 2057.03 520.86 2045.21 505.15C2028.03 482.47 2010.31 459.98 1992.04 437.73C1987.04 431.64 1985.41 423.71 1987.78 416.53C1996.43 390.32 2005.24 364.15 2014.23 338.03C2020.53 320 2000.47 302.39 1980.45 308.58C1951.56 317.53 1923.04 327.04 1894.92 337.07C1887.2 339.83 1878.42 338.97 1871.32 334.79C1845.45 319.51 1819.13 304.69 1792.36 290.33C1773.81 280.4 1751.03 293.87 1754.04 312.79C1758.25 340.19 1762.29 367.6 1766.16 395.02C1767.21 402.55 1764.23 410.01 1758.25 415.05C1736.42 433.41 1715.09 452.1 1694.28 471.09C1679.94 484.25 1687.64 507.44 1706.82 510.53C1734.69 515.06 1762.41 520.15 1789.97 525.79C1797.53 527.33 1803.83 532.47 1806.77 539.48C1817.56 565.04 1827.94 590.67 1837.9 616.39C1844.81 634.1 1868.22 636.36 1878.14 620.29Z" />
					<path id="Layer" class="shp62" d="M1990.92 321.36C1989.34 321.15 1987.7 321.26 1986.07 321.77C1957.29 330.66 1928.88 340.09 1900.86 350.05C1894.81 352.2 1888.18 353 1881.66 352.36C1875.14 351.73 1868.76 349.66 1863.2 346.4C1837.42 331.22 1811.19 316.49 1784.52 302.22C1783.01 301.41 1781.43 300.95 1779.83 300.88C1776.89 300.74 1773.89 301.85 1771.82 303.87C1770.4 305.23 1768.85 307.59 1769.36 311.09C1773.41 338.52 1777.28 365.96 1780.99 393.41C1782.61 405.49 1777.73 417.43 1768.15 425.46C1746.33 443.71 1725.01 462.3 1704.2 481.2C1700.35 484.68 1701.15 488.86 1701.66 490.49C1702.18 492.11 1703.93 496 1709.12 496.83C1737.17 501.39 1765.05 506.51 1792.77 512.18C1804.96 514.67 1815.09 522.98 1819.78 534.25C1830.46 559.87 1840.73 585.58 1850.58 611.36C1852.41 616.12 1856.46 617.01 1858.12 617.17C1859.78 617.34 1863.92 617.24 1866.56 612.91C1880.79 589.47 1895.42 566.17 1910.44 543.04C1917.04 532.86 1928.46 526.65 1940.92 526.55C1969.2 526.32 1997.57 526.65 2026.03 527.59C2031.29 527.76 2033.71 524.29 2034.51 522.79C2035.29 521.28 2036.83 517.37 2033.65 513.17C2016.45 490.58 1998.72 468.2 1980.45 446.05C1972.41 436.32 1969.74 423.64 1973.46 412.08C1981.95 385.82 1990.61 359.59 1999.44 333.41C2000.55 330.07 1999.44 327.47 1998.29 325.84C1996.61 323.46 1993.85 321.79 1990.92 321.36Z" />
					<path id="Layer" class="shp32" d="M1792.76 413.94C1791.82 413.89 1790.92 414.38 1790.57 415.25C1787.59 422.56 1782.71 429.16 1776.5 434.34C1768.2 441.25 1759.97 448.21 1751.82 455.22C1750.92 455.99 1750.86 457.31 1751.67 458.16C1752.48 459.03 1753.86 459.1 1754.75 458.33C1762.9 451.34 1771.13 444.39 1779.43 437.48C1786.17 431.87 1791.47 424.72 1794.73 416.79C1795.17 415.71 1794.6 414.48 1793.44 414.08C1793.22 414.01 1792.99 413.94 1792.76 413.94Z" />
					<path id="Layer" class="shp32" d="M1844.96 349.93C1844.15 349.85 1843.32 350.19 1842.86 350.88C1842.19 351.84 1842.54 353.15 1843.61 353.76C1847.06 355.76 1850.51 357.77 1853.95 359.79C1861.89 364.44 1870.96 367.38 1880.24 368.27C1889.53 369.19 1898.97 368.02 1907.6 364.99C1908.75 364.58 1909.32 363.37 1908.83 362.3C1908.35 361.21 1907.01 360.67 1905.85 361.09C1897.89 363.9 1889.18 364.96 1880.61 364.12C1872.05 363.3 1863.68 360.6 1856.35 356.29C1852.92 354.27 1849.46 352.26 1846.01 350.25C1845.68 350.06 1845.32 349.96 1844.96 349.93Z" />
					<path id="Layer" class="shp32" d="M1958.54 345.28C1956.74 345.05 1954.91 345.07 1953.07 345.32C1951.81 345.5 1951.01 346.55 1951.25 347.7C1951.5 348.84 1952.68 349.62 1953.94 349.45C1958.72 348.76 1963.59 350.44 1966.94 353.89C1970.29 357.38 1971.4 361.85 1970 366.18C1965.6 379.81 1961.25 393.44 1956.95 407.08C1951.71 423.69 1955.71 441.82 1967.22 455.7C1976.69 467.11 1986.02 478.6 1995.21 490.13C1998.42 494.15 1998.95 499.22 1996.68 503.66C1994.41 508.11 1989.98 510.72 1984.81 510.64C1970.01 510.46 1955.23 510.43 1940.47 510.55C1922.51 510.7 1906.08 519.69 1896.7 534.34C1888.97 546.37 1881.35 558.45 1873.83 570.58C1871.21 574.8 1866.69 577.04 1861.73 576.55C1856.76 576.07 1852.73 573.02 1850.89 568.35C1845.64 554.99 1840.28 541.65 1834.81 528.33C1828.18 512.13 1813.63 500.15 1796.02 496.54C1781.56 493.58 1767.05 490.76 1752.5 488.11C1749.9 487.63 1747.54 486.47 1745.71 484.76C1744.84 483.97 1743.48 483.98 1742.66 484.82C1741.83 485.64 1741.88 486.96 1742.73 487.76C1745.19 490.05 1748.3 491.58 1751.73 492.2C1766.25 494.86 1780.73 497.67 1795.17 500.62C1811.36 503.92 1824.74 514.96 1830.88 529.86C1836.37 543.17 1841.75 556.51 1847.01 569.85C1849.41 575.92 1854.9 580.08 1861.36 580.71C1867.82 581.34 1873.95 578.31 1877.38 572.8C1884.91 560.69 1892.55 548.62 1900.29 536.6C1908.95 523.12 1924.07 514.86 1940.59 514.73C1955.32 514.6 1970.08 514.63 1984.85 514.82C1991.59 514.91 1997.59 511.37 2000.57 505.59C2003.53 499.8 2002.82 492.92 1998.64 487.66C1989.46 476.1 1980.13 464.61 1970.66 453.17C1960.06 440.36 1956.42 423.68 1961.26 408.37C1965.59 394.74 1969.97 381.11 1974.39 367.5C1976.22 361.84 1974.72 355.77 1970.35 351.2C1967.19 347.93 1962.99 345.88 1958.54 345.28Z" />
					<path id="Layer" class="shp32" d="M2158.2 777.45C2176.5 757.28 2195.18 737.35 2214.23 717.65C2219.45 712.26 2227.16 709.87 2234.83 711.32C2262.77 716.61 2290.73 722.49 2318.68 729C2337.91 733.51 2353.27 714.86 2344.27 697.08C2331.16 671.37 2317.48 645.76 2303.24 620.28C2299.34 613.3 2299.12 605.21 2302.73 598.59C2315.92 574.53 2329.26 550.54 2342.76 526.62C2352.17 510.13 2335.34 488.85 2314.38 491.01C2284.14 494.15 2254.19 497.91 2224.55 502.29C2216.42 503.5 2207.87 500.93 2201.57 495.44C2178.62 475.38 2155.16 455.69 2131.21 436.39C2114.6 423.01 2089.73 431.86 2089.36 451.04C2088.71 478.79 2087.89 506.52 2086.89 534.23C2086.62 541.82 2082.35 548.59 2075.55 552.38C2050.74 566.2 2026.38 580.45 2002.49 595.1C1986.01 605.26 1989.54 629.57 2007.94 636.29C2034.68 646.13 2061.2 656.5 2087.47 667.38C2094.68 670.36 2100 676.64 2101.7 684.1C2107.89 711.32 2113.66 738.55 2119.01 765.77C2122.74 784.52 2145.55 791.31 2158.2 777.45Z" />
					<path id="Layer" class="shp63" d="M2322.54 505.64C2321 505.12 2319.36 504.91 2317.65 505.1C2287.52 508.17 2257.68 511.88 2228.16 516.2C2221.78 517.14 2215.08 516.62 2208.72 514.73C2202.38 512.83 2196.41 509.58 2191.48 505.27C2168.61 485.33 2145.23 465.75 2121.36 446.56C2119.99 445.47 2118.52 444.72 2116.96 444.33C2114.07 443.62 2110.91 444.13 2108.5 445.71C2106.88 446.77 2104.91 448.79 2104.81 452.34C2103.99 480.08 2103 507.8 2101.84 535.51C2101.33 547.71 2094.41 558.5 2083.51 564.52C2058.73 578.25 2034.39 592.4 2010.51 606.95C2006.1 609.66 2006.15 613.89 2006.37 615.6C2006.6 617.29 2007.66 621.46 2012.63 623.27C2039.53 633.17 2066.2 643.6 2092.63 654.55C2104.26 659.38 2112.83 669.49 2115.49 681.49C2121.56 708.76 2127.22 736.03 2132.46 763.29C2133.43 768.33 2137.29 769.99 2138.91 770.47C2140.53 770.96 2144.64 771.67 2148.02 767.93C2166.24 747.65 2184.83 727.62 2203.79 707.81C2212.13 699.1 2224.54 695.24 2236.91 697.57C2265.02 702.89 2293.15 708.81 2321.26 715.35C2326.47 716.55 2329.48 713.64 2330.53 712.31C2331.58 711 2333.79 707.41 2331.36 702.68C2318.23 677.07 2304.54 651.56 2290.28 626.19C2284.01 615.01 2283.57 602.06 2289.3 591.41C2302.33 567.25 2315.53 543.17 2328.88 519.16C2330.58 516.11 2329.92 513.3 2329.07 511.49C2327.81 508.81 2325.37 506.64 2322.54 505.64Z" />
					<path id="Layer" class="shp32" d="M2109.88 557.97C2108.98 557.75 2107.99 558.07 2107.49 558.84C2103.25 565.45 2097.27 570.99 2090.21 574.87C2080.78 580.06 2071.42 585.31 2062.13 590.62C2061.11 591.2 2060.82 592.49 2061.47 593.49C2062.12 594.5 2063.46 594.82 2064.49 594.25C2073.78 588.95 2083.13 583.71 2092.56 578.53C2100.21 574.32 2106.71 568.33 2111.33 561.15C2111.95 560.19 2111.6 558.9 2110.53 558.25C2110.32 558.12 2110.11 558.04 2109.88 557.97Z" />
					<path id="Layer" class="shp32" d="M2172.8 505.19C2171.99 504.97 2171.12 505.14 2170.55 505.71C2169.72 506.53 2169.83 507.87 2170.79 508.69C2173.86 511.33 2176.92 513.98 2179.97 516.63C2187.01 522.77 2195.49 527.39 2204.53 530.1C2213.57 532.8 2223.13 533.52 2232.21 532.21C2233.44 532.04 2234.2 530.95 2233.91 529.8C2233.62 528.63 2232.39 527.88 2231.17 528.03C2222.77 529.25 2213.97 528.57 2205.62 526.09C2197.27 523.62 2189.46 519.3 2182.96 513.66C2179.91 511 2176.85 508.35 2173.78 505.71C2173.48 505.45 2173.16 505.28 2172.8 505.19Z" />
					<path id="Layer" class="shp32" d="M2286.2 522.8C2284.45 522.22 2282.63 521.87 2280.77 521.76C2279.5 521.69 2278.5 522.58 2278.54 523.75C2278.57 524.93 2279.64 525.93 2280.91 525.99C2285.77 526.26 2290.32 528.86 2293.03 532.92C2295.75 536.99 2296.06 541.6 2293.91 545.6C2287.16 558.13 2280.45 570.68 2273.78 583.25C2265.68 598.55 2266.47 617.17 2275.45 633.07C2282.85 646.16 2290.11 659.28 2297.2 672.44C2299.68 677.03 2299.33 682.12 2296.29 686.03C2293.25 689.97 2288.41 691.62 2283.29 690.56C2268.62 687.46 2253.95 684.53 2239.28 681.76C2221.44 678.39 2203.56 684 2191.69 696.56C2181.91 706.89 2172.23 717.28 2162.66 727.73C2159.31 731.38 2154.45 732.7 2149.61 731.25C2144.79 729.81 2141.3 726.02 2140.31 721.07C2137.46 706.92 2134.49 692.75 2131.42 678.6C2127.69 661.38 2115.39 646.77 2098.59 639.81C2084.8 634.09 2070.95 628.51 2057.03 623.08C2054.54 622.09 2052.42 620.52 2050.9 618.48C2050.19 617.53 2048.83 617.29 2047.88 617.94C2046.92 618.58 2046.72 619.91 2047.43 620.85C2049.46 623.56 2052.27 625.66 2055.55 626.96C2069.44 632.38 2083.27 637.95 2097.04 643.66C2112.47 650.05 2123.81 663.49 2127.25 679.34C2130.35 693.49 2133.33 707.64 2136.21 721.79C2137.52 728.24 2142.22 733.37 2148.52 735.25C2154.82 737.13 2161.41 735.37 2165.79 730.61C2175.38 720.18 2185.07 709.8 2194.85 699.49C2205.81 687.95 2222.25 682.78 2238.67 685.89C2253.31 688.65 2267.95 691.58 2282.59 694.67C2289.26 696.08 2295.85 693.8 2299.82 688.69C2303.8 683.58 2304.28 676.68 2301.05 670.68C2293.96 657.51 2286.71 644.37 2279.31 631.26C2271.03 616.61 2270.35 599.46 2277.83 585.37C2284.52 572.81 2291.26 560.28 2298.03 547.76C2300.84 542.56 2300.44 536.28 2296.88 530.94C2294.33 527.11 2290.52 524.25 2286.2 522.8Z" />
					<path id="Layer" class="shp64" d="M2418.13 1739.16C2422.44 1734.97 2422.24 1728 2417.71 1724.07L1882.23 1246.3C1880.73 1244.96 1878.57 1244.65 1876.76 1245.52C1873.57 1247.05 1872.93 1251.31 1875.53 1253.7L2404.05 1739.36C2408.06 1743.04 2414.24 1742.95 2418.13 1739.16Z" />
					<path id="Layer" class="shp65" d="M2731.25 2915.43C2731.23 2914.67 2731.28 2913.9 2731.48 2913.13C2742.94 2867.69 2799.83 2839.38 2799.83 2839.38L2822.37 2841.15C2835.33 2881.2 2833.67 2905.77 2831.59 2916.71C2831.53 2917.01 2831.43 2917.31 2831.35 2917.6C2812.76 2919.26 2774.48 2920.35 2731.25 2915.43Z" />
					<path id="Layer" class="shp66" d="M2831.35 2917.6C2830.35 2921.26 2827.65 2924.1 2824.2 2924.83C2797.75 2930.39 2755.7 2925.91 2738.05 2923.61C2734.16 2923.1 2731.31 2919.5 2731.25 2915.43C2774.48 2920.35 2812.76 2919.26 2831.35 2917.6Z" />
					<path id="Layer" class="shp67" d="M2920.62 2111.01C2934.55 2125.87 2955.05 2138.71 2969.47 2146.72C2947.93 2173.35 2918.78 2200.02 2880.19 2226.12L2869.14 2250.9L2833.75 2208.49C2833.75 2208.49 2897.25 2176.89 2920.62 2111.01Z" />
					<path id="Layer" class="shp68" d="M2831.44 2807.57L2821.89 2853.54C2821.19 2856.9 2818.6 2859.43 2815.47 2859.72C2811.63 2860.08 2806.17 2860.29 2800.67 2859.49C2795.75 2858.76 2792.32 2853.76 2793.19 2848.38L2799.83 2807.57L2831.44 2807.57Z" />
					<path id="Layer" class="shp69" d="M2633.61 2917.14C2658.51 2916.44 2671.39 2913.51 2678.05 2910.79C2678.06 2913.27 2678.05 2915.79 2677.97 2918.4C2677.88 2921.18 2675.82 2923.41 2673.28 2923.4L2536.58 2922.51C2532.21 2922.48 2529.66 2917.42 2531.55 2913.42C2549.48 2914.91 2595.13 2918.22 2633.61 2917.14Z" />
					<path id="Layer" class="shp70" d="M2531.55 2913.42C2531.72 2913.08 2531.86 2912.72 2532.1 2912.39C2544.17 2895.53 2574.92 2861.94 2635.67 2847.37L2664.82 2846.45C2664.82 2846.45 2677.8 2869 2678.05 2910.79C2671.39 2913.51 2658.51 2916.44 2633.61 2917.14C2595.13 2918.22 2549.48 2914.91 2531.55 2913.42Z" />
					<path id="Layer" class="shp71" d="M2670.23 2802.27C2669.9 2804.45 2665.91 2837.47 2664.36 2850.27C2663.99 2853.31 2661.79 2855.67 2659.01 2856C2654.05 2856.59 2646.02 2857.13 2638.99 2855.69C2635.2 2854.91 2632.46 2851.27 2632.46 2847.04L2632.46 2795.2L2670.23 2802.27Z" />
					<path id="Layer" class="shp72" d="M2693.61 2199.66C2693.61 2199.66 2623.31 2466.83 2624.58 2803.04C2624.6 2809.17 2628.91 2814.46 2634.91 2815.72C2643.75 2817.58 2656.74 2819.79 2667.5 2819.49C2673.24 2819.33 2678.04 2815.07 2679 2809.41C2688.86 2751.6 2745.43 2425.94 2777.66 2373.07C2777.66 2373.07 2798.87 2663.12 2792.09 2813.6C2791.92 2817.34 2794.66 2820.58 2798.38 2821.01C2804.02 2821.67 2813.05 2822.16 2824.54 2820.94C2828.91 2820.48 2832.43 2817.18 2833.05 2812.84C2840.07 2763.92 2880.48 2472.7 2878.76 2262.92C2878.67 2251.09 2847.48 2199.66 2847.48 2199.66L2693.61 2199.66Z" />
					<path id="Layer" class="shp73" d="M2585.8 1839.81C2598.11 1808.35 2618.88 1786.8 2639.76 1761.91C2718.02 1776.1 2846.3 1788.76 2899.8 1795.5C2916.5 1797.61 2931.77 1805.84 2942.78 1818.58C2986.43 1869.09 3082.2 2007.38 2969.47 2146.72C2955.05 2138.71 2934.55 2125.87 2920.62 2111.01C2933.1 2075.85 2934.12 2030.92 2907.98 1975.83C2907.09 1980.2 2905.98 1984.52 2904.64 1988.77C2868.61 2102.91 2866.69 2197.88 2866.77 2219.77C2866.78 2222.74 2865 2225.42 2862.24 2226.52C2814.83 2245.52 2723.56 2234.21 2692.92 2229.65C2687.3 2228.81 2683.52 2223.58 2684.3 2217.96C2699.34 2109.02 2622.17 1929.81 2601.78 1884.93C2598.8 1878.36 2593.55 1873.09 2586.98 1870.12C2583.68 1868.63 2580.45 1867.1 2577.26 1865.57C2579.69 1856.88 2582.49 1848.28 2585.8 1839.81Z" />
					<path id="Layer" class="shp74" d="M2817.85 1690.7L2823.43 1788.09C2823.6 1790.96 2821.72 1793.55 2818.93 1794.26C2806.58 1797.38 2772.41 1803.58 2742.68 1786.66C2738.83 1784.47 2737.04 1779.85 2738.26 1775.58L2763.12 1688.08L2817.85 1690.7Z" />
					<path id="Layer" class="shp75" d="M2756.91 1584.29C2755.64 1585.48 2703.56 1687.76 2703.56 1687.76L2762.59 1716.26L2826.36 1626.65C2826.36 1626.65 2778.07 1564.37 2756.91 1584.29Z" />
					<path id="Layer" class="shp76" d="M2800.24 1629.13C2801.29 1631.86 2801.03 1634.9 2799.53 1637.4L2770.09 1686.48C2769.64 1687.23 2769.11 1687.9 2768.48 1688.49C2764.97 1691.75 2752.98 1701.24 2743.71 1688.32C2735.81 1677.31 2728.39 1667.3 2720.45 1663.17C2715.81 1660.76 2710.1 1662.69 2707.75 1667.36C2702.9 1676.97 2693.5 1696.57 2687.6 1715.15C2686.12 1719.81 2688.52 1724.81 2693.05 1726.65C2705 1731.49 2728.63 1740.25 2749.59 1743.14C2753.04 1743.62 2756.45 1742.16 2758.5 1739.36C2767.52 1727 2792.94 1692.47 2801.61 1683.83C2809.67 1675.8 2824.55 1678.83 2831.25 1680.75C2833.8 1681.48 2836.51 1681.13 2838.78 1679.76C2845.58 1675.67 2857.45 1665.47 2846.59 1648.2C2843.89 1643.9 2845.26 1638.18 2849.5 1635.39C2857.1 1630.4 2865.34 1621.02 2857.49 1605.84C2849.54 1590.47 2835.35 1589.09 2825.68 1590.27C2821.4 1590.79 2817.06 1588.55 2815.42 1584.57C2814.69 1582.79 2813.25 1581.28 2810.56 1580.74C2805.5 1579.71 2802.17 1575.08 2803.17 1570C2804.87 1561.31 2803.59 1550.01 2789.7 1542.37C2764.23 1528.37 2741.92 1551.19 2736.25 1570.45C2730.57 1589.71 2759.05 1603.32 2776.96 1605.6C2790.12 1607.27 2797.34 1621.63 2800.24 1629.13Z" />
					<path id="Layer" class="shp77" d="M2790.55 1701.85C2790.55 1701.85 2801.88 1668.71 2816.38 1669.93C2830.88 1671.14 2842.29 1685.59 2824.32 1701.82C2801.97 1722.02 2790.55 1701.85 2790.55 1701.85Z" />
					<path id="Layer" class="shp78" d="M2912.76 1967.29C2931.87 1915 2924.94 1851.84 2924.86 1851.21L2919.6 1851.82C2919.67 1852.44 2926.45 1914.38 2907.78 1965.47L2912.76 1967.29Z" />
					<path id="Layer" class="shp79" d="M2780.25 2366.26C2781.42 2366.26 2782.5 2365.47 2782.81 2364.28C2788.64 2341.79 2832.29 2317.08 2832.73 2316.83C2834.01 2316.12 2834.46 2314.5 2833.75 2313.23C2833.03 2311.95 2831.42 2311.49 2830.14 2312.21C2828.26 2313.26 2784.07 2338.28 2777.68 2362.95C2777.31 2364.36 2778.16 2365.81 2779.58 2366.18C2779.8 2366.24 2780.03 2366.26 2780.25 2366.26Z" />
					<path id="Layer" class="shp80" d="M2406.77 1792.13C2481.19 1819.33 2639.76 1761.91 2639.76 1761.91L2650.67 1891.47C2523.69 1931.62 2441.05 1919.93 2387.32 1886.24C2383.98 1847.94 2395.49 1814.61 2406.77 1792.13Z" />
					<path id="Layer" class="shp81" d="M2288.29 1658.41L2319.43 1652.25C2319.43 1652.25 2327.92 1751.34 2397.29 1787.97C2400.26 1789.54 2403.44 1790.91 2406.77 1792.13C2395.49 1814.61 2383.98 1847.94 2387.32 1886.24C2278.13 1817.77 2288.29 1658.41 2288.29 1658.41Z" />
					<path id="Layer" class="shp82" d="M2317.85 1660.88L2319.43 1652.25C2319.43 1652.25 2325.93 1631.15 2308.74 1610.38C2283.91 1580.36 2265.73 1591.4 2265.73 1591.4C2265.73 1591.4 2267.02 1597.82 2266.93 1603.51C2266.86 1608.11 2261.35 1610.43 2257.97 1607.32L2217.43 1570.08C2217.43 1570.08 2206.08 1629.23 2293.01 1669.9L2317.85 1660.88Z" />
				</g>
			</g>
		</g>
	</g>
</svg>