<svg xmlns="http://www.w3.org/2000/svg" viewBox="0 0 2960 2952" width="460" height="459">
	<defs>
		<clipPath clipPathUnits="userSpaceOnUse" id="cp1">
			<path d="M-376 -377L3334 -377L3334 3333L-376 3333L-376 -377Z" />
		</clipPath>
		<clipPath clipPathUnits="userSpaceOnUse" id="cp2">
			<path d="M-376 -377L-376 3333L3334 3333L3334 -377L-376 -377Z" />
		</clipPath>
		<linearGradient id="grd1" gradientUnits="userSpaceOnUse"  x1="3245.09" y1="3717.65" x2="739.42" y2="605.77">
			<stop offset="0" stop-color="#e8d7ff"  />
			<stop offset="100" stop-color="#fddff8"  />
		</linearGradient>
		<linearGradient id="grd2" gradientUnits="userSpaceOnUse"  x1="3081.64" y1="1730.62" x2="2170.31" y2="2107.637">
			<stop offset="0" stop-color="#a737d5"  />
			<stop offset="100" stop-color="#ef497a"  />
		</linearGradient>
		<linearGradient id="grd3" gradientUnits="userSpaceOnUse"  x1="3081.64" y1="1730.62" x2="2170.31" y2="2107.637">
			<stop offset="0" stop-color="#ce77e9"  />
			<stop offset="100" stop-color="#f788b0"  />
		</linearGradient>
		<linearGradient id="grd4" gradientUnits="userSpaceOnUse"  x1="841.42" y1="1671.66" x2="409.55" y2="1989.29">
			<stop offset="0" stop-color="#a737d5"  />
			<stop offset="100" stop-color="#ef497a"  />
		</linearGradient>
		<linearGradient id="grd5" gradientUnits="userSpaceOnUse"  x1="841.42" y1="1671.66" x2="409.55" y2="1989.29">
			<stop offset="0" stop-color="#cf91e8"  />
			<stop offset="100" stop-color="#f69bb6"  />
		</linearGradient>
		<linearGradient id="grd6" gradientUnits="userSpaceOnUse"  x1="1267.95" y1="2464.26" x2="547.893" y2="698.96">
			<stop offset="0" stop-color="#ce1567"  />
			<stop offset="100" stop-color="#7a1dbc"  />
		</linearGradient>
		<linearGradient id="grd7" gradientUnits="userSpaceOnUse"  x1="1267.95" y1="2464.26" x2="547.893" y2="698.96">
			<stop offset="0" stop-color="#e37aa9"  />
			<stop offset="100" stop-color="#b37ed9"  />
		</linearGradient>
		<linearGradient id="grd8" gradientUnits="userSpaceOnUse"  x1="1824.5" y1="2565.56" x2="1829.376" y2="55.58">
			<stop offset="0" stop-color="#2b3582"  />
			<stop offset="100" stop-color="#150e42"  />
		</linearGradient>
		<linearGradient id="grd9" gradientUnits="userSpaceOnUse"  x1="2852.91" y1="3036.56" x2="1281.71" y2="828.14">
			<stop offset="0" stop-color="#a737d5"  />
			<stop offset="100" stop-color="#ef497a"  />
		</linearGradient>
		<linearGradient id="grd10" gradientUnits="userSpaceOnUse"  x1="2852.91" y1="3036.56" x2="1281.71" y2="828.14">
			<stop offset="0" stop-color="#dcafee"  />
			<stop offset="100" stop-color="#f9b6ca"  />
		</linearGradient>
		<linearGradient id="grd11" gradientUnits="userSpaceOnUse"  x1="2852.91" y1="3036.56" x2="1281.71" y2="828.14">
			<stop offset="0" stop-color="#f7edfb"  />
			<stop offset="100" stop-color="#feeff3"  />
		</linearGradient>
		<linearGradient id="grd12" gradientUnits="userSpaceOnUse"  x1="1993.62" y1="742.01" x2="2650.36" y2="1673.345">
			<stop offset="0" stop-color="#cb236d"  />
			<stop offset="100" stop-color="#4c246d"  />
		</linearGradient>
		<linearGradient id="grd13" gradientUnits="userSpaceOnUse"  x1="1886.77" y1="817.33" x2="2543.535" y2="1748.7">
			<stop offset="0" stop-color="#cb236d"  />
			<stop offset="100" stop-color="#4c246d"  />
		</linearGradient>
		<linearGradient id="grd14" gradientUnits="userSpaceOnUse"  x1="2852.91" y1="3036.56" x2="1281.71" y2="828.14">
			<stop offset="0" stop-color="#f1dff8"  />
			<stop offset="100" stop-color="#fde2ea"  />
		</linearGradient>
		<linearGradient id="grd15" gradientUnits="userSpaceOnUse"  x1="2852.91" y1="3036.56" x2="1281.71" y2="828.14">
			<stop offset="0" stop-color="#f1dff8"  />
			<stop offset="100" stop-color="#fde2ea"  />
		</linearGradient>
		<linearGradient id="grd16" gradientUnits="userSpaceOnUse"  x1="2852.91" y1="3036.56" x2="1281.71" y2="828.14">
			<stop offset="0" stop-color="#f1dff8"  />
			<stop offset="100" stop-color="#fde2ea"  />
		</linearGradient>
		<linearGradient id="grd17" gradientUnits="userSpaceOnUse"  x1="2852.91" y1="3036.56" x2="1281.71" y2="828.14">
			<stop offset="0" stop-color="#f1dff8"  />
			<stop offset="100" stop-color="#fde2ea"  />
		</linearGradient>
		<linearGradient id="grd18" gradientUnits="userSpaceOnUse"  x1="2852.91" y1="3036.56" x2="1281.71" y2="828.14">
			<stop offset="0" stop-color="#f1dff8"  />
			<stop offset="100" stop-color="#fde2ea"  />
		</linearGradient>
		<linearGradient id="grd19" gradientUnits="userSpaceOnUse"  x1="2852.91" y1="3036.56" x2="1281.71" y2="828.14">
			<stop offset="0" stop-color="#f1dff8"  />
			<stop offset="100" stop-color="#fde2ea"  />
		</linearGradient>
		<linearGradient id="grd20" gradientUnits="userSpaceOnUse"  x1="2852.91" y1="3036.56" x2="1281.71" y2="828.14">
			<stop offset="0" stop-color="#f1dff8"  />
			<stop offset="100" stop-color="#fde2ea"  />
		</linearGradient>
		<linearGradient id="grd21" gradientUnits="userSpaceOnUse"  x1="2852.91" y1="3036.56" x2="1281.71" y2="828.14">
			<stop offset="0" stop-color="#f1dff8"  />
			<stop offset="100" stop-color="#fde2ea"  />
		</linearGradient>
		<linearGradient id="grd22" gradientUnits="userSpaceOnUse"  x1="2852.91" y1="3036.56" x2="1281.71" y2="828.14">
			<stop offset="0" stop-color="#e5c3f2"  />
			<stop offset="100" stop-color="#fbc8d7"  />
		</linearGradient>
		<linearGradient id="grd23" gradientUnits="userSpaceOnUse"  x1="2852.91" y1="3036.56" x2="1281.71" y2="828.14">
			<stop offset="0" stop-color="#f1dff8"  />
			<stop offset="100" stop-color="#fde2ea"  />
		</linearGradient>
		<linearGradient id="grd24" gradientUnits="userSpaceOnUse"  x1="2852.91" y1="3036.56" x2="1281.71" y2="828.14">
			<stop offset="0" stop-color="#e5c3f2"  />
			<stop offset="100" stop-color="#fbc8d7"  />
		</linearGradient>
		<linearGradient id="grd25" gradientUnits="userSpaceOnUse"  x1="2852.91" y1="3036.56" x2="1281.71" y2="828.14">
			<stop offset="0" stop-color="#f1dff8"  />
			<stop offset="100" stop-color="#fde2ea"  />
		</linearGradient>
		<linearGradient id="grd26" gradientUnits="userSpaceOnUse"  x1="2852.91" y1="3036.56" x2="1281.71" y2="828.14">
			<stop offset="0" stop-color="#f1dff8"  />
			<stop offset="100" stop-color="#fde2ea"  />
		</linearGradient>
		<linearGradient id="grd27" gradientUnits="userSpaceOnUse"  x1="2852.91" y1="3036.56" x2="1281.71" y2="828.14">
			<stop offset="0" stop-color="#f1dff8"  />
			<stop offset="100" stop-color="#fde2ea"  />
		</linearGradient>
		<linearGradient id="grd28" gradientUnits="userSpaceOnUse"  x1="2852.91" y1="3036.56" x2="1281.71" y2="828.14">
			<stop offset="0" stop-color="#f1dff8"  />
			<stop offset="100" stop-color="#fde2ea"  />
		</linearGradient>
		<linearGradient id="grd29" gradientUnits="userSpaceOnUse"  x1="2025.73" y1="37.062" x2="1399.481" y2="900.901">
			<stop offset="0" stop-color="#2b3582"  />
			<stop offset="100" stop-color="#150e42"  />
		</linearGradient>
		<linearGradient id="grd30" gradientUnits="userSpaceOnUse"  x1="1516.09" y1="121.444" x2="2133.605" y2="896.594">
			<stop offset="0" stop-color="#2b3582"  />
			<stop offset="100" stop-color="#150e42"  />
		</linearGradient>
		<linearGradient id="grd31" gradientUnits="userSpaceOnUse"  x1="1815.6" y1="673.27" x2="1796.106" y2="-199.137">
			<stop offset="0" stop-color="#2b3582"  />
			<stop offset="100" stop-color="#150e42"  />
		</linearGradient>
		<linearGradient id="grd32" gradientUnits="userSpaceOnUse"  x1="1548.92" y1="1769" x2="1412.57" y2="2173.788">
			<stop offset="0" stop-color="#53d8ff"  />
			<stop offset="100" stop-color="#3840f7"  />
		</linearGradient>
		<linearGradient id="grd33" gradientUnits="userSpaceOnUse"  x1="1698.53" y1="2777.7" x2="1768.282" y2="2338.937">
			<stop offset="0" stop-color="#fdf53f"  />
			<stop offset="100" stop-color="#d93c65"  />
		</linearGradient>
		<linearGradient id="grd34" gradientUnits="userSpaceOnUse"  x1="1725.51" y1="2780.3" x2="1798.125" y2="2323.533">
			<stop offset="0" stop-color="#fdf53f"  />
			<stop offset="100" stop-color="#d93c65"  />
		</linearGradient>
		<linearGradient id="grd35" gradientUnits="userSpaceOnUse"  x1="1672.61" y1="2773.58" x2="1742.362" y2="2334.817">
			<stop offset="0" stop-color="#fdf53f"  />
			<stop offset="100" stop-color="#d93c65"  />
		</linearGradient>
		<linearGradient id="grd36" gradientUnits="userSpaceOnUse"  x1="1312.23" y1="2498.34" x2="1541.697" y2="2498.34">
			<stop offset="0" stop-color="#f9b776"  />
			<stop offset="100" stop-color="#f47960"  />
		</linearGradient>
		<linearGradient id="grd37" gradientUnits="userSpaceOnUse"  x1="-4277.74" y1="6434.75" x2="-3510.178" y2="5945.365">
			<stop offset="0" stop-color="#53d8ff"  />
			<stop offset="100" stop-color="#3840f7"  />
		</linearGradient>
		<linearGradient id="grd38" gradientUnits="userSpaceOnUse"  x1="1362.21" y1="2594.38" x2="1065.716" y2="2084.41">
			<stop offset="0" stop-color="#f9b776"  />
			<stop offset="100" stop-color="#f47960"  />
		</linearGradient>
		<linearGradient id="grd39" gradientUnits="userSpaceOnUse"  x1="1552.66" y1="2081.87" x2="2009.258" y2="2686.715">
			<stop offset="0" stop-color="#2b3582"  />
			<stop offset="100" stop-color="#150e42"  />
		</linearGradient>
		<linearGradient id="grd40" gradientUnits="userSpaceOnUse"  x1="-4348.24" y1="6324.2" x2="-3580.677" y2="5834.815">
			<stop offset="0" stop-color="#53d8ff"  />
			<stop offset="100" stop-color="#3840f7"  />
		</linearGradient>
		<linearGradient id="grd41" gradientUnits="userSpaceOnUse"  x1="1722.5" y1="1992.27" x2="1979.797" y2="2552.269">
			<stop offset="0" stop-color="#fdf53f"  />
			<stop offset="100" stop-color="#d93c65"  />
		</linearGradient>
		<linearGradient id="grd42" gradientUnits="userSpaceOnUse"  x1="1645.98" y1="1849.43" x2="1621.76" y2="1694.02">
			<stop offset="0" stop-color="#f9b776"  />
			<stop offset="100" stop-color="#f47960"  />
		</linearGradient>
		<linearGradient id="grd43" gradientUnits="userSpaceOnUse"  x1="1503.74" y1="1624.49" x2="1732.378" y2="1662.896">
			<stop offset="0" stop-color="#f9b776"  />
			<stop offset="100" stop-color="#f47960"  />
		</linearGradient>
		<linearGradient id="grd44" gradientUnits="userSpaceOnUse"  x1="1705.86" y1="1262.47" x2="1553.091" y2="1700.795">
			<stop offset="0" stop-color="#2b3582"  />
			<stop offset="100" stop-color="#150e42"  />
		</linearGradient>
		<linearGradient id="grd45" gradientUnits="userSpaceOnUse"  x1="1507.13" y1="1604.31" x2="1735.767" y2="1642.716">
			<stop offset="0" stop-color="#f9b776"  />
			<stop offset="100" stop-color="#f47960"  />
		</linearGradient>
		<linearGradient id="grd46" gradientUnits="userSpaceOnUse"  x1="1785.03" y1="2118.52" x2="2239.898" y2="2118.52">
			<stop offset="0" stop-color="#f9b776"  />
			<stop offset="100" stop-color="#f47960"  />
		</linearGradient>
		<linearGradient id="grd47" gradientUnits="userSpaceOnUse"  x1="1893.12" y1="1327.73" x2="1740.352" y2="1766.052">
			<stop offset="0" stop-color="#2b3582"  />
			<stop offset="100" stop-color="#150e42"  />
		</linearGradient>
		<linearGradient id="grd48" gradientUnits="userSpaceOnUse"  x1="531.437" y1="2504.93" x2="830.428" y2="2504.93">
			<stop offset="0" stop-color="#18459f"  />
			<stop offset="100" stop-color="#2874b5"  />
		</linearGradient>
		<linearGradient id="grd49" gradientUnits="userSpaceOnUse"  x1="565.965" y1="2504.93" x2="864.956" y2="2504.93">
			<stop offset="0" stop-color="#18459f"  />
			<stop offset="100" stop-color="#2874b5"  />
		</linearGradient>
		<linearGradient id="grd50" gradientUnits="userSpaceOnUse"  x1="1654.38" y1="2504.93" x2="1953.37" y2="2504.93">
			<stop offset="0" stop-color="#18459f"  />
			<stop offset="100" stop-color="#2874b5"  />
		</linearGradient>
		<linearGradient id="grd51" gradientUnits="userSpaceOnUse"  x1="1688.91" y1="2504.93" x2="1987.9" y2="2504.93">
			<stop offset="0" stop-color="#18459f"  />
			<stop offset="100" stop-color="#2874b5"  />
		</linearGradient>
		<linearGradient id="grd52" gradientUnits="userSpaceOnUse"  x1="444.447" y1="2196.39" x2="2062.517" y2="2196.39">
			<stop offset="0" stop-color="#18459f"  />
			<stop offset="100" stop-color="#2874b5"  />
		</linearGradient>
		<linearGradient id="grd53" gradientUnits="userSpaceOnUse"  x1="502.698" y1="3071.3" x2="147.251" y2="2417.07">
			<stop offset="0" stop-color="#fdf53f"  />
			<stop offset="100" stop-color="#d93c65"  />
		</linearGradient>
		<linearGradient id="grd54" gradientUnits="userSpaceOnUse"  x1="754.59" y1="2934.45" x2="399.143" y2="2280.22">
			<stop offset="0" stop-color="#fdf53f"  />
			<stop offset="100" stop-color="#d93c65"  />
		</linearGradient>
		<linearGradient id="grd55" gradientUnits="userSpaceOnUse"  x1="730.91" y1="2947.31" x2="375.463" y2="2293.08">
			<stop offset="0" stop-color="#fdf53f"  />
			<stop offset="100" stop-color="#d93c65"  />
		</linearGradient>
		<linearGradient id="grd56" gradientUnits="userSpaceOnUse"  x1="667.72" y1="2790.76" x2="876.088" y2="2790.76">
			<stop offset="0" stop-color="#cb236d"  />
			<stop offset="100" stop-color="#4c246d"  />
		</linearGradient>
		<linearGradient id="grd57" gradientUnits="userSpaceOnUse"  x1="828.26" y1="2390.09" x2="771.328" y2="2783.437">
			<stop offset="0" stop-color="#2b3582"  />
			<stop offset="100" stop-color="#150e42"  />
		</linearGradient>
		<linearGradient id="grd58" gradientUnits="userSpaceOnUse"  x1="678.13" y1="2727.97" x2="734.508" y2="2727.97">
			<stop offset="0" stop-color="#f9b776"  />
			<stop offset="100" stop-color="#f47960"  />
		</linearGradient>
		<linearGradient id="grd59" gradientUnits="userSpaceOnUse"  x1="994.54" y1="2749.46" x2="1162.773" y2="2749.46">
			<stop offset="0" stop-color="#cb236d"  />
			<stop offset="100" stop-color="#4c246d"  />
		</linearGradient>
		<linearGradient id="grd60" gradientUnits="userSpaceOnUse"  x1="1110.26" y1="2430.9" x2="1053.328" y2="2824.247">
			<stop offset="0" stop-color="#2b3582"  />
			<stop offset="100" stop-color="#150e42"  />
		</linearGradient>
		<linearGradient id="grd61" gradientUnits="userSpaceOnUse"  x1="366.39" y1="2473.57" x2="812.685" y2="2473.57">
			<stop offset="0" stop-color="#2b3582"  />
			<stop offset="100" stop-color="#150e42"  />
		</linearGradient>
		<linearGradient id="grd62" gradientUnits="userSpaceOnUse"  x1="945.16" y1="2732.71" x2="1012.467" y2="2732.71">
			<stop offset="0" stop-color="#f9b776"  />
			<stop offset="100" stop-color="#f47960"  />
		</linearGradient>
		<linearGradient id="grd63" gradientUnits="userSpaceOnUse"  x1="771.78" y1="2287.63" x2="281.822" y2="2843.146">
			<stop offset="0" stop-color="#2b3582"  />
			<stop offset="100" stop-color="#150e42"  />
		</linearGradient>
		<linearGradient id="grd64" gradientUnits="userSpaceOnUse"  x1="63.084" y1="1504.58" x2="590.842" y2="2358.48">
			<stop offset="0" stop-color="#53d8ff"  />
			<stop offset="100" stop-color="#3840f7"  />
		</linearGradient>
		<linearGradient id="grd65" gradientUnits="userSpaceOnUse"  x1="378.868" y1="1660.05" x2="499.313" y2="1660.05">
			<stop offset="0" stop-color="#f9b776"  />
			<stop offset="100" stop-color="#f47960"  />
		</linearGradient>
		<linearGradient id="grd66" gradientUnits="userSpaceOnUse"  x1="542.825" y1="1511.02" x2="461.131" y2="1783.712">
			<stop offset="0" stop-color="#f9b776"  />
			<stop offset="100" stop-color="#f47960"  />
		</linearGradient>
		<linearGradient id="grd67" gradientUnits="userSpaceOnUse"  x1="439.059" y1="1608.08" x2="631.235" y2="1536.578">
			<stop offset="0" stop-color="#2b3582"  />
			<stop offset="100" stop-color="#150e42"  />
		</linearGradient>
		<linearGradient id="grd68" gradientUnits="userSpaceOnUse"  x1="369.907" y1="1767.24" x2="449.689" y2="1586.837">
			<stop offset="0" stop-color="#f9b776"  />
			<stop offset="100" stop-color="#f47960"  />
		</linearGradient>
		<linearGradient id="grd69" gradientUnits="userSpaceOnUse"  x1="138.926" y1="1457.7" x2="666.684" y2="2311.6">
			<stop offset="0" stop-color="#53d8ff"  />
			<stop offset="100" stop-color="#3840f7"  />
		</linearGradient>
		<linearGradient id="grd70" gradientUnits="userSpaceOnUse"  x1="191.31" y1="2106.63" x2="509.529" y2="1908.439">
			<stop offset="0" stop-color="#53d8ff"  />
			<stop offset="100" stop-color="#3840f7"  />
		</linearGradient>
		<linearGradient id="grd71" gradientUnits="userSpaceOnUse"  x1="191.588" y1="2107.07" x2="509.797" y2="1908.885">
			<stop offset="0" stop-color="#53d8ff"  />
			<stop offset="100" stop-color="#3840f7"  />
		</linearGradient>
		<linearGradient id="grd72" gradientUnits="userSpaceOnUse"  x1="942.79" y1="1859.69" x2="686.836" y2="2083.086">
			<stop offset="0" stop-color="#f9b776"  />
			<stop offset="100" stop-color="#f47960"  />
		</linearGradient>
		<linearGradient id="grd73" gradientUnits="userSpaceOnUse"  x1="900.9" y1="1709.48" x2="1974.42" y2="-83">
			<stop offset="0" stop-color="#53d8ff"  />
			<stop offset="100" stop-color="#3840f7"  />
		</linearGradient>
		<linearGradient id="grd74" gradientUnits="userSpaceOnUse"  x1="1070.82" y1="1811.25" x2="2144.34" y2="18.77">
			<stop offset="0" stop-color="#53d8ff"  />
			<stop offset="100" stop-color="#3840f7"  />
		</linearGradient>
		<linearGradient id="grd75" gradientUnits="userSpaceOnUse"  x1="860.51" y1="1685.29" x2="1934.03" y2="-107.19">
			<stop offset="0" stop-color="#53d8ff"  />
			<stop offset="100" stop-color="#3840f7"  />
		</linearGradient>
		<linearGradient id="grd76" gradientUnits="userSpaceOnUse"  x1="1053.26" y1="1800.73" x2="2126.78" y2="8.25">
			<stop offset="0" stop-color="#53d8ff"  />
			<stop offset="100" stop-color="#3840f7"  />
		</linearGradient>
		<linearGradient id="grd77" gradientUnits="userSpaceOnUse"  x1="932.21" y1="1728.24" x2="2005.73" y2="-64.24">
			<stop offset="0" stop-color="#53d8ff"  />
			<stop offset="100" stop-color="#3840f7"  />
		</linearGradient>
		<linearGradient id="grd78" gradientUnits="userSpaceOnUse"  x1="1097.91" y1="1827.47" x2="2171.43" y2="34.99">
			<stop offset="0" stop-color="#53d8ff"  />
			<stop offset="100" stop-color="#3840f7"  />
		</linearGradient>
	</defs>
	<style>
		tspan { white-space:pre }
		.shp0 { fill: url(#grd1) } 
		.shp1 { fill: url(#grd2) } 
		.shp2 { fill: url(#grd3) } 
		.shp3 { fill: url(#grd4) } 
		.shp4 { fill: url(#grd5) } 
		.shp5 { fill: url(#grd6) } 
		.shp6 { fill: url(#grd7) } 
		.shp7 { fill: url(#grd8) } 
		.shp8 { fill: url(#grd9) } 
		.shp9 { fill: url(#grd10) } 
		.shp10 { fill: url(#grd11) } 
		.shp11 { fill: url(#grd12) } 
		.shp12 { fill: url(#grd13) } 
		.shp13 { fill: url(#grd14) } 
		.shp14 { fill: url(#grd15) } 
		.shp15 { fill: url(#grd16) } 
		.shp16 { fill: url(#grd17) } 
		.shp17 { fill: url(#grd18) } 
		.shp18 { fill: url(#grd19) } 
		.shp19 { fill: url(#grd20) } 
		.shp20 { fill: url(#grd21) } 
		.shp21 { fill: url(#grd22) } 
		.shp22 { fill: url(#grd23) } 
		.shp23 { fill: url(#grd24) } 
		.shp24 { fill: url(#grd25) } 
		.shp25 { fill: url(#grd26) } 
		.shp26 { fill: url(#grd27) } 
		.shp27 { fill: url(#grd28) } 
		.shp28 { fill: url(#grd29) } 
		.shp29 { fill: #ffffff } 
		.shp30 { fill: url(#grd30) } 
		.shp31 { fill: url(#grd31) } 
		.shp32 { fill: url(#grd32) } 
		.shp33 { fill: url(#grd33) } 
		.shp34 { fill: url(#grd34) } 
		.shp35 { fill: url(#grd35) } 
		.shp36 { fill: url(#grd36) } 
		.shp37 { fill: url(#grd37) } 
		.shp38 { fill: url(#grd38) } 
		.shp39 { fill: url(#grd39) } 
		.shp40 { fill: url(#grd40) } 
		.shp41 { fill: url(#grd41) } 
		.shp42 { fill: url(#grd42) } 
		.shp43 { fill: url(#grd43) } 
		.shp44 { fill: url(#grd44) } 
		.shp45 { fill: url(#grd45) } 
		.shp46 { fill: url(#grd46) } 
		.shp47 { fill: url(#grd47) } 
		.shp48 { fill: url(#grd48) } 
		.shp49 { fill: url(#grd49) } 
		.shp50 { fill: url(#grd50) } 
		.shp51 { fill: url(#grd51) } 
		.shp52 { fill: url(#grd52) } 
		.shp53 { fill: url(#grd53) } 
		.shp54 { fill: url(#grd54) } 
		.shp55 { fill: url(#grd55) } 
		.shp56 { fill: url(#grd56) } 
		.shp57 { fill: url(#grd57) } 
		.shp58 { fill: url(#grd58) } 
		.shp59 { fill: url(#grd59) } 
		.shp60 { fill: url(#grd60) } 
		.shp61 { fill: url(#grd61) } 
		.shp62 { fill: url(#grd62) } 
		.shp63 { fill: url(#grd63) } 
		.shp64 { fill: url(#grd64) } 
		.shp65 { fill: url(#grd65) } 
		.shp66 { fill: url(#grd66) } 
		.shp67 { fill: url(#grd67) } 
		.shp68 { fill: url(#grd68) } 
		.shp69 { fill: url(#grd69) } 
		.shp70 { fill: url(#grd70) } 
		.shp71 { fill: url(#grd71) } 
		.shp72 { fill: url(#grd72) } 
		.shp73 { fill: url(#grd73) } 
		.shp74 { fill: url(#grd74) } 
		.shp75 { fill: url(#grd75) } 
		.shp76 { fill: url(#grd76) } 
		.shp77 { fill: url(#grd77) } 
		.shp78 { fill: url(#grd78) } 
	</style>
	<g id="Clip-Path" clip-path="url(#cp1)">
		<g id="Layer">
			<g id="Clip-Path" clip-path="url(#cp2)">
				<g id="Layer">
					<path id="Layer" fill-rule="evenodd" class="shp0" d="M1521.07 2878C1349.63 2878 1218.67 2854.37 1166.43 2843.91C977 2805.98 610.83 2732.66 346.09 2425.75C-54.43 1961.41 7.93 1229.87 318.61 746.96C375.43 658.63 675.61 168.37 1285.72 89.75C1346.28 81.94 1408.54 78 1471.59 78C1792.99 78 2136.47 180.35 2397.04 395.57C2440.01 431.05 2479.94 468.9 2516.95 508.81C2502.89 504.56 2488 502.28 2472.59 502.28C2471.41 502.28 2470.23 502.29 2469.05 502.32L1165.52 531.85C1093.61 533.48 1035.58 591.18 1033.56 663.08L1018.42 1199.43C883.9 968.54 826.84 610.18 808.63 467.86C807.53 459.3 800.54 454.69 793.52 454.69C787.73 454.69 781.92 457.84 779.42 464.52C617.59 896.38 571.8 1236.96 591.38 1504.12C476.01 1323.93 377.73 1142.46 355.13 1012.41C354.17 1006.89 349.8 1004.32 344.87 1004.32C338.6 1004.32 331.43 1008.48 329.27 1015.99C287.94 1159.77 213.6 1521.56 371.13 1892.37C515.8 2232.9 819.41 2409.07 982.21 2482.27L980.15 2555.13C978.57 2611.25 1023.64 2657.55 1079.72 2657.55C1079.87 2657.55 1080.02 2657.55 1080.17 2657.55L2351.87 2651.86C2064.8 2833.88 1755.22 2878 1521.07 2878ZM2887.73 1666.71C2876.72 1468.18 2844.28 1299.95 2861.67 1212.52C2890.84 1363.52 2898.81 1517.65 2887.73 1666.71ZM2643.92 1451.95L2625.8 652.13C2625.73 649.01 2625.57 645.92 2625.32 642.86C2742.26 809.15 2818.39 999.71 2858.4 1196.07C2856.13 1194.54 2853.29 1193.66 2850.37 1193.66C2847.4 1193.66 2844.36 1194.57 2841.78 1196.66C2792.13 1236.93 2704.44 1321.05 2643.92 1451.95Z" />
					<path id="Layer" class="shp1" d="M2667.18 2478.22L2665.74 2414.79C2672.86 2403.11 2679.73 2391.32 2686.02 2379.3C2692.94 2366.71 2699.03 2353.68 2704.82 2340.61C2727.98 2288.18 2739.65 2232.25 2743.6 2176.79C2747.61 2121.23 2745.08 2066.06 2742.94 2011.28C2740.43 1956.48 2738.16 1901.9 2738.61 1847.27C2738.77 1792.63 2741.63 1738.02 2745.66 1683.47C2749.94 1628.93 2756.2 1574.48 2764.36 1520.21C2772.2 1465.9 2782.34 1411.84 2793.72 1357.94C2794.03 1356.45 2792.93 1355 2791.21 1354.66C2790.97 1354.61 2790.72 1354.58 2790.48 1354.58C2788.98 1354.58 2787.62 1355.48 2787.27 1356.79C2773.1 1410.32 2761.31 1464.32 2751.19 1518.58C2741.36 1572.88 2733.53 1627.46 2727.63 1682.23C2726.18 1695.93 2724.86 1709.63 2723.63 1723.35C2722.55 1737.07 2721.45 1750.79 2720.65 1764.53C2718.87 1792 2717.66 1819.51 2717.02 1847.02C2715.58 1902.06 2716.76 1957.14 2718.37 2011.94C2720.06 2066.73 2722.03 2121.36 2717.66 2175.29C2715.48 2202.24 2711.53 2228.97 2705.26 2255.25C2698.96 2281.53 2690.33 2307.31 2679.54 2332.46C2674.87 2342.98 2669.88 2353.42 2664.58 2363.75L2643.92 1451.95C2704.44 1321.05 2792.13 1236.93 2841.78 1196.66C2844.36 1194.57 2847.4 1193.66 2850.37 1193.66C2853.29 1193.66 2856.13 1194.54 2858.4 1196.07C2861.86 1198.4 2863.97 1202.23 2862.92 1206.71C2862.48 1208.6 2862.06 1210.54 2861.67 1212.52C2844.28 1299.95 2876.72 1468.18 2887.73 1666.71C2900.78 1901.89 2883.75 2179.58 2718.22 2415.81C2702.22 2438.64 2685.01 2459.39 2667.18 2478.22Z" />
					<path id="Layer" class="shp2" d="M2665.74 2414.79L2664.58 2363.75C2669.88 2353.42 2674.87 2342.98 2679.54 2332.46C2690.33 2307.31 2698.96 2281.53 2705.26 2255.25C2711.53 2228.97 2715.48 2202.24 2717.66 2175.29C2722.03 2121.36 2720.06 2066.73 2718.37 2011.94C2716.76 1957.14 2715.58 1902.06 2717.02 1847.02C2717.66 1819.51 2718.87 1792 2720.65 1764.53C2721.45 1750.79 2722.55 1737.07 2723.63 1723.35C2724.86 1709.63 2726.18 1695.93 2727.63 1682.23C2733.53 1627.46 2741.36 1572.88 2751.19 1518.58C2761.31 1464.32 2773.1 1410.32 2787.27 1356.79C2787.62 1355.48 2788.98 1354.58 2790.48 1354.58C2790.72 1354.58 2790.97 1354.61 2791.21 1354.66C2792.93 1355 2794.03 1356.45 2793.72 1357.94C2782.34 1411.84 2772.2 1465.9 2764.36 1520.21C2756.2 1574.48 2749.94 1628.93 2745.66 1683.47C2741.63 1738.02 2738.77 1792.63 2738.61 1847.27C2738.16 1901.9 2740.43 1956.48 2742.94 2011.28C2745.08 2066.06 2747.61 2121.23 2743.6 2176.79C2739.65 2232.25 2727.98 2288.18 2704.82 2340.61C2699.03 2353.68 2692.94 2366.71 2686.02 2379.3C2679.73 2391.32 2672.86 2403.11 2665.74 2414.79Z" />
					<path id="Layer" class="shp3" d="M982.21 2482.27C819.41 2409.07 515.8 2232.9 371.13 1892.37C213.6 1521.56 287.94 1159.77 329.27 1015.99C331.43 1008.48 338.6 1004.32 344.87 1004.32C349.8 1004.32 354.17 1006.89 355.13 1012.41C377.73 1142.46 476.01 1323.93 591.38 1504.12C623.2 1938.21 827.63 2178.47 987.31 2301.67L985.2 2376.35C973.42 2358.93 960.94 2342.01 948.18 2325.33C930.29 2301.9 911.45 2279.28 892.61 2256.68C873.73 2234.12 854.66 2211.74 835.63 2189.35L778.69 2122.09C759.73 2099.66 740.9 2077.13 722.22 2054.49C685 2009.09 648.21 1963.35 612.49 1916.78C576.75 1870.15 541.4 1823.55 511.31 1773.39C503.83 1760.84 496.26 1748.34 489.31 1735.49C482.01 1722.83 475.42 1709.79 468.66 1696.84C455.64 1670.69 443.4 1644.13 432.55 1616.98C410.78 1562.76 393.57 1506.56 382.79 1449.01C372.01 1391.57 365.99 1332.69 370.97 1274.11C370.98 1274 370.9 1273.89 370.79 1273.87C370.78 1273.87 370.77 1273.87 370.76 1273.87C370.66 1273.87 370.57 1273.95 370.55 1274.05C366.25 1303.2 365.99 1332.79 367.04 1362.23C368.38 1391.67 371.27 1421.08 376.07 1450.2C385.67 1508.46 401.78 1565.58 422.59 1620.88C433.05 1648.53 445.21 1675.5 458.02 1702.13C471.09 1728.64 485.18 1754.65 500.44 1779.96C504.1 1786.39 508.2 1792.54 512.1 1798.82C516.07 1805.04 519.9 1811.37 523.99 1817.52L536.38 1835.9L542.57 1845.09L549.04 1854.08L562 1872.06C566.32 1878.05 570.83 1883.84 575.24 1889.74C584.07 1901.51 593.02 1913.2 601.99 1924.86C673.67 2018.25 749.61 2108.31 827.34 2196.5C866.02 2240.76 904.89 2284.82 941.72 2330.42C956.69 2349.02 971.29 2367.93 984.89 2387.52L982.21 2482.27Z" />
					<path id="Layer" class="shp4" d="M984.89 2387.52C971.29 2367.93 956.69 2349.02 941.72 2330.42C904.89 2284.82 866.02 2240.76 827.34 2196.5C749.61 2108.31 673.67 2018.25 601.99 1924.86C593.02 1913.2 584.07 1901.51 575.24 1889.74C570.83 1883.84 566.32 1878.05 562 1872.06L549.04 1854.08L542.57 1845.09L536.38 1835.9L523.99 1817.52C519.9 1811.37 516.07 1805.04 512.1 1798.82C508.2 1792.54 504.1 1786.39 500.44 1779.96C485.18 1754.65 471.09 1728.64 458.02 1702.13C445.21 1675.5 433.05 1648.53 422.59 1620.88C401.78 1565.58 385.67 1508.46 376.07 1450.2C371.27 1421.08 368.38 1391.67 367.04 1362.23C365.99 1332.79 366.25 1303.2 370.55 1274.05C370.57 1273.95 370.66 1273.87 370.76 1273.87C370.77 1273.87 370.78 1273.87 370.79 1273.87C370.9 1273.89 370.98 1274 370.97 1274.11C365.99 1332.69 372.01 1391.57 382.79 1449.01C393.57 1506.56 410.78 1562.76 432.55 1616.98C443.4 1644.13 455.64 1670.69 468.66 1696.84C475.42 1709.79 482.01 1722.83 489.31 1735.49C496.26 1748.34 503.83 1760.84 511.31 1773.39C541.4 1823.55 576.75 1870.15 612.49 1916.78C648.21 1963.35 685 2009.09 722.22 2054.49C740.9 2077.13 759.73 2099.66 778.69 2122.09L835.63 2189.35C854.66 2211.74 873.73 2234.12 892.61 2256.68C911.45 2279.28 930.29 2301.9 948.18 2325.33C960.94 2342.01 973.42 2358.93 985.2 2376.35L984.89 2387.52Z" />
					<path id="Layer" class="shp5" d="M987.31 2301.67C827.63 2178.47 623.2 1938.21 591.38 1504.12C571.8 1236.96 617.59 896.38 779.42 464.52C781.92 457.84 787.73 454.69 793.52 454.69C800.54 454.69 807.53 459.3 808.63 467.86C826.84 610.18 883.9 968.54 1018.42 1199.43L998.13 1918.12L996.64 1913.85L988.33 1890.06C985.53 1882.15 982.78 1874.21 980.29 1866.19L964.8 1818.23C959.74 1802.22 955.12 1786.06 950.25 1769.99C947.87 1761.93 945.38 1753.91 943.09 1745.83L936.41 1721.53L929.72 1697.23C927.46 1689.14 925.26 1681.03 923.25 1672.87C906.13 1607.88 891.6 1542.23 877.71 1476.48C850.43 1344.82 829.91 1211.81 813.57 1078.32C805.52 1011.55 798.77 944.62 793.28 877.59C790.5 844.08 788.02 810.53 785.95 776.97C784.97 760.18 784.03 743.39 783.28 726.59L782.28 701.4L781.93 688.8C781.88 684.65 781.74 680.3 781.87 676.48L781.89 676.1C781.92 675.18 781.21 674.4 780.29 674.34C780.25 674.34 780.22 674.34 780.18 674.34C779.29 674.34 778.54 675.04 778.48 675.94C778.21 680.53 778.33 684.59 778.29 688.85L778.45 701.49L779.04 726.75C779.53 743.58 780.2 760.41 780.91 777.23C782.44 810.87 784.38 844.49 786.63 878.09C791.24 945.29 797.6 1012.36 805 1079.31C812.34 1146.28 821.43 1213.05 831.88 1279.61L835.75 1304.57L839.96 1329.49C842.83 1346.09 845.4 1362.74 848.56 1379.29L857.67 1428.99L867.54 1478.56C894.55 1610.59 928.47 1741.33 971.55 1869.12C974.13 1877.14 976.97 1885.08 979.87 1893L988.46 1916.78L997.04 1940.56C997.18 1940.93 997.33 1941.31 997.47 1941.69L987.31 2301.67Z" />
					<path id="Layer" class="shp6" d="M997.47 1941.69C997.33 1941.31 997.18 1940.93 997.04 1940.56L988.46 1916.78L979.87 1893C976.97 1885.08 974.13 1877.14 971.55 1869.12C928.47 1741.33 894.55 1610.59 867.54 1478.56L857.67 1428.99L848.56 1379.29C845.4 1362.74 842.83 1346.09 839.96 1329.49L835.75 1304.57L831.88 1279.61C821.43 1213.05 812.34 1146.28 805 1079.31C797.6 1012.36 791.24 945.29 786.63 878.09C784.38 844.49 782.44 810.87 780.91 777.23C780.2 760.41 779.53 743.58 779.04 726.75L778.45 701.49L778.29 688.85C778.33 684.59 778.21 680.53 778.48 675.94C778.54 675.04 779.29 674.34 780.18 674.34C780.22 674.34 780.25 674.34 780.29 674.34C781.21 674.4 781.92 675.18 781.89 676.1L781.87 676.48C781.74 680.3 781.88 684.65 781.93 688.8L782.28 701.4L783.28 726.59C784.03 743.39 784.97 760.18 785.95 776.97C788.02 810.53 790.5 844.08 793.28 877.59C798.77 944.62 805.52 1011.55 813.57 1078.32C829.91 1211.81 850.43 1344.82 877.71 1476.48C891.6 1542.23 906.13 1607.88 923.25 1672.87C925.26 1681.03 927.46 1689.14 929.72 1697.23L936.41 1721.53L943.09 1745.83C945.38 1753.91 947.87 1761.93 950.25 1769.99C955.12 1786.06 959.74 1802.22 964.8 1818.23L980.29 1866.19C982.78 1874.21 985.53 1882.15 988.33 1890.06L996.64 1913.85L998.13 1918.12L997.47 1941.69Z" />
					<path id="Layer" fill-rule="evenodd" class="shp7" d="M1079.72 2657.55C1023.64 2657.55 978.57 2611.25 980.15 2555.13L982.21 2482.27L984.89 2387.52L985.2 2376.35L987.31 2301.67L997.47 1941.69L998.13 1918.12L1018.42 1199.43L1033.56 663.08C1035.58 591.18 1093.61 533.48 1165.52 531.85L2469.05 502.32C2470.23 502.29 2471.41 502.28 2472.59 502.28C2488 502.28 2502.89 504.56 2516.95 508.81C2575.86 526.63 2620.05 579.03 2625.32 642.86C2625.57 645.92 2625.73 649.01 2625.8 652.13L2643.92 1451.95L2664.58 2363.75L2665.74 2414.79L2667.18 2478.22L2668.9 2554.16C2670.09 2607.04 2627.68 2650.62 2574.79 2650.86L2351.87 2651.86L1080.17 2657.55C1080.02 2657.55 1079.87 2657.55 1079.72 2657.55ZM1168.03 597.76C1145.91 597.76 1127.53 615.27 1126.85 637.65L1068.97 2538.23C1068.17 2564.29 1088.55 2586.1 1114.61 2587.05C1244.87 2591.8 1623.4 2604.42 1969.24 2604.42C2189.3 2604.42 2396.09 2599.31 2517.38 2583.82C2536.37 2581.4 2550.45 2565.05 2550.13 2545.91L2516.68 551.76C2516.27 527.09 2496.07 507.94 2472.25 507.94C2469.92 507.94 2467.56 508.12 2465.18 508.5C2311 532.98 1830.02 603.01 1374 603.01C1305.12 603.01 1236.83 601.41 1170.31 597.82C1169.55 597.78 1168.79 597.76 1168.03 597.76Z" />
					<path id="Layer" fill-rule="evenodd" class="shp8" d="M1969.24 2604.42C1623.4 2604.42 1244.87 2591.8 1114.61 2587.05C1088.55 2586.1 1068.17 2564.29 1068.97 2538.23L1126.85 637.65C1127.53 615.27 1145.91 597.76 1168.03 597.76C1168.79 597.76 1169.55 597.78 1170.31 597.82C1236.83 601.41 1305.12 603.01 1374 603.01C1830.02 603.01 2311 532.98 2465.18 508.5C2467.56 508.12 2469.92 507.94 2472.25 507.94C2496.07 507.94 2516.27 527.09 2516.68 551.76L2550.13 2545.91C2550.45 2565.05 2536.37 2581.4 2517.38 2583.82C2396.09 2599.31 2189.3 2604.42 1969.24 2604.42ZM1198.93 644.07C1177.64 644.07 1159.95 660.93 1159.29 682.46L1103.59 2511.48C1102.83 2536.55 1122.44 2557.54 1147.51 2558.45C1272.87 2563.03 1637.15 2575.17 1969.97 2575.17C2181.74 2575.17 2380.74 2570.26 2497.47 2555.35C2515.74 2553.02 2529.29 2537.29 2528.98 2518.87L2496.79 599.81C2496.39 576.06 2476.95 557.64 2454.03 557.64C2451.79 557.64 2449.52 557.81 2447.23 558.18C2298.86 581.73 1835.98 649.12 1397.14 649.12C1330.86 649.12 1265.14 647.59 1201.11 644.13C1200.38 644.09 1199.65 644.07 1198.93 644.07Z" />
					<path id="Layer" fill-rule="evenodd" class="shp9" d="M1969.97 2575.17C1637.15 2575.17 1272.87 2563.03 1147.51 2558.45C1122.44 2557.54 1102.83 2536.55 1103.59 2511.48L1159.29 682.46C1159.95 660.93 1177.64 644.07 1198.93 644.07C1199.65 644.07 1200.38 644.09 1201.11 644.13C1265.14 647.59 1330.86 649.12 1397.14 649.12C1835.98 649.12 2298.86 581.73 2447.23 558.18C2449.52 557.81 2451.79 557.64 2454.03 557.64C2476.95 557.64 2496.39 576.06 2496.79 599.81L2528.98 2518.87C2529.29 2537.29 2515.74 2553.02 2497.47 2555.35C2380.74 2570.26 2181.74 2575.17 1969.97 2575.17ZM2381.39 1882.18C2381.22 1882.18 2381.05 1882.18 2380.87 1882.19L1308.29 1915.19C1300.73 1915.42 1294.31 1921.53 1294.01 1928.77C1293.71 1935.9 1299.47 1941.62 1306.87 1941.62C1306.98 1941.62 1307.09 1941.62 1307.2 1941.62L2354.42 1917.89C2361.97 1917.72 2371.83 1912.61 2376.32 1906.53L2386.44 1892.82C2390.82 1886.88 2388.54 1882.18 2381.39 1882.18ZM2379.71 1808.1C2379.54 1808.1 2379.37 1808.11 2379.19 1808.11L1306.61 1841.12C1299.06 1841.35 1292.63 1847.46 1292.33 1854.7C1292.03 1861.83 1297.79 1867.55 1305.19 1867.55C1305.3 1867.55 1305.41 1867.55 1305.52 1867.54L2352.74 1843.82C2360.3 1843.65 2370.15 1838.53 2374.64 1832.45L2384.76 1818.74C2389.15 1812.81 2386.86 1808.1 2379.71 1808.1ZM2378.06 1735.09C2377.89 1735.09 2377.71 1735.09 2377.54 1735.1L1304.95 1768.1C1297.4 1768.34 1290.98 1774.45 1290.68 1781.68C1290.38 1788.82 1296.14 1794.53 1303.54 1794.53C1303.65 1794.53 1303.76 1794.53 1303.86 1794.53L2351.09 1770.8C2358.64 1770.63 2368.5 1765.52 2372.98 1759.44L2383.11 1745.73C2387.49 1739.79 2385.2 1735.09 2378.06 1735.09ZM1730.47 1453.98C1717.11 1453.98 1704.54 1454.06 1694.8 1454.14C1683.23 1454.25 1673.26 1462.31 1670.8 1473.62C1666.03 1495.58 1659.62 1533.67 1661.45 1573.83C1661.98 1585.61 1671.66 1594.85 1683.36 1594.85C1683.6 1594.85 1683.85 1594.85 1684.1 1594.84L1784.81 1591.47C1797.2 1591.06 1807.27 1581.35 1808.14 1568.99L1814.85 1474.02C1815.55 1464.2 1808.08 1455.68 1798.25 1455.16C1781.18 1454.23 1754.56 1453.98 1730.47 1453.98ZM2279.28 1441.55C2265.92 1441.55 2253.34 1441.63 2243.6 1441.71C2232.03 1441.81 2222.06 1449.88 2219.61 1461.18C2214.83 1483.14 2208.42 1521.23 2210.25 1561.4C2210.78 1573.17 2220.46 1582.42 2232.16 1582.42C2232.41 1582.42 2232.65 1582.41 2232.9 1582.4L2333.62 1579.04C2346 1578.62 2356.07 1568.92 2356.95 1556.56L2363.65 1461.59C2364.35 1451.77 2356.88 1443.25 2347.05 1442.72C2329.99 1441.8 2303.37 1441.55 2279.28 1441.55ZM1615.26 1498.16C1614.97 1498.16 1614.67 1498.17 1614.37 1498.19L1360.31 1514.58C1352.77 1515.07 1346.66 1521.65 1346.74 1529.2L1346.81 1536.41C1346.89 1543.87 1352.96 1549.84 1360.38 1549.84C1360.48 1549.84 1360.58 1549.84 1360.69 1549.84L1608.42 1544.23C1615.98 1544.06 1622.94 1537.78 1623.89 1530.29L1626.35 1510.93C1627.26 1503.74 1622.33 1498.16 1615.26 1498.16ZM2164.06 1485.73C2163.77 1485.73 2163.47 1485.74 2163.17 1485.76L1909.11 1502.15C1901.57 1502.63 1895.47 1509.21 1895.54 1516.77L1895.62 1523.98C1895.69 1531.43 1901.77 1537.41 1909.18 1537.41C1909.28 1537.41 1909.39 1537.41 1909.49 1537.41L2157.23 1531.79C2164.78 1531.62 2171.74 1525.35 2172.69 1517.85L2175.15 1498.5C2176.07 1491.3 2171.13 1485.73 2164.06 1485.73ZM2341.38 1320.87C2341.2 1320.87 2341.03 1320.88 2340.85 1320.88L1236.58 1354.61C1229.03 1354.84 1222.59 1360.95 1222.28 1368.19C1221.97 1375.32 1227.72 1381.04 1235.12 1381.04C1235.23 1381.04 1235.33 1381.04 1235.44 1381.03L2313.62 1356.61C2321.17 1356.44 2331.09 1351.37 2335.67 1345.36L2346.27 1331.4C2350.74 1325.52 2348.52 1320.87 2341.38 1320.87ZM2339.72 1247.86C2339.55 1247.86 2339.38 1247.86 2339.2 1247.87L1234.93 1281.6C1227.37 1281.83 1220.94 1287.94 1220.63 1295.18C1220.32 1302.31 1226.06 1308.03 1233.46 1308.03C1233.57 1308.03 1233.68 1308.02 1233.79 1308.02L2311.97 1283.59C2319.52 1283.42 2329.44 1278.36 2334.01 1272.35L2344.62 1258.39C2349.08 1252.51 2346.86 1247.86 2339.72 1247.86ZM2314.96 717.14C2314.44 717.14 2313.93 717.15 2313.4 717.18L1885.02 741.89C1870.35 742.73 1858.19 753.59 1855.81 768.09C1841.1 857.84 1851.26 1071.49 1855.36 1144.89C1856.17 1159.32 1867.85 1170.74 1882.31 1171.17C1901.04 1171.72 1921.87 1171.96 1944.02 1171.96C2073 1171.96 2246.6 1163.76 2308.46 1160.61C2321.48 1159.95 2331.77 1149.35 2332.08 1136.31L2341.4 744.25C2341.76 729.3 2329.71 717.14 2314.96 717.14ZM1343.96 974.32C1325.66 974.32 1308.43 974.43 1295.09 974.54C1279.25 974.68 1265.6 985.72 1262.24 1001.21C1255.7 1031.28 1246.92 1083.43 1249.42 1138.42C1250.16 1154.55 1263.4 1167.21 1279.42 1167.21C1279.76 1167.21 1280.1 1167.2 1280.44 1167.19L1418.35 1162.58C1435.3 1162.01 1449.09 1148.72 1450.29 1131.8L1459.48 1001.76C1460.43 988.31 1450.2 976.65 1436.74 975.93C1413.38 974.67 1376.93 974.32 1343.96 974.32ZM1745.01 1086.29C1744.91 1086.29 1744.81 1086.29 1744.7 1086.29L1524.55 1091.16C1516.99 1091.32 1510.65 1097.37 1510.44 1104.6C1510.24 1111.83 1516.25 1117.82 1523.8 1117.93L1738.08 1120.91C1738.15 1120.91 1738.22 1120.91 1738.28 1120.91C1745.77 1120.91 1752.98 1114.96 1754.36 1107.6L1755.89 1099.48C1757.27 1092.16 1752.4 1086.29 1745.01 1086.29ZM1743.02 1000.29C1742.75 1000.29 1742.48 1000.3 1742.2 1000.31L1522.37 1013.23C1514.83 1013.67 1508.71 1019.95 1508.77 1027.18C1508.83 1034.3 1514.88 1040.01 1522.28 1040.01C1522.39 1040.01 1522.5 1040.01 1522.61 1040.01L1736.85 1035.16C1744.41 1034.98 1751.51 1028.73 1752.64 1021.26L1753.87 1013.09C1754.96 1005.89 1750.12 1000.29 1743.02 1000.29ZM1745.12 904.06C1744.93 904.06 1744.74 904.06 1744.54 904.07L1271.53 923.22C1263.98 923.53 1257.76 929.7 1257.71 936.93C1257.67 944.05 1263.63 949.77 1271.03 949.77C1271.14 949.77 1271.25 949.77 1271.36 949.76L1732.94 939.31C1740.49 939.14 1748.59 933.12 1750.94 925.94L1754 916.57C1756.29 909.58 1752.31 904.06 1745.12 904.06ZM1743.45 829.98C1743.25 829.98 1743.06 829.99 1742.86 830L1269.85 849.15C1262.3 849.46 1256.08 855.62 1256.03 862.85C1255.99 869.98 1261.95 875.69 1269.36 875.69C1269.46 875.69 1269.57 875.69 1269.68 875.69L1731.26 865.23C1738.81 865.06 1746.91 859.04 1749.26 851.86L1752.32 842.5C1754.61 835.5 1750.63 829.98 1743.45 829.98ZM1741.79 756.97C1741.6 756.97 1741.41 756.98 1741.21 756.98L1268.19 776.14C1260.64 776.44 1254.43 782.61 1254.38 789.84C1254.33 796.97 1260.3 802.68 1267.7 802.68C1267.81 802.68 1267.92 802.68 1268.03 802.68L1729.6 792.22C1737.16 792.05 1745.26 786.03 1747.61 778.85L1750.67 769.49C1752.95 762.49 1748.98 756.97 1741.79 756.97Z" />
					<path id="Layer" class="shp10" d="M1944.02 1171.96C1921.87 1171.96 1901.04 1171.72 1882.31 1171.17C1867.85 1170.74 1856.17 1159.32 1855.36 1144.89C1851.26 1071.49 1841.1 857.84 1855.81 768.09C1858.19 753.59 1870.35 742.73 1885.02 741.89L2313.4 717.18C2313.93 717.15 2314.44 717.14 2314.96 717.14C2329.71 717.14 2341.76 729.3 2341.4 744.25L2332.08 1136.31C2331.77 1149.35 2321.48 1159.95 2308.46 1160.61C2246.6 1163.76 2073 1171.96 1944.02 1171.96Z" />
					<path id="Layer" class="shp11" d="M2013.69 891.77C2014.74 938.27 2053.29 975.11 2099.79 974.05C2146.28 973 2183.13 934.45 2182.07 887.95C2181.02 841.46 2142.47 804.61 2095.97 805.67C2049.47 806.72 2012.63 845.27 2013.69 891.77Z" />
					<path id="Layer" class="shp12" d="M2231.36 1134.15L1963.13 1140.23C1946.69 1140.6 1936.42 1122.67 1944.97 1108.61C1966.94 1072.44 2013.42 1018.99 2096.03 1019.48C2175.65 1019.96 2223.88 1066.2 2248.36 1099.59C2258.75 1113.76 2248.93 1133.75 2231.36 1134.15Z" />
					<path id="Layer" class="shp13" d="M1267.7 802.68C1260.3 802.68 1254.33 796.97 1254.38 789.84C1254.43 782.61 1260.64 776.44 1268.19 776.14L1741.21 756.98C1741.41 756.98 1741.6 756.97 1741.79 756.97C1748.98 756.97 1752.95 762.49 1750.67 769.49L1747.61 778.85C1745.26 786.03 1737.16 792.05 1729.6 792.22L1268.03 802.68C1267.92 802.68 1267.81 802.68 1267.7 802.68Z" />
					<path id="Layer" class="shp14" d="M1269.36 875.69C1261.95 875.69 1255.99 869.98 1256.03 862.85C1256.08 855.62 1262.3 849.46 1269.85 849.15L1742.86 830C1743.06 829.99 1743.25 829.98 1743.45 829.98C1750.63 829.98 1754.61 835.5 1752.32 842.5L1749.26 851.86C1746.91 859.04 1738.81 865.06 1731.26 865.23L1269.68 875.69C1269.57 875.69 1269.46 875.69 1269.36 875.69Z" />
					<path id="Layer" class="shp15" d="M1271.03 949.77C1263.63 949.77 1257.67 944.05 1257.71 936.93C1257.76 929.7 1263.98 923.53 1271.53 923.22L1744.54 904.07C1744.74 904.06 1744.93 904.06 1745.12 904.06C1752.31 904.06 1756.29 909.58 1754 916.57L1750.94 925.94C1748.59 933.12 1740.49 939.14 1732.94 939.31L1271.36 949.76C1271.25 949.77 1271.14 949.77 1271.03 949.77Z" />
					<path id="Layer" class="shp16" d="M1279.42 1167.21C1263.4 1167.21 1250.16 1154.55 1249.42 1138.42C1246.92 1083.43 1255.7 1031.28 1262.24 1001.21C1265.6 985.72 1279.25 974.68 1295.09 974.54C1308.43 974.43 1325.66 974.32 1343.96 974.32C1376.93 974.32 1413.38 974.67 1436.74 975.93C1450.2 976.65 1460.43 988.31 1459.48 1001.76L1450.29 1131.8C1449.09 1148.72 1435.3 1162.01 1418.35 1162.58L1280.44 1167.19C1280.1 1167.2 1279.76 1167.21 1279.42 1167.21Z" />
					<path id="Layer" class="shp17" d="M1522.28 1040.01C1514.88 1040.01 1508.83 1034.3 1508.77 1027.18C1508.71 1019.95 1514.83 1013.67 1522.37 1013.23L1742.2 1000.31C1742.48 1000.3 1742.75 1000.29 1743.02 1000.29C1750.12 1000.29 1754.96 1005.89 1753.87 1013.09L1752.64 1021.26C1751.51 1028.73 1744.41 1034.98 1736.85 1035.16L1522.61 1040.01C1522.5 1040.01 1522.39 1040.01 1522.28 1040.01Z" />
					<path id="Layer" class="shp18" d="M1738.28 1120.91C1738.22 1120.91 1738.15 1120.91 1738.08 1120.91L1523.8 1117.93C1516.25 1117.82 1510.24 1111.83 1510.44 1104.6C1510.65 1097.37 1516.99 1091.32 1524.55 1091.16L1744.7 1086.29C1744.81 1086.29 1744.91 1086.29 1745.01 1086.29C1752.4 1086.29 1757.27 1092.16 1755.89 1099.48L1754.36 1107.6C1752.98 1114.96 1745.77 1120.91 1738.28 1120.91Z" />
					<path id="Layer" class="shp19" d="M1233.46 1308.03C1226.06 1308.03 1220.32 1302.31 1220.63 1295.18C1220.94 1287.94 1227.37 1281.83 1234.93 1281.6L2339.2 1247.87C2339.38 1247.86 2339.55 1247.86 2339.72 1247.86C2346.86 1247.86 2349.08 1252.51 2344.62 1258.39L2334.01 1272.35C2329.44 1278.36 2319.52 1283.42 2311.97 1283.59L1233.79 1308.02C1233.68 1308.02 1233.57 1308.03 1233.46 1308.03Z" />
					<path id="Layer" class="shp20" d="M1235.12 1381.04C1227.72 1381.04 1221.97 1375.32 1222.28 1368.19C1222.59 1360.95 1229.03 1354.84 1236.58 1354.61L2340.85 1320.88C2341.03 1320.88 2341.2 1320.87 2341.38 1320.87C2348.52 1320.87 2350.74 1325.52 2346.27 1331.4L2335.67 1345.36C2331.09 1351.37 2321.17 1356.44 2313.62 1356.61L1235.44 1381.03C1235.33 1381.04 1235.23 1381.04 1235.12 1381.04Z" />
					<path id="Layer" class="shp21" d="M2232.16 1582.42C2220.46 1582.42 2210.78 1573.17 2210.25 1561.4C2208.42 1521.23 2214.83 1483.14 2219.61 1461.18C2222.06 1449.88 2232.03 1441.81 2243.6 1441.71C2253.34 1441.63 2265.92 1441.55 2279.28 1441.55C2303.37 1441.55 2329.99 1441.8 2347.05 1442.72C2356.88 1443.25 2364.35 1451.77 2363.65 1461.59L2356.95 1556.56C2356.07 1568.92 2346 1578.62 2333.62 1579.04L2232.9 1582.4C2232.65 1582.41 2232.41 1582.42 2232.16 1582.42Z" />
					<path id="Layer" class="shp22" d="M1909.18 1537.41C1901.77 1537.41 1895.69 1531.43 1895.62 1523.98L1895.54 1516.77C1895.47 1509.21 1901.57 1502.63 1909.11 1502.15L2163.17 1485.76C2163.47 1485.74 2163.77 1485.73 2164.06 1485.73C2171.13 1485.73 2176.07 1491.3 2175.15 1498.5L2172.69 1517.85C2171.74 1525.35 2164.78 1531.62 2157.23 1531.79L1909.49 1537.41C1909.39 1537.41 1909.28 1537.41 1909.18 1537.41Z" />
					<path id="Layer" class="shp23" d="M1683.36 1594.85C1671.66 1594.85 1661.98 1585.61 1661.45 1573.83C1659.62 1533.67 1666.03 1495.58 1670.8 1473.62C1673.26 1462.31 1683.23 1454.25 1694.8 1454.14C1704.54 1454.06 1717.11 1453.98 1730.47 1453.98C1754.56 1453.98 1781.18 1454.23 1798.25 1455.16C1808.08 1455.68 1815.55 1464.2 1814.85 1474.02L1808.14 1568.99C1807.27 1581.35 1797.2 1591.06 1784.81 1591.47L1684.1 1594.84C1683.85 1594.85 1683.6 1594.85 1683.36 1594.85Z" />
					<path id="Layer" class="shp24" d="M1360.38 1549.84C1352.96 1549.84 1346.89 1543.87 1346.81 1536.41L1346.74 1529.2C1346.66 1521.65 1352.77 1515.07 1360.31 1514.58L1614.37 1498.19C1614.67 1498.17 1614.97 1498.16 1615.26 1498.16C1622.33 1498.16 1627.26 1503.74 1626.35 1510.93L1623.89 1530.29C1622.94 1537.78 1615.98 1544.06 1608.42 1544.23L1360.69 1549.84C1360.58 1549.84 1360.48 1549.84 1360.38 1549.84Z" />
					<path id="Layer" class="shp25" d="M1303.54 1794.53C1296.14 1794.53 1290.38 1788.82 1290.68 1781.68C1290.98 1774.45 1297.4 1768.34 1304.95 1768.1L2377.54 1735.1C2377.71 1735.09 2377.89 1735.09 2378.06 1735.09C2385.2 1735.09 2387.49 1739.79 2383.11 1745.73L2372.98 1759.44C2368.5 1765.52 2358.64 1770.63 2351.09 1770.8L1303.86 1794.53C1303.76 1794.53 1303.65 1794.53 1303.54 1794.53Z" />
					<path id="Layer" class="shp26" d="M1305.19 1867.55C1297.79 1867.55 1292.03 1861.83 1292.33 1854.7C1292.63 1847.46 1299.06 1841.35 1306.61 1841.12L2379.19 1808.11C2379.37 1808.11 2379.54 1808.1 2379.71 1808.1C2386.86 1808.1 2389.15 1812.81 2384.76 1818.74L2374.64 1832.45C2370.15 1838.53 2360.3 1843.65 2352.74 1843.82L1305.52 1867.54C1305.41 1867.55 1305.3 1867.55 1305.19 1867.55Z" />
					<path id="Layer" class="shp27" d="M1306.87 1941.62C1299.47 1941.62 1293.71 1935.9 1294.01 1928.77C1294.31 1921.53 1300.73 1915.42 1308.29 1915.19L2380.87 1882.19C2381.05 1882.18 2381.22 1882.18 2381.39 1882.18C2388.54 1882.18 2390.82 1886.88 2386.44 1892.82L2376.32 1906.53C2371.83 1912.61 2361.97 1917.72 2354.42 1917.89L1307.2 1941.62C1307.09 1941.62 1306.98 1941.62 1306.87 1941.62Z" />
					<path id="Layer" fill-rule="evenodd" class="shp28" d="M1730.6 261.24C1776.94 227.42 1817.9 227.14 1846.91 234.99C1873.38 242.15 1890.99 267.15 1889.11 294.5L1879.76 430.45L1732.15 446.92C1732.15 446.92 1639.71 327.57 1730.6 261.24ZM1798.12 369.21C1818.49 368.75 1834.63 351.87 1834.16 331.5C1833.7 311.13 1816.82 295 1796.45 295.46C1776.08 295.92 1759.95 312.8 1760.41 333.17C1760.87 353.54 1777.75 369.67 1798.12 369.21Z" />
					<path id="Layer" class="shp29" d="M1866.28 331.28C1864.31 331.14 1862.83 329.44 1862.96 327.48L1864.1 311.04C1865.66 288.37 1850.96 267.63 1829.14 261.73C1812.52 257.23 1795.48 256.92 1778.5 260.8C1776.56 261.23 1774.66 260.03 1774.22 258.12C1773.78 256.19 1774.98 254.28 1776.9 253.84C1795.03 249.69 1813.24 250.02 1831.01 254.84C1856.1 261.63 1873.01 285.47 1871.22 311.53L1870.09 327.96C1869.96 329.82 1868.43 331.25 1866.61 331.29C1866.5 331.29 1866.39 331.29 1866.28 331.28ZM1863.36 373.71C1861.39 373.57 1859.91 371.87 1860.04 369.9L1861.53 348.25C1861.67 346.28 1863.33 344.79 1865.34 344.93C1867.31 345.07 1868.79 346.77 1868.66 348.74L1867.17 370.39C1867.04 372.25 1865.51 373.67 1863.69 373.71C1863.58 373.72 1863.47 373.72 1863.36 373.71Z" />
					<path id="Layer" class="shp30" d="M2083.6 513.55L2082.06 445.34C2081.52 421.79 2061.58 403.38 2038.07 404.72L1568.17 431.48C1547.32 432.67 1530.79 449.53 1530.01 470.4L1527.57 536.03L2083.6 513.55Z" />
					<path id="Layer" class="shp29" d="M1906.35 433.42L1926.57 432.96C1928.54 432.91 1930.1 431.28 1930.06 429.31C1930.01 427.34 1928.38 425.77 1926.41 425.82L1906.19 426.28C1904.21 426.32 1902.65 427.96 1902.7 429.93C1902.74 431.9 1904.38 433.46 1906.35 433.42Z" />
					<path id="Layer" class="shp29" d="M2057.66 492.71C2059.63 492.66 2061.2 491.03 2061.15 489.06L2060.53 461.46C2060.04 440.14 2042.3 423.19 2020.99 423.68L1946.63 425.36C1944.66 425.41 1943.1 427.04 1943.15 429.01C1943.19 430.98 1944.83 432.54 1946.8 432.5L2021.15 430.81C2038.53 430.42 2052.99 444.24 2053.39 461.63L2054.01 489.22C2054.06 491.19 2055.69 492.75 2057.66 492.71Z" />
					<path id="Layer" class="shp31" d="M2230.38 485.25L1408.05 503.85C1378.48 504.52 1353.68 526.37 1349.3 555.62L1348.69 559.66C1343.89 591.7 1369.12 620.33 1401.51 619.6L2245.18 600.48C2264.56 600.04 2279.64 583.49 2278.27 564.15L2275.6 526.43C2273.93 502.84 2254.03 484.71 2230.38 485.25Z" />
					<path id="Layer" class="shp32" d="M1571.21 2131.1L1461.62 1864.96C1459.5 1859.81 1454.49 1856.45 1448.92 1856.45L1381.52 1856.45C1371.51 1856.45 1364.87 1866.81 1369.04 1875.91L1496.1 2153.14C1498.8 2159.03 1505.25 2162.23 1511.57 2160.83L1561.49 2149.74C1569.81 2147.89 1574.46 2138.98 1571.21 2131.1Z" />
					<path id="Layer" class="shp33" d="M1739.86 2793.73L1707.59 2793.73L1707.59 2444.73L1739.86 2444.73L1739.86 2793.73Z" />
					<path id="Layer" class="shp34" d="M1865.05 2800.46L1582.39 2800.46L1582.39 2782.83C1582.39 2780.96 1583.91 2779.45 1585.77 2779.45L1861.68 2779.45C1863.54 2779.45 1865.05 2780.96 1865.05 2782.83L1865.05 2800.46Z" />
					<path id="Layer" class="shp35" d="M1907 2432.61C1907 2451.7 1891.39 2467.32 1872.3 2467.32L1586.32 2467.32C1567.23 2467.32 1551.62 2451.7 1551.62 2432.61L1551.62 2401.23C1551.62 2382.14 1567.23 2366.53 1586.32 2366.53L1872.3 2366.53C1891.39 2366.53 1907 2382.14 1907 2401.23L1907 2432.61Z" />
					<path id="Layer" class="shp36" d="M1485.47 2212.02C1485.47 2212.02 1437.52 2219.45 1383.6 2255.5C1375.12 2261.17 1370.46 2271.06 1371.74 2281.18C1378.2 2332.32 1404.74 2497.85 1492.28 2659.51C1496.89 2668.04 1498.22 2677.96 1496.18 2687.44L1480.97 2758.21L1452.77 2784.66L1525.41 2784.66L1573.78 2653.77L1553.1 2647.23C1537.06 2642.16 1526.06 2627.41 1525.77 2610.59L1523.34 2470.18C1525.41 2407.63 1484.99 2364.47 1484.99 2364.47L1601 2358.83L1485.47 2212.02Z" />
					<path id="Layer" class="shp37" d="M1424.41 2797.42C1417.79 2806.08 1495.61 2817.51 1534.93 2798.57C1534.93 2798.57 1589.43 2703.75 1589.43 2654.93C1589.43 2654.93 1585.1 2644.97 1553.1 2647.23C1553.1 2647.23 1534.8 2759.5 1515.48 2772.08C1496.15 2784.66 1461.42 2773.35 1461.42 2773.35C1461.42 2773.35 1434.17 2784.65 1424.41 2797.42Z" />
					<path id="Layer" class="shp38" d="M1586.32 2366.53C1585.7 2365.46 1461.42 2351.58 1461.42 2351.58C1461.42 2351.58 1465.48 2389.37 1452.77 2441.39C1440.06 2493.41 1257.58 2718.8 1257.58 2718.8L1276.71 2779.45C1217.55 2800.06 1159.36 2803.35 1102.1 2789.96L1220.68 2718.8C1220.68 2718.8 1331.65 2340.61 1399.63 2273.15L1524.21 2230.04L1586.32 2366.53Z" />
					<path id="Layer" class="shp39" d="M1865.05 2146.47C1865.05 2146.47 1936.66 2252.98 1942.54 2301.57C1948.41 2350.15 1922.92 2369.89 1847.79 2373.15C1772.65 2376.4 1572.07 2376.35 1572.07 2376.35L1400.88 2230.04C1400.88 2230.04 1525.64 2185.53 1558.07 2172.94C1590.51 2160.35 1865.05 2146.47 1865.05 2146.47Z" />
					<path id="Layer" class="shp40" d="M1269.48 2759.03C1269.48 2759.03 1290.08 2778.98 1276.17 2801.18C1276.17 2801.18 1112.98 2830.1 1068.68 2816.98C1068.68 2816.98 1077.88 2795.98 1127.77 2772.08L1124.09 2774.91C1119.43 2778.48 1122.16 2785.93 1128.02 2785.6C1160.9 2783.72 1228.93 2777.7 1269.48 2759.03Z" />
					<path id="Layer" class="shp41" d="M1671.4 2132.38C1671.4 2132.38 1588.01 2052.97 1546.96 2000.38C1524.78 1971.95 1517.81 1934.53 1528.07 1899.96C1546.81 1836.82 1580.11 1771.43 1583.15 1761.25C1587.81 1745.65 1681.3 1746.3 1681.3 1746.3C1681.3 1746.3 1865.29 1865.71 1937.58 2067.98L1856.4 2093.26C1856.4 2093.26 1808.36 2012.66 1760.89 1961.42C1760.89 1961.42 1843.02 2069.92 1845.92 2114.34L1671.4 2132.38Z" />
					<path id="Layer" class="shp42" d="M1571.84 1674.07C1572.82 1677.31 1597.22 1758.21 1599.13 1759.89C1601.04 1761.57 1652.65 1764.35 1676.94 1747.74L1635.73 1661.47L1571.84 1674.07Z" />
					<path id="Layer" class="shp43" d="M1541.69 1555.38C1541.69 1555.38 1512.75 1587.01 1512.15 1650.08C1511.55 1713.15 1540.76 1728.73 1565.17 1721.51C1589.57 1714.3 1623.57 1698.08 1644.41 1647.96C1665.25 1597.83 1580.1 1516.01 1541.69 1555.38Z" />
					<path id="Layer" class="shp44" d="M1607.36 1631.44C1607.36 1631.44 1599.61 1543.13 1531.92 1573.11L1521.17 1591.44C1521.17 1591.44 1477.18 1560.69 1508.48 1522.02C1539.78 1483.34 1608.44 1473.47 1650.73 1520.15C1693.02 1566.82 1699.11 1606.7 1682.41 1645.98C1665.71 1685.26 1640.3 1661.07 1640.3 1661.07C1640.3 1661.07 1644.71 1629.48 1632.35 1619.33C1619.99 1609.18 1612.57 1631.68 1612.57 1631.68L1607.36 1631.44Z" />
					<path id="Layer" class="shp45" d="M1618.78 1636.43C1618.78 1636.43 1614.54 1591.06 1639.95 1598.24C1665.35 1605.42 1641.67 1641.16 1631.76 1653.76L1618.78 1636.43Z" />
					<path id="Layer" class="shp46" d="M1501.52 2138.27L1562.78 2079.22L1647.54 2115.02C1647.54 2115.02 1731.9 2128.09 1780.19 2115.02C1828.47 2101.95 1828.47 2101.95 1828.47 2101.95L1937.58 2067.98L1954.72 2116.41C1959.07 2128.71 1954.7 2142.36 1944.06 2149.92C1934.63 2156.62 1923.56 2164 1916.51 2167.08C1902.14 2173.37 1562.29 2162.73 1562.29 2162.73L1501.52 2138.27Z" />
					<path id="Layer" class="shp47" d="M1649.38 1531.12C1636.67 1526.25 1635.45 1508.75 1646.79 1501.23C1683.41 1476.98 1746.42 1455.66 1810.43 1528.5C1882.53 1610.54 1922.87 1649.59 1945.71 1649.22C1960.7 1648.97 1969.46 1665.93 1959.58 1677.22C1952.29 1685.57 1939.79 1693.07 1919.05 1697.57C1759.04 1732.3 1723.91 1559.67 1649.38 1531.12Z" />
					<path id="Layer" class="shp48" d="M544.45 2819.42C542.73 2819.42 540.99 2819.09 539.31 2818.4C532.71 2815.7 529.66 2808.41 532.5 2802.12L805.45 2197.93C808.29 2191.65 815.94 2188.75 822.55 2191.45C829.16 2194.15 832.21 2201.44 829.37 2207.73L556.41 2811.92C554.29 2816.61 549.49 2819.42 544.45 2819.42Z" />
					<path id="Layer" class="shp49" d="M851.94 2819.42C846.9 2819.42 842.1 2816.61 839.98 2811.92L567.03 2207.73C564.19 2201.44 567.24 2194.15 573.84 2191.45C580.44 2188.74 588.1 2191.64 590.94 2197.93L863.89 2802.12C866.73 2808.41 863.68 2815.7 857.08 2818.4C855.41 2819.09 853.66 2819.42 851.94 2819.42Z" />
					<path id="Layer" class="shp50" d="M1667.39 2819.42C1665.68 2819.42 1663.93 2819.09 1662.26 2818.4C1655.65 2815.7 1652.6 2808.41 1655.44 2802.12L1928.4 2197.93C1931.24 2191.65 1938.89 2188.75 1945.5 2191.45C1952.1 2194.15 1955.15 2201.44 1952.31 2207.73L1679.36 2811.92C1677.24 2816.61 1672.44 2819.42 1667.39 2819.42Z" />
					<path id="Layer" class="shp51" d="M1974.89 2819.42C1969.84 2819.42 1965.04 2816.61 1962.92 2811.92L1689.97 2207.73C1687.13 2201.44 1690.18 2194.15 1696.78 2191.45C1703.38 2188.74 1711.04 2191.64 1713.88 2197.93L1986.83 2802.12C1989.68 2808.41 1986.63 2815.7 1980.02 2818.4C1978.35 2819.09 1976.6 2819.42 1974.89 2819.42Z" />
					<path id="Layer" class="shp52" d="M2062.24 2179.09C2063.12 2175.06 2061.92 2170.9 2058.94 2167.73C2055.96 2164.56 2051.53 2162.73 2046.85 2162.73L462.48 2162.73C456.33 2162.73 450.6 2165.48 447.29 2170.03C443.97 2174.58 443.53 2180.29 446.11 2185.19L463.28 2217.8C467.21 2225.26 475.73 2230.04 485.1 2230.04L2035.98 2230.04C2044.7 2230.04 2052.2 2224.62 2053.85 2217.11L2062.24 2179.09Z" />
					<path id="Layer" class="shp53" d="M264.36 2389.83C254.78 2403.99 216.74 2724.68 210.79 2843.12C210.38 2851.13 216.79 2857.81 224.81 2857.81C231.73 2857.81 237.61 2852.77 238.68 2845.93L308.26 2400.03L264.36 2389.83Z" />
					<path id="Layer" class="shp54" d="M570.22 2389.83C579.79 2403.99 617.83 2724.68 623.78 2843.12C624.19 2851.13 617.78 2857.81 609.76 2857.81C602.84 2857.81 596.96 2852.77 595.89 2845.93L526.31 2400.03L570.22 2389.83Z" />
					<path id="Layer" class="shp55" d="M206.81 2364.8L206.77 2368.3C206.55 2393.46 228.22 2414.09 255.36 2414.55L576.98 2420.03C603.73 2420.48 626.03 2401.15 627.32 2376.38L627.49 2373.18C628.84 2347.35 606.91 2325.59 579.01 2325.09L257.25 2319.32C229.72 2318.83 207.04 2339.27 206.81 2364.8Z" />
					<path id="Layer" class="shp56" d="M751.51 2791.63C700.43 2791.63 677.83 2787.25 667.72 2783.25C669.69 2791.64 677.16 2798.26 686.6 2798.26L867.31 2798.26C873.4 2798.26 877.24 2792.44 875.78 2787.16C855.18 2788.82 811.43 2791.63 751.51 2791.63Z" />
					<path id="Layer" class="shp57" d="M875.78 2787.16C875.49 2786.1 875.06 2785.05 874.3 2784.09C860.54 2766.51 832.89 2738.91 795.27 2739.44C740.17 2740.22 720.95 2746.2 678.13 2739.78L668.03 2773.26C667 2776.68 666.98 2780.08 667.72 2783.25C677.83 2787.25 700.43 2791.63 751.51 2791.63C811.43 2791.63 855.18 2788.82 875.78 2787.16Z" />
					<path id="Layer" class="shp58" d="M690.53 2703.69L678.13 2745.87C678.13 2745.87 705.6 2758.37 729.77 2748.33L734.51 2711.8L690.53 2703.69Z" />
					<path id="Layer" class="shp59" d="M1065.08 2765.07C1025.26 2797.07 1004.91 2807.82 994.54 2811.05C1001.3 2816.33 1011.25 2816.79 1018.61 2810.87L1159.48 2697.69C1164.23 2693.87 1163.59 2686.95 1159.17 2683.77C1144.14 2697.96 1111.79 2727.54 1065.08 2765.07Z" />
					<path id="Layer" class="shp60" d="M1159.17 2683.77C1158.28 2683.13 1157.29 2682.58 1156.1 2682.31C1134.41 2677.29 1095.65 2673.2 1066.66 2697.17C1024.18 2732.29 1012.93 2748.96 975.55 2770.8L988.55 2803.11C989.88 2806.4 991.99 2809.06 994.54 2811.05C1004.91 2807.82 1025.26 2797.07 1065.08 2765.07C1111.79 2727.54 1144.14 2697.96 1159.17 2683.77Z" />
					<path id="Layer" class="shp61" d="M425.27 2223.19C425.27 2223.19 731.09 2248.17 793.83 2277.7C856.57 2307.23 742.63 2721.17 742.63 2721.17C742.63 2721.17 725.55 2729.39 687.55 2717.57C687.55 2717.57 726.52 2412.11 697.52 2345.87L366.39 2291.71L425.27 2223.19Z" />
					<path id="Layer" class="shp62" d="M945.16 2712.66C948 2715.25 975.55 2770.8 975.55 2770.8C975.55 2770.8 1006.22 2764.17 1012.47 2744.76L984.88 2694.62L945.16 2712.66Z" />
					<path id="Layer" class="shp63" d="M241.07 2220.64C241.07 2220.64 231.1 2244.62 231.51 2276.49C232.07 2320.56 267.5 2356.32 311.52 2358.52L673.06 2375.01C680.7 2375.36 687.16 2380.64 689.07 2388.04C697.56 2420.9 739.09 2521.81 942.08 2723.18C947.48 2728.54 955.9 2729.45 962.33 2725.38L991.22 2707.13C994.26 2705.21 995.23 2701.24 993.41 2698.14L782.91 2338.67C771.85 2320.43 754.08 2307.25 733.41 2301.96L425.27 2223.19L241.07 2220.64Z" />
					<path id="Layer" class="shp64" d="M240.09 2219.58C240.09 2219.58 236.51 2040.39 272.33 1871.75C285.56 1809.48 319.99 1753.72 369.99 1714.32L386.72 1701.14L470.51 1735.18L513.57 1809.58C537.27 1856.99 531.45 1959.95 513.57 2009.84C483.67 2093.27 459.75 2179.73 449.56 2222.2C449.56 2222.2 310.79 2240.53 240.09 2219.58Z" />
					<path id="Layer" class="shp65" d="M444.33 1567.6L378.87 1719.47C378.87 1719.47 399.81 1766.6 473.13 1748.27L499.31 1643.54L444.33 1567.6Z" />
					<path id="Layer" class="shp66" d="M574.05 1498.34C574.84 1500.46 576.57 1650.08 576.57 1650.08L491.12 1649.26L468.41 1507.69C468.41 1507.69 560.84 1462.83 574.05 1498.34Z" />
					<path id="Layer" class="shp67" d="M493.48 1534.92L499.6 1610.37C499.67 1611.34 499.88 1612.27 500.21 1613.18C502.28 1618.75 510.79 1637.4 529.34 1627.53C546.17 1618.58 561.66 1610.66 573.77 1611.68C579.21 1612.13 583.4 1616.63 583.46 1622.09C583.61 1635.68 583.39 1666.32 579.14 1692.91C578.28 1698.31 573.39 1702.1 567.94 1701.71C551.52 1700.55 516.95 1697.12 489.78 1687.85C486.1 1686.6 483.39 1683.47 482.73 1679.64C479.51 1660.95 469.51 1604.19 464.27 1588.81C459.36 1574.37 439.27 1569.42 430.68 1567.95C427.87 1567.47 425.4 1565.86 423.8 1563.5C418.16 1555.12 408.54 1535 433.38 1520.54C438.59 1517.51 440.23 1510.84 437.04 1505.74C430.71 1495.57 425.4 1479.12 444.07 1465.38C463.05 1451.42 481.17 1459.23 491.61 1466.5C495.83 1469.44 501.45 1468.82 505.12 1465.21C507.21 1463.16 510.22 1461.98 514.49 1463.52C520.25 1465.58 526.51 1461.97 527.97 1456.03C530.77 1444.61 538.63 1431.33 559.97 1430.41C597.82 1428.77 610.7 1468.33 606.2 1494.11C601.69 1519.9 560.54 1519.35 538.3 1511.65C521.39 1505.79 504.05 1519.51 496.72 1526.42C494.39 1528.61 493.22 1531.73 493.48 1534.92Z" />
					<path id="Layer" class="shp68" d="M466.78 1616.26C466.78 1616.26 472.7 1570.99 455.06 1564.03C437.41 1557.07 415.73 1567.35 427.34 1596.71C441.78 1633.23 466.78 1616.26 466.78 1616.26Z" />
					<path id="Layer" class="shp69" d="M646.01 2075.66C430.22 2143.4 441.7 1839.67 440.3 1837.54C354.75 1706.81 306.72 1881.02 315 1905.58C390.88 2180.28 582.16 2166.68 656.69 2112.72C647.41 2098.28 645.29 2085.57 646.01 2075.66Z" />
					<path id="Layer" class="shp70" d="M480.59 2028.8C479.4 2028.43 478.32 2027.66 477.6 2026.53C444.9 1975.58 435.67 1904.78 433.69 1854.35C433.57 1851.32 435.93 1848.77 438.96 1848.65C441.99 1848.53 444.54 1850.89 444.66 1853.92C446.24 1894.09 453.82 1969.15 486.84 2020.6C488.48 2023.15 487.73 2026.54 485.18 2028.18C483.76 2029.09 482.08 2029.27 480.59 2028.8Z" />
					<path id="Layer" class="shp71" d="M420.33 2097.82C419.65 2097.61 419 2097.27 418.43 2096.79C369.11 2055.46 331.95 1990.52 307.99 1903.76C307.18 1900.84 308.9 1897.81 311.82 1897.01C314.74 1896.2 317.76 1897.92 318.57 1900.84C341.93 1985.41 377.9 2048.5 425.48 2088.37C427.8 2090.32 428.11 2093.78 426.16 2096.11C424.7 2097.85 422.38 2098.46 420.33 2097.82Z" />
					<path id="Layer" class="shp72" d="M773.04 2012.24C773.04 2012.24 769.53 2017.83 744.27 2037.41C719 2056.99 693.57 2068.28 712.88 2041.38C732.2 2014.47 722.8 2000.59 700.75 2029.57C678.71 2058.55 662.95 2069.75 662.95 2069.75C657.15 2071.97 651.51 2073.93 646.01 2075.66C645.29 2085.57 647.41 2098.28 656.69 2112.72C665.43 2109.82 670.37 2107.69 670.37 2107.69C670.37 2107.69 737.2 2095.53 751.51 2067.07C765.83 2038.62 773.04 2012.24 773.04 2012.24Z" />
					<path id="Layer" class="shp29" d="M1261.28 1870.26C1261.28 1870.26 707.89 1596.83 888.87 1395.51C1069.85 1194.19 1407.25 1274.66 1424.35 1486.55C1441.44 1698.44 1030.77 1648.73 1261.28 1870.26Z" />
					<path id="Layer" class="shp73" d="M935.68 1453.09L1179.91 1453.09C1182.99 1453.09 1185.49 1450.59 1185.49 1447.51C1185.49 1444.42 1182.99 1441.93 1179.91 1441.93L935.68 1441.93C932.6 1441.93 930.1 1444.42 930.1 1447.51C930.1 1450.59 932.6 1453.09 935.68 1453.09Z" />
					<path id="Layer" class="shp74" d="M1252.43 1453.09L1324.9 1453.09C1327.98 1453.09 1330.48 1450.59 1330.48 1447.51C1330.48 1444.42 1327.98 1441.93 1324.9 1441.93L1252.43 1441.93C1249.35 1441.93 1246.85 1444.42 1246.85 1447.51C1246.85 1450.59 1249.35 1453.09 1252.43 1453.09Z" />
					<path id="Layer" class="shp75" d="M927.45 1502.53L1019.16 1502.53C1022.24 1502.53 1024.74 1500.03 1024.74 1496.95C1024.74 1493.87 1022.24 1491.37 1019.16 1491.37L927.45 1491.37C924.37 1491.37 921.87 1493.87 921.87 1496.95C921.87 1500.03 924.37 1502.53 927.45 1502.53Z" />
					<path id="Layer" class="shp76" d="M1153.72 1502.53L1316.67 1502.53C1319.75 1502.53 1322.25 1500.03 1322.25 1496.95C1322.25 1493.87 1319.75 1491.37 1316.67 1491.37L1153.72 1491.37C1150.64 1491.37 1148.14 1493.87 1148.14 1496.95C1148.14 1500.03 1150.64 1502.53 1153.72 1502.53Z" />
					<path id="Layer" class="shp77" d="M919.22 1551.98L1163 1551.98C1166.09 1551.98 1168.58 1549.48 1168.58 1546.4C1168.58 1543.31 1166.09 1540.82 1163 1540.82L919.22 1540.82C916.14 1540.82 913.64 1543.31 913.64 1546.4C913.64 1549.48 916.14 1551.98 919.22 1551.98Z" />
					<path id="Layer" class="shp78" d="M1224.05 1551.98L1308.44 1551.98C1311.52 1551.98 1314.02 1549.48 1314.02 1546.4C1314.02 1543.31 1311.52 1540.82 1308.44 1540.82L1224.05 1540.82C1220.97 1540.82 1218.47 1543.31 1218.47 1546.4C1218.47 1549.48 1220.97 1551.98 1224.05 1551.98Z" />
				</g>
			</g>
		</g>
	</g>
</svg>