<svg xmlns="http://www.w3.org/2000/svg" viewBox="0 0 3710 3265" width="550" height="484">
	<defs>
		<clipPath clipPathUnits="userSpaceOnUse" id="cp1">
			<path d="M0 -373L3710 -373L3710 3337L0 3337L0 -373Z" />
		</clipPath>
		<clipPath clipPathUnits="userSpaceOnUse" id="cp2">
			<path d="M0 -373L0 3337L3710 3337L3710 -373L0 -373Z" />
		</clipPath>
		<linearGradient id="grd1" gradientUnits="userSpaceOnUse"  x1="3602.18" y1="3708.41" x2="1110.71" y2="614.16">
			<stop offset="0" stop-color="#e8d7ff"  />
			<stop offset="100" stop-color="#fddff8"  />
		</linearGradient>
		<linearGradient id="grd2" gradientUnits="userSpaceOnUse"  x1="1681.03" y1="165.63" x2="1193.087" y2="1358.38">
			<stop offset="0" stop-color="#a737d5"  />
			<stop offset="100" stop-color="#ef497a"  />
		</linearGradient>
		<linearGradient id="grd3" gradientUnits="userSpaceOnUse"  x1="1681.03" y1="165.63" x2="1193.087" y2="1358.38">
			<stop offset="0" stop-color="#e4c1f2"  />
			<stop offset="100" stop-color="#fac7d6"  />
		</linearGradient>
		<linearGradient id="grd4" gradientUnits="userSpaceOnUse"  x1="1681.03" y1="165.63" x2="1193.087" y2="1358.38">
			<stop offset="0" stop-color="#e4c1f2"  />
			<stop offset="100" stop-color="#fac7d6"  />
		</linearGradient>
		<linearGradient id="grd5" gradientUnits="userSpaceOnUse"  x1="2438.71" y1="-255.346" x2="2065.975" y2="808.644">
			<stop offset="0" stop-color="#a737d5"  />
			<stop offset="100" stop-color="#ef497a"  />
		</linearGradient>
		<linearGradient id="grd6" gradientUnits="userSpaceOnUse"  x1="2438.71" y1="-255.346" x2="2065.975" y2="808.644">
			<stop offset="0" stop-color="#e4c1f2"  />
			<stop offset="100" stop-color="#fac7d6"  />
		</linearGradient>
		<linearGradient id="grd7" gradientUnits="userSpaceOnUse"  x1="2438.71" y1="-255.346" x2="2065.975" y2="808.644">
			<stop offset="0" stop-color="#e4c1f2"  />
			<stop offset="100" stop-color="#fac7d6"  />
		</linearGradient>
		<linearGradient id="grd8" gradientUnits="userSpaceOnUse"  x1="2337.25" y1="988.43" x2="2008.626" y2="1515.103">
			<stop offset="0" stop-color="#f9b776"  />
			<stop offset="100" stop-color="#f47960"  />
		</linearGradient>
		<linearGradient id="grd9" gradientUnits="userSpaceOnUse"  x1="1424.99" y1="939.96" x2="1756.926" y2="1161.272">
			<stop offset="0" stop-color="#2b3582"  />
			<stop offset="100" stop-color="#150e42"  />
		</linearGradient>
		<linearGradient id="grd10" gradientUnits="userSpaceOnUse"  x1="2045.67" y1="1350.73" x2="1340.863" y2="2082.644">
			<stop offset="0" stop-color="#fdf53f"  />
			<stop offset="100" stop-color="#d93c65"  />
		</linearGradient>
		<linearGradient id="grd11" gradientUnits="userSpaceOnUse"  x1="1932.51" y1="1352.76" x2="1870.898" y2="1215.93">
			<stop offset="0" stop-color="#f9b776"  />
			<stop offset="100" stop-color="#f47960"  />
		</linearGradient>
		<linearGradient id="grd12" gradientUnits="userSpaceOnUse"  x1="1935.69" y1="1020.23" x2="1810.654" y2="1290.936">
			<stop offset="0" stop-color="#f9b776"  />
			<stop offset="100" stop-color="#f47960"  />
		</linearGradient>
		<linearGradient id="grd13" gradientUnits="userSpaceOnUse"  x1="1514.19" y1="806.17" x2="1846.132" y2="1027.486">
			<stop offset="0" stop-color="#2b3582"  />
			<stop offset="100" stop-color="#150e42"  />
		</linearGradient>
		<linearGradient id="grd14" gradientUnits="userSpaceOnUse"  x1="1876.86" y1="993.06" x2="1751.825" y2="1263.763">
			<stop offset="0" stop-color="#f9b776"  />
			<stop offset="100" stop-color="#f47960"  />
		</linearGradient>
		<linearGradient id="grd15" gradientUnits="userSpaceOnUse"  x1="1586.78" y1="3056.73" x2="2045.812" y2="2228.185">
			<stop offset="0" stop-color="#f9b776"  />
			<stop offset="100" stop-color="#f47960"  />
		</linearGradient>
		<linearGradient id="grd16" gradientUnits="userSpaceOnUse"  x1="1685.79" y1="2764.4" x2="1822.255" y2="2763.104">
			<stop offset="0" stop-color="#2b3582"  />
			<stop offset="100" stop-color="#150e42"  />
		</linearGradient>
		<linearGradient id="grd17" gradientUnits="userSpaceOnUse"  x1="2110.06" y1="2442.05" x2="1413.972" y2="2671.948">
			<stop offset="0" stop-color="#f9b776"  />
			<stop offset="100" stop-color="#f47960"  />
		</linearGradient>
		<linearGradient id="grd18" gradientUnits="userSpaceOnUse"  x1="1812.54" y1="2787.84" x2="1975.219" y2="2786.295">
			<stop offset="0" stop-color="#2b3582"  />
			<stop offset="100" stop-color="#150e42"  />
		</linearGradient>
		<linearGradient id="grd19" gradientUnits="userSpaceOnUse"  x1="2135.56" y1="1677.89" x2="1512.076" y2="2477.574">
			<stop offset="0" stop-color="#cb236d"  />
			<stop offset="100" stop-color="#4c246d"  />
		</linearGradient>
		<linearGradient id="grd20" gradientUnits="userSpaceOnUse"  x1="1630.86" y1="1778.46" x2="2288.818" y2="802.917">
			<stop offset="0" stop-color="#f9b776"  />
			<stop offset="100" stop-color="#f47960"  />
		</linearGradient>
		<linearGradient id="grd21" gradientUnits="userSpaceOnUse"  x1="674.179" y1="2220.9" x2="298.843" y2="3070.346">
			<stop offset="0" stop-color="#fdf53f"  />
			<stop offset="66.452" stop-color="#e57a58"  />
			<stop offset="100" stop-color="#d93c65"  />
		</linearGradient>
		<linearGradient id="grd22" gradientUnits="userSpaceOnUse"  x1="983.987" y1="2357.79" x2="608.651" y2="3207.237">
			<stop offset="0" stop-color="#fdf53f"  />
			<stop offset="66.452" stop-color="#e57a58"  />
			<stop offset="100" stop-color="#d93c65"  />
		</linearGradient>
		<linearGradient id="grd23" gradientUnits="userSpaceOnUse"  x1="622.837" y1="2719.27" x2="688.685" y2="2403.198">
			<stop offset="0" stop-color="#fdf53f"  />
			<stop offset="66.452" stop-color="#e57a58"  />
			<stop offset="100" stop-color="#d93c65"  />
		</linearGradient>
		<linearGradient id="grd24" gradientUnits="userSpaceOnUse"  x1="1010.92" y1="2769.42" x2="1265.569" y2="2769.42">
			<stop offset="0" stop-color="#cb236d"  />
			<stop offset="100" stop-color="#4c246d"  />
		</linearGradient>
		<linearGradient id="grd25" gradientUnits="userSpaceOnUse"  x1="1207.12" y1="2279.76" x2="1137.544" y2="2760.47">
			<stop offset="0" stop-color="#cb236d"  />
			<stop offset="100" stop-color="#4c246d"  />
		</linearGradient>
		<linearGradient id="grd26" gradientUnits="userSpaceOnUse"  x1="1023.65" y1="2692.68" x2="1092.55" y2="2692.68">
			<stop offset="0" stop-color="#f9b776"  />
			<stop offset="100" stop-color="#f47960"  />
		</linearGradient>
		<linearGradient id="grd27" gradientUnits="userSpaceOnUse"  x1="1410.33" y1="2718.95" x2="1615.93" y2="2718.95">
			<stop offset="0" stop-color="#cb236d"  />
			<stop offset="100" stop-color="#4c246d"  />
		</linearGradient>
		<linearGradient id="grd28" gradientUnits="userSpaceOnUse"  x1="1551.75" y1="2329.64" x2="1482.173" y2="2810.354">
			<stop offset="0" stop-color="#cb236d"  />
			<stop offset="100" stop-color="#4c246d"  />
		</linearGradient>
		<linearGradient id="grd29" gradientUnits="userSpaceOnUse"  x1="642.661" y1="2381.78" x2="1188.084" y2="2381.78">
			<stop offset="0" stop-color="#cb236d"  />
			<stop offset="100" stop-color="#4c246d"  />
		</linearGradient>
		<linearGradient id="grd30" gradientUnits="userSpaceOnUse"  x1="1349.99" y1="2698.48" x2="1432.247" y2="2698.48">
			<stop offset="0" stop-color="#f9b776"  />
			<stop offset="100" stop-color="#f47960"  />
		</linearGradient>
		<linearGradient id="grd31" gradientUnits="userSpaceOnUse"  x1="1138.1" y1="2154.54" x2="539.316" y2="2833.443">
			<stop offset="0" stop-color="#cb236d"  />
			<stop offset="100" stop-color="#4c246d"  />
		</linearGradient>
		<linearGradient id="grd32" gradientUnits="userSpaceOnUse"  x1="893.079" y1="1539.34" x2="933.633" y2="1437.074">
			<stop offset="0" stop-color="#f9b776"  />
			<stop offset="100" stop-color="#f47960"  />
		</linearGradient>
		<linearGradient id="grd33" gradientUnits="userSpaceOnUse"  x1="1618.12" y1="808.87" x2="373.9" y2="2704.82">
			<stop offset="0" stop-color="#53d8ff"  />
			<stop offset="100" stop-color="#3840f7"  />
		</linearGradient>
		<linearGradient id="grd34" gradientUnits="userSpaceOnUse"  x1="1716.58" y1="247.113" x2="683.96" y2="2134.603">
			<stop offset="0" stop-color="#53d8ff"  />
			<stop offset="100" stop-color="#3840f7"  />
		</linearGradient>
		<linearGradient id="grd35" gradientUnits="userSpaceOnUse"  x1="1239.55" y1="1937.06" x2="1429.554" y2="1937.06">
			<stop offset="0" stop-color="#f9b776"  />
			<stop offset="100" stop-color="#f47960"  />
		</linearGradient>
		<linearGradient id="grd36" gradientUnits="userSpaceOnUse"  x1="1016.9" y1="1331.36" x2="835.382" y2="1512.41">
			<stop offset="0" stop-color="#f9b776"  />
			<stop offset="100" stop-color="#f47960"  />
		</linearGradient>
		<linearGradient id="grd37" gradientUnits="userSpaceOnUse"  x1="859.014" y1="1228.12" x2="1072.812" y2="1439.388">
			<stop offset="0" stop-color="#2b3582"  />
			<stop offset="100" stop-color="#150e42"  />
		</linearGradient>
		<linearGradient id="grd38" gradientUnits="userSpaceOnUse"  x1="987.545" y1="1301.94" x2="806.028" y2="1482.989">
			<stop offset="0" stop-color="#f9b776"  />
			<stop offset="100" stop-color="#f47960"  />
		</linearGradient>
		<linearGradient id="grd39" gradientUnits="userSpaceOnUse"  x1="-39675.4" y1="-41828.7" x2="-38999.278" y2="-41108.415">
			<stop offset="0" stop-color="#2b3582"  />
			<stop offset="100" stop-color="#150e42"  />
		</linearGradient>
		<linearGradient id="grd40" gradientUnits="userSpaceOnUse"  x1="58739.5" y1="-17015.8" x2="57801.321" y2="-16706.415">
			<stop offset="0" stop-color="#2b3582"  />
			<stop offset="100" stop-color="#150e42"  />
		</linearGradient>
		<linearGradient id="grd41" gradientUnits="userSpaceOnUse"  x1="2636.69" y1="3139.26" x2="2633.304" y2="3498.234">
			<stop offset="0" stop-color="#2b3582"  />
			<stop offset="100" stop-color="#150e42"  />
		</linearGradient>
		<linearGradient id="grd42" gradientUnits="userSpaceOnUse"  x1="2723.22" y1="2738.38" x2="2741.846" y2="2592.759">
			<stop offset="0" stop-color="#f9b776"  />
			<stop offset="100" stop-color="#f47960"  />
		</linearGradient>
		<linearGradient id="grd43" gradientUnits="userSpaceOnUse"  x1="3121.69" y1="3143.84" x2="3118.304" y2="3502.812">
			<stop offset="0" stop-color="#2b3582"  />
			<stop offset="100" stop-color="#150e42"  />
		</linearGradient>
		<linearGradient id="grd44" gradientUnits="userSpaceOnUse"  x1="3130.31" y1="2788.29" x2="3148.461" y2="2646.386">
			<stop offset="0" stop-color="#f9b776"  />
			<stop offset="100" stop-color="#f47960"  />
		</linearGradient>
		<linearGradient id="grd45" gradientUnits="userSpaceOnUse"  x1="3257.16" y1="2249.08" x2="2698.488" y2="2249.08">
			<stop offset="0" stop-color="#2b3582"  />
			<stop offset="100" stop-color="#150e42"  />
		</linearGradient>
		<linearGradient id="grd46" gradientUnits="userSpaceOnUse"  x1="3141.28" y1="2163.36" x2="3120.961" y2="2122.722">
			<stop offset="0" stop-color="#53d8ff"  />
			<stop offset="100" stop-color="#3840f7"  />
		</linearGradient>
		<linearGradient id="grd47" gradientUnits="userSpaceOnUse"  x1="3123.62" y1="1189.38" x2="2730.554" y2="2273.7">
			<stop offset="0" stop-color="#53d8ff"  />
			<stop offset="100" stop-color="#3840f7"  />
		</linearGradient>
		<linearGradient id="grd48" gradientUnits="userSpaceOnUse"  x1="3540.87" y1="698.58" x2="2287.13" y2="1992.98">
			<stop offset="0" stop-color="#53d8ff"  />
			<stop offset="100" stop-color="#3840f7"  />
		</linearGradient>
		<linearGradient id="grd49" gradientUnits="userSpaceOnUse"  x1="2993.13" y1="1856.28" x2="2738.74" y2="1856.28">
			<stop offset="0" stop-color="#f9b776"  />
			<stop offset="100" stop-color="#f47960"  />
		</linearGradient>
		<linearGradient id="grd50" gradientUnits="userSpaceOnUse"  x1="2758.71" y1="1537.39" x2="2283.65" y2="1537.39">
			<stop offset="0" stop-color="#f9b776"  />
			<stop offset="100" stop-color="#f47960"  />
		</linearGradient>
		<linearGradient id="grd51" gradientUnits="userSpaceOnUse"  x1="2929.74" y1="1270.95" x2="2764.408" y2="1101.324">
			<stop offset="0" stop-color="#f9b776"  />
			<stop offset="100" stop-color="#f47960"  />
		</linearGradient>
		<linearGradient id="grd52" gradientUnits="userSpaceOnUse"  x1="2689.96" y1="994.44" x2="2896.088" y2="1267.13">
			<stop offset="0" stop-color="#f9b776"  />
			<stop offset="100" stop-color="#f47960"  />
		</linearGradient>
		<linearGradient id="grd53" gradientUnits="userSpaceOnUse"  x1="2847.39" y1="1060.22" x2="2601.167" y2="1060.22">
			<stop offset="0" stop-color="#2b3582"  />
			<stop offset="100" stop-color="#150e42"  />
		</linearGradient>
		<linearGradient id="grd54" gradientUnits="userSpaceOnUse"  x1="2991.86" y1="1210.39" x2="2826.529" y2="1040.765">
			<stop offset="0" stop-color="#f9b776"  />
			<stop offset="100" stop-color="#f47960"  />
		</linearGradient>
		<linearGradient id="grd55" gradientUnits="userSpaceOnUse"  x1="3677.24" y1="830.67" x2="2423.5" y2="2125.07">
			<stop offset="0" stop-color="#53d8ff"  />
			<stop offset="100" stop-color="#3840f7"  />
		</linearGradient>
		<linearGradient id="grd56" gradientUnits="userSpaceOnUse"  x1="444.825" y1="4512.91" x2="1118.218" y2="2111.56">
			<stop offset="0" stop-color="#18459f"  />
			<stop offset="100" stop-color="#2874b5"  />
		</linearGradient>
		<linearGradient id="grd57" gradientUnits="userSpaceOnUse"  x1="456.052" y1="4589.92" x2="1150.934" y2="2111.94">
			<stop offset="0" stop-color="#18459f"  />
			<stop offset="100" stop-color="#2874b5"  />
		</linearGradient>
		<linearGradient id="grd58" gradientUnits="userSpaceOnUse"  x1="2057.47" y1="5041.9" x2="2730.863" y2="2640.55">
			<stop offset="0" stop-color="#18459f"  />
			<stop offset="100" stop-color="#2874b5"  />
		</linearGradient>
		<linearGradient id="grd59" gradientUnits="userSpaceOnUse"  x1="2063.97" y1="5135.78" x2="2758.852" y2="2657.8">
			<stop offset="0" stop-color="#18459f"  />
			<stop offset="100" stop-color="#2874b5"  />
		</linearGradient>
		<linearGradient id="grd60" gradientUnits="userSpaceOnUse"  x1="1300.98" y1="4268.84" x2="1863.495" y2="2262.89">
			<stop offset="0" stop-color="#18459f"  />
			<stop offset="100" stop-color="#2874b5"  />
		</linearGradient>
		<linearGradient id="grd61" gradientUnits="userSpaceOnUse"  x1="2205.73" y1="637.44" x2="2525.925" y2="1969.05">
			<stop offset="0" stop-color="#53d8ff"  />
			<stop offset="100" stop-color="#3840f7"  />
		</linearGradient>
		<linearGradient id="grd62" gradientUnits="userSpaceOnUse"  x1="2386.55" y1="593.962" x2="2706.745" y2="1925.572">
			<stop offset="0" stop-color="#53d8ff"  />
			<stop offset="100" stop-color="#3840f7"  />
		</linearGradient>
		<linearGradient id="grd63" gradientUnits="userSpaceOnUse"  x1="2130.24" y1="655.59" x2="2450.436" y2="1987.2">
			<stop offset="0" stop-color="#53d8ff"  />
			<stop offset="100" stop-color="#3840f7"  />
		</linearGradient>
		<linearGradient id="grd64" gradientUnits="userSpaceOnUse"  x1="2335.36" y1="606.271" x2="2655.555" y2="1937.881">
			<stop offset="0" stop-color="#53d8ff"  />
			<stop offset="100" stop-color="#3840f7"  />
		</linearGradient>
		<linearGradient id="grd65" gradientUnits="userSpaceOnUse"  x1="2174.04" y1="645.06" x2="2494.235" y2="1976.67">
			<stop offset="0" stop-color="#53d8ff"  />
			<stop offset="100" stop-color="#3840f7"  />
		</linearGradient>
		<linearGradient id="grd66" gradientUnits="userSpaceOnUse"  x1="2350.36" y1="602.663" x2="2670.555" y2="1934.273">
			<stop offset="0" stop-color="#53d8ff"  />
			<stop offset="100" stop-color="#3840f7"  />
		</linearGradient>
	</defs>
	<style>
		tspan { white-space:pre }
		.shp0 { fill: url(#grd1) } 
		.shp1 { fill: #eac4f9 } 
		.shp2 { fill: url(#grd2) } 
		.shp3 { fill: url(#grd3) } 
		.shp4 { fill: url(#grd4) } 
		.shp5 { fill: url(#grd5) } 
		.shp6 { fill: url(#grd6) } 
		.shp7 { fill: url(#grd7) } 
		.shp8 { fill: url(#grd8) } 
		.shp9 { fill: url(#grd9) } 
		.shp10 { fill: url(#grd10) } 
		.shp11 { fill: url(#grd11) } 
		.shp12 { fill: url(#grd12) } 
		.shp13 { fill: url(#grd13) } 
		.shp14 { fill: url(#grd14) } 
		.shp15 { fill: url(#grd15) } 
		.shp16 { fill: url(#grd16) } 
		.shp17 { fill: url(#grd17) } 
		.shp18 { fill: url(#grd18) } 
		.shp19 { fill: url(#grd19) } 
		.shp20 { fill: url(#grd20) } 
		.shp21 { fill: url(#grd21) } 
		.shp22 { fill: url(#grd22) } 
		.shp23 { fill: url(#grd23) } 
		.shp24 { fill: url(#grd24) } 
		.shp25 { fill: url(#grd25) } 
		.shp26 { fill: url(#grd26) } 
		.shp27 { fill: url(#grd27) } 
		.shp28 { fill: url(#grd28) } 
		.shp29 { fill: url(#grd29) } 
		.shp30 { fill: url(#grd30) } 
		.shp31 { fill: url(#grd31) } 
		.shp32 { fill: url(#grd32) } 
		.shp33 { fill: url(#grd33) } 
		.shp34 { fill: url(#grd34) } 
		.shp35 { fill: url(#grd35) } 
		.shp36 { fill: url(#grd36) } 
		.shp37 { fill: url(#grd37) } 
		.shp38 { fill: url(#grd38) } 
		.shp39 { fill: url(#grd39) } 
		.shp40 { fill: url(#grd40) } 
		.shp41 { fill: url(#grd41) } 
		.shp42 { fill: url(#grd42) } 
		.shp43 { fill: url(#grd43) } 
		.shp44 { fill: url(#grd44) } 
		.shp45 { fill: url(#grd45) } 
		.shp46 { fill: url(#grd46) } 
		.shp47 { fill: url(#grd47) } 
		.shp48 { fill: url(#grd48) } 
		.shp49 { fill: url(#grd49) } 
		.shp50 { fill: url(#grd50) } 
		.shp51 { fill: url(#grd51) } 
		.shp52 { fill: url(#grd52) } 
		.shp53 { fill: url(#grd53) } 
		.shp54 { fill: url(#grd54) } 
		.shp55 { fill: url(#grd55) } 
		.shp56 { fill: url(#grd56) } 
		.shp57 { fill: url(#grd57) } 
		.shp58 { fill: url(#grd58) } 
		.shp59 { fill: url(#grd59) } 
		.shp60 { fill: url(#grd60) } 
		.shp61 { fill: #ffffff } 
		.shp62 { fill: url(#grd61) } 
		.shp63 { fill: url(#grd62) } 
		.shp64 { fill: url(#grd63) } 
		.shp65 { fill: url(#grd64) } 
		.shp66 { fill: url(#grd65) } 
		.shp67 { fill: url(#grd66) } 
	</style>
	<g id="Clip-Path" clip-path="url(#cp1)">
		<g id="Layer">
			<g id="Clip-Path" clip-path="url(#cp2)">
				<g id="Layer">
					<path id="Layer" fill-rule="evenodd" class="shp0" d="M1887.8 2882C1718.79 2882 1589.68 2858.37 1538.19 2847.91C1351.44 2809.98 990.45 2736.66 729.47 2429.75C334.62 1965.41 396.1 1233.87 702.38 750.96C758.4 662.63 1054.32 172.37 1655.79 93.75C1715.48 85.94 1776.86 82 1839.02 82C2155.87 82 2494.49 184.35 2751.36 399.57C3396.35 939.94 3350.44 2031.59 2916.76 2488.15C2859.54 2548.4 2805.39 2587.25 2762.6 2617.95C2464.47 2831.86 2133.88 2882 1887.8 2882ZM1473.94 1297.76L1542.73 1373.94C1544.4 1375.79 1546.75 1376.79 1549.14 1376.79C1550.2 1376.79 1551.27 1376.59 1552.29 1376.18L1665.53 1330.6C1668.84 1329.27 1670.89 1326 1670.63 1322.46L1663.39 1221.51C1702.03 1194.26 1736.43 1160.66 1764.79 1121.41L1867.2 1128.27C1867.39 1128.28 1867.59 1128.29 1867.78 1128.29C1871.15 1128.29 1874.18 1126.31 1875.45 1123.22L1921.41 1011.53C1922.75 1008.27 1921.83 1004.49 1919.11 1002.12L1841.67 934.59C1849.16 886.7 1848.4 838.56 1840.17 791.92C1913.14 725.44 1922.69 726.05 1918.41 716.07C1870.53 609.72 1872.85 598.5 1862.72 598.5C1862.43 598.5 1862.13 598.51 1861.82 598.53L1759.47 603.91C1731.13 565.36 1696.42 530.88 1656.08 502.25C1659.05 404.19 1666.21 397.47 1656 393.24C1566.66 358.06 1545.82 345.36 1537.53 345.36C1535.22 345.36 1533.88 346.34 1532.31 348.11L1465.1 423.25C1439.87 418.99 1414.61 416.92 1389.57 416.92C1366.22 416.92 1343.07 418.72 1320.29 422.24C1260.46 358.65 1253.17 343.05 1245.3 343.05C1244.23 343.05 1243.16 343.34 1241.95 343.83C1130.69 390.9 1122.83 386.64 1123.61 397.54L1130.85 498.49C1092.21 525.75 1057.81 559.35 1029.45 598.6C967.51 595.72 941.33 591.67 929.39 591.67C922.46 591.67 920.33 593.04 918.79 596.78C875.31 708.09 866.75 710.57 875.13 717.88L952.57 785.42C945.08 833.3 945.84 881.44 954.07 928.09C881.35 994.34 871.53 993.9 875.83 1003.93C923.71 1110.29 921.39 1121.5 931.52 1121.5C931.81 1121.5 932.11 1121.49 932.42 1121.47L1034.77 1116.09C1063.11 1154.64 1097.82 1189.12 1138.16 1217.75C1135.19 1315.87 1128.03 1322.54 1138.24 1326.76L1252.42 1374C1253.48 1374.44 1254.6 1374.65 1255.71 1374.65C1258.05 1374.65 1260.33 1373.69 1261.93 1371.9L1329.14 1296.76C1354.36 1301.01 1379.62 1303.09 1404.67 1303.09C1428.01 1303.09 1451.17 1301.28 1473.94 1297.76ZM2082.42 482.26C2095.03 497.13 2110.11 510.09 2127.29 520.44L2128.13 562.15C2128.22 566.78 2132.18 564.99 2178.16 580.72C2178.61 580.86 2179.01 580.95 2179.38 580.95C2182.6 580.95 2184.58 574.76 2207.01 546.15C2211.97 546.56 2216.91 546.76 2221.83 546.76C2236.77 546.76 2251.5 544.91 2265.73 541.38L2295.84 570.3C2296.49 570.92 2297.07 571.27 2297.91 571.27C2301.37 571.27 2309.19 565.28 2344.35 548.05C2345.65 547.38 2346.39 545.96 2346.18 544.51L2340.3 503.18C2355.16 490.57 2368.13 475.5 2378.48 458.31C2391.25 457.79 2400.3 457.72 2406.75 457.72C2408 457.72 2409.14 457.72 2410.2 457.72C2411.26 457.72 2412.23 457.73 2413.12 457.73C2421.13 457.73 2422.61 457.51 2423.38 455.1C2437.77 407.64 2441.15 406.35 2437.55 403.64L2404.19 378.59C2405.83 358.6 2404.11 338.79 2399.42 319.87L2428.34 289.76C2431.54 286.43 2427.48 284.89 2406.08 241.26C2405.44 240 2404.77 239.45 2402.84 239.45C2398.72 239.45 2388.86 241.96 2361.22 245.31C2348.61 230.44 2333.53 217.48 2316.35 207.13L2315.51 165.41C2315.42 160.78 2311.46 162.58 2265.48 146.85C2265.02 146.7 2264.63 146.62 2264.25 146.62C2261.07 146.62 2259.13 152.72 2236.63 181.42C2231.67 181.01 2226.72 180.81 2221.8 180.81C2206.86 180.81 2192.14 182.65 2177.91 186.19L2147.8 157.27C2147.15 156.64 2146.29 156.31 2145.42 156.31C2144.89 156.31 2144.36 156.43 2143.86 156.69L2099.3 179.52C2097.99 180.19 2097.26 181.61 2097.46 183.05L2103.34 224.38C2088.48 237 2075.51 252.07 2065.16 269.26C2052.4 269.78 2043.35 269.85 2036.89 269.85C2035.65 269.85 2034.5 269.85 2033.44 269.85C2032.38 269.84 2031.42 269.84 2030.53 269.84C2022.51 269.84 2021.03 270.06 2020.26 272.47C2005.87 319.91 2002.49 321.21 2006.09 323.92L2039.45 348.97C2037.81 368.97 2039.53 388.77 2044.22 407.7C2017.2 437.02 2012.64 437.67 2014.72 441.74L2037.56 486.31C2038.2 487.57 2038.9 488.12 2040.83 488.12C2044.99 488.12 2054.89 485.59 2082.42 482.26Z" />
					<path id="Layer" class="shp1" d="M689.59 861.96C687.12 860.82 685.39 858.34 685.38 855.49C685.34 846.08 685.5 836.52 685.86 827.06C686.01 823.17 689.32 820.2 693.27 820.41C702.84 820.87 699.58 830.22 699.67 855.68C699.69 859.57 696.5 862.68 692.55 862.63C691.5 862.61 690.5 862.38 689.59 861.96Z" />
					<path id="Layer" class="shp1" d="M1737.88 274.94C1691.14 248.12 1681.55 249.86 1686.15 240.23C1689.07 234.12 1696.51 237.01 1695.65 236.98C1712.36 244.94 1728.94 253.63 1744.91 262.79C1748.35 264.76 1749.56 269.08 1747.62 272.43C1745.77 275.63 1741.54 276.98 1737.88 274.94ZM1549.95 192.69C1550.87 188.92 1554.72 186.65 1558.56 187.62C1576.43 192.11 1594.37 197.36 1611.89 203.21C1620.89 206.22 1616.5 219.54 1607.51 216.54C1590.34 210.81 1572.76 205.67 1555.25 201.26C1551.37 200.28 1549.05 196.42 1549.95 192.69ZM1853.88 358.04C1813.43 322.36 1803.78 322.21 1810.27 313.77C1812.64 310.69 1817.11 310.14 1820.28 312.51C1835.01 323.61 1849.49 335.42 1863.31 347.62C1870.42 353.87 1861.01 364.31 1853.88 358.04ZM1407.31 173.22C1407.41 169.33 1410.7 166.32 1414.65 166.5C1433.01 167.31 1451.6 168.86 1469.9 171.1C1479.33 172.27 1477.77 186.22 1468.39 185.08C1450.45 182.88 1432.24 181.37 1414.25 180.57C1410.32 180.4 1407.2 177.11 1407.31 173.22ZM1268.26 188.12C1266.18 187.17 1264.59 185.26 1264.15 182.88C1263.45 179.04 1266.04 175.42 1269.92 174.8C1288.01 171.9 1306.45 169.67 1324.74 168.17C1328.67 167.84 1332.18 170.73 1332.57 174.61C1332.96 178.48 1330.1 181.89 1326.17 182.21C1308.25 183.67 1290.18 185.86 1272.46 188.7C1270.98 188.94 1269.53 188.71 1268.26 188.12ZM1130.21 224.94C1128.58 224.19 1127.23 222.85 1126.51 221.08C1125.04 217.45 1126.81 213.38 1130.48 211.99C1147.56 205.51 1165.1 199.63 1182.61 194.5C1186.38 193.39 1190.39 195.52 1191.58 199.25C1192.76 202.99 1190.67 206.9 1186.9 208.01C1169.74 213.03 1152.55 218.8 1135.81 225.15C1133.93 225.86 1131.92 225.73 1130.21 224.94ZM1000.01 286.11C997.83 282.83 998.72 278.48 1002.01 276.38C1017.34 266.61 1033.25 257.33 1049.31 248.79C1057.57 244.41 1064.53 256.81 1056.27 261.21C1040.53 269.58 1024.94 278.68 1009.92 288.25C1006.64 290.34 1002.2 289.38 1000.01 286.11ZM889.97 375.34C887.16 372.55 887.13 368.1 889.9 365.38C902.83 352.71 916.44 340.4 930.36 328.77C937.52 322.8 946.87 333.61 939.72 339.58C926.08 350.97 912.74 363.04 900.07 375.45C897.3 378.17 892.77 378.12 889.97 375.34ZM799.04 475.4C809.01 460.35 819.71 445.52 830.86 431.29C836.62 423.97 847.95 432.73 842.23 440.03C831.31 453.96 820.82 468.5 811.06 483.24C805.92 490.99 793.92 483.13 799.04 475.4ZM733.28 601.75C739.94 584.87 747.4 567.93 755.2 552.02C759.39 543.46 772.12 550.11 768.1 558.31C760.33 574.19 753.14 590.52 746.62 607.05C745.19 610.65 741.05 612.39 737.37 610.92C733.65 609.44 731.87 605.31 733.28 601.75ZM694.95 739.03C697.96 721.21 701.74 703.3 706.18 685.79C707.13 682.03 711 679.79 714.84 680.8C725.27 683.6 717.95 689.07 709.05 741.59C708.4 745.41 704.72 747.94 700.82 747.24C696.88 746.52 694.3 742.81 694.95 739.03Z" />
					<path id="Layer" class="shp1" d="M1934.82 442.37C1919.67 423.7 1909.91 417.04 1917.2 410.84C1920.16 408.33 1924.68 408.67 1927.29 411.65C1943.74 430.33 1952.12 437.91 1944.88 443.57C1942.71 445.27 1937.31 445.42 1934.82 442.37Z" />
					<path id="Layer" class="shp1" d="M2089.57 967.36C2086.79 966.08 2085.02 963.13 2085.42 960C2086.57 950.82 2087.54 941.51 2088.3 932.33C2088.62 928.45 2092.07 925.63 2096.01 926.01C2099.93 926.41 2102.87 929.84 2102.55 933.72C2101.77 943.09 2100.78 952.59 2099.61 961.96C2099.13 965.82 2095.56 968.5 2091.64 967.96C2090.91 967.86 2090.21 967.65 2089.57 967.36Z" />
					<path id="Layer" class="shp1" d="M2053.86 1115.02C2050.5 1113.47 2048.81 1109.63 2050.07 1106.17C2056.61 1088.19 2062.44 1069.79 2067.39 1051.49C2068.41 1047.75 2072.32 1045.58 2076.14 1046.64C2079.96 1047.72 2082.23 1051.6 2081.21 1055.34C2076.16 1074.02 2070.21 1092.79 2063.53 1111.13C2062.21 1114.77 2058.12 1116.61 2054.4 1115.24C2054.21 1115.17 2054.03 1115.1 2053.86 1115.02ZM1985.5 1250.47C1976.09 1244.48 1985.55 1241.64 2012.26 1191.27C2016.59 1183.11 2029.32 1189.75 2024.96 1197.96C2015.85 1215.15 2005.89 1232.13 1995.35 1248.43C1993.22 1251.73 1988.75 1252.57 1985.5 1250.47ZM1887.8 1367.01C1879.93 1359.15 1889.9 1358.39 1927.27 1315.29C1933.35 1308.27 1944.3 1317.52 1938.2 1324.55C1925.46 1339.25 1911.9 1353.59 1897.91 1367.17C1895.13 1369.86 1890.61 1369.82 1887.8 1367.01ZM1769.22 1461.76C1767.99 1461.19 1766.91 1460.28 1766.13 1459.06C1764.01 1455.74 1765 1451.41 1768.33 1449.38C1784.71 1439.42 1800.85 1428.64 1816.3 1417.34C1819.45 1415.04 1823.93 1415.72 1826.32 1418.86C1828.71 1422 1828.1 1426.4 1824.95 1428.7C1809.18 1440.24 1792.71 1451.24 1776 1461.41C1773.88 1462.69 1771.34 1462.74 1769.22 1461.76ZM1630.38 1526.5C1628.67 1525.72 1627.27 1524.29 1626.59 1522.41C1625.25 1518.72 1627.17 1514.72 1630.88 1513.46C1649.13 1507.29 1667.32 1500.27 1684.96 1492.6C1688.55 1491.05 1692.79 1492.67 1694.44 1496.23C1696.08 1499.79 1694.51 1503.95 1690.92 1505.51C1672.92 1513.33 1654.35 1520.49 1635.74 1526.8C1633.92 1527.41 1632.01 1527.25 1630.38 1526.5ZM1480.06 1559.62C1477.87 1558.6 1476.23 1556.54 1475.9 1554C1475.41 1550.14 1478.18 1546.66 1482.1 1546.24C1501.32 1544.17 1520.69 1541.26 1539.68 1537.59C1543.54 1536.84 1547.34 1539.33 1548.16 1543.15C1548.98 1546.97 1546.52 1550.67 1542.66 1551.41C1523.29 1555.16 1503.52 1558.13 1483.89 1560.24C1482.54 1560.39 1481.23 1560.15 1480.06 1559.62ZM1325.51 1559.31C1322.79 1558.06 1321.03 1555.22 1321.33 1552.14C1321.7 1548.28 1325.2 1545.5 1329.13 1545.94C1348.47 1548.09 1368.09 1549.46 1387.45 1550C1391.41 1550.12 1394.56 1553.35 1394.52 1557.24C1394.48 1561.13 1391.24 1564.19 1387.3 1564.08C1367.53 1563.53 1347.5 1562.14 1327.76 1559.93C1326.96 1559.84 1326.2 1559.63 1325.51 1559.31ZM952.78 1404.28C937.31 1391.87 922.16 1378.65 907.75 1364.99C904.89 1362.27 904.76 1357.81 907.47 1355.03C915.12 1347.19 916.34 1357.03 961.7 1393.42C964.78 1395.9 965.29 1400.33 962.83 1403.33C960.37 1406.33 955.88 1406.75 952.78 1404.28ZM1170.3 1516.82C1173.75 1506.48 1179.42 1514.97 1235.54 1529.04C1239.39 1529.98 1241.75 1533.84 1240.84 1537.6C1239.93 1541.37 1236.08 1543.65 1232.24 1542.69C1213.04 1537.87 1193.74 1532.18 1174.87 1525.78C1171.09 1524.49 1169.08 1520.47 1170.3 1516.82ZM1085.06 1488.54C1067.22 1479.73 1049.55 1470.07 1032.53 1459.83C1029.13 1457.79 1028.01 1453.45 1030.02 1450.14C1035.7 1440.82 1039.1 1450.18 1091.29 1475.97C1094.84 1477.73 1096.33 1481.96 1094.61 1485.43C1091.6 1491.5 1084.2 1488.51 1085.06 1488.54Z" />
					<path id="Layer" class="shp1" d="M841.81 1293.34C826.21 1273.92 818.22 1266 825.72 1260.68C833.53 1255.14 837 1264.83 852.96 1284.73C855.43 1287.8 854.93 1292.23 851.85 1294.61C848.77 1296.99 844.27 1296.42 841.81 1293.34Z" />
					<path id="Layer" fill-rule="evenodd" class="shp2" d="M1549.14 1376.79C1546.75 1376.79 1544.4 1375.79 1542.73 1373.94L1473.94 1297.76C1451.17 1301.28 1428.01 1303.09 1404.67 1303.09C1379.62 1303.09 1354.36 1301.01 1329.14 1296.76L1261.93 1371.9C1260.33 1373.69 1258.05 1374.65 1255.71 1374.65C1254.6 1374.65 1253.48 1374.44 1252.42 1374L1138.24 1326.76C1128.03 1322.54 1135.19 1315.87 1138.16 1217.75C1097.82 1189.12 1063.11 1154.64 1034.77 1116.09L932.42 1121.47C932.11 1121.49 931.81 1121.5 931.52 1121.5C921.39 1121.5 923.71 1110.29 875.83 1003.93C871.53 993.9 881.35 994.34 954.07 928.09C945.84 881.44 945.08 833.3 952.57 785.42L875.13 717.88C866.75 710.57 875.31 708.09 918.79 596.78C920.33 593.04 922.46 591.67 929.39 591.67C941.33 591.67 967.51 595.72 1029.45 598.6C1057.81 559.35 1092.21 525.75 1130.85 498.49L1123.61 397.54C1122.83 386.64 1130.69 390.9 1241.95 343.83C1243.16 343.34 1244.23 343.05 1245.3 343.05C1253.17 343.05 1260.46 358.65 1320.29 422.24C1343.07 418.72 1366.22 416.92 1389.57 416.92C1414.61 416.92 1439.87 418.99 1465.1 423.25L1532.31 348.11C1533.88 346.34 1535.22 345.36 1537.53 345.36C1545.82 345.36 1566.66 358.06 1656 393.24C1666.21 397.47 1659.05 404.19 1656.08 502.25C1696.42 530.88 1731.13 565.36 1759.47 603.91L1861.82 598.53C1862.13 598.51 1862.43 598.5 1862.72 598.5C1872.85 598.5 1870.53 609.72 1918.41 716.07C1922.69 726.05 1913.14 725.44 1840.17 791.92C1848.4 838.56 1849.16 886.7 1841.67 934.59L1919.11 1002.12C1921.83 1004.49 1922.75 1008.27 1921.41 1011.53L1875.45 1123.22C1874.18 1126.31 1871.15 1128.29 1867.78 1128.29C1867.59 1128.29 1867.39 1128.28 1867.2 1128.27L1764.79 1121.41C1736.43 1160.66 1702.03 1194.26 1663.39 1221.51L1670.63 1322.46C1670.89 1326 1668.84 1329.27 1665.53 1330.6L1552.29 1376.18C1551.27 1376.59 1550.2 1376.79 1549.14 1376.79ZM1232.52 1087.59C1229.15 1087.59 1225.85 1089.15 1223.81 1092.08C1223.46 1092.59 1223.16 1093.11 1222.91 1093.66C1220.81 1098.22 1222.3 1103.8 1226.68 1106.8C1241.26 1116.77 1256.78 1125.55 1272.95 1133C1276.78 1134.76 1280.64 1136.45 1284.53 1138.06C1323.37 1154.13 1364.12 1162.17 1404.76 1162.17C1443.9 1162.17 1482.93 1154.71 1520.03 1139.78C1591.73 1110.91 1648.08 1057.42 1679.9 988.36C1681.63 984.59 1683.3 980.78 1684.88 976.92C1715.58 902.33 1714.74 819.93 1682.52 744.89C1628.82 619.77 1510.76 556.29 1393.67 556.29C1282.57 556.29 1172.36 613.48 1118.93 729.41C1093.5 784.59 1086.36 844.36 1095.45 900.88C1096.38 906.72 1101.36 909.96 1106.31 909.96C1110.12 909.96 1113.92 908.03 1115.82 903.9C1119.86 895.13 1098.68 834.54 1133.88 748.99C1178.29 641.21 1283.45 576.81 1394.85 576.81C1431.98 576.81 1469.83 583.98 1506.33 599.07C1652.51 659.59 1724.29 824.58 1664.99 968.69C1663.52 972.25 1661.99 975.77 1660.39 979.25C1613.77 1080.4 1511.93 1140.88 1404.03 1140.88C1366.91 1140.88 1329.08 1133.72 1292.54 1118.6C1273.59 1110.75 1255.47 1100.97 1238.7 1089.5C1236.81 1088.21 1234.65 1087.59 1232.52 1087.59ZM1394.96 741.75C1336.79 741.75 1286.3 783.64 1278.21 842C1269.28 906.43 1315.34 966.94 1380.92 976.87C1387.1 977.8 1393.22 978.25 1399.28 978.25C1457.44 978.25 1507.94 936.36 1516.03 878C1524.96 813.56 1478.88 753.08 1413.32 743.14C1407.14 742.2 1401.01 741.75 1394.96 741.75ZM1398.89 957.12C1393.93 957.12 1388.89 956.75 1383.81 955.98C1329.96 947.84 1292.12 898.14 1299.46 845.22C1306.2 796.61 1348.03 762.89 1395.36 762.89C1400.33 762.89 1405.37 763.26 1410.43 764.03C1464.18 772.15 1502.13 821.78 1494.78 874.78C1488.14 922.72 1446.67 957.12 1398.89 957.12Z" />
					<path id="Layer" fill-rule="evenodd" class="shp3" d="M1399.28 978.25C1393.22 978.25 1387.1 977.8 1380.92 976.87C1315.34 966.94 1269.28 906.43 1278.21 842C1286.3 783.64 1336.79 741.75 1394.96 741.75C1401.01 741.75 1407.14 742.2 1413.32 743.14C1478.88 753.08 1524.96 813.56 1516.03 878C1507.94 936.36 1457.44 978.25 1399.28 978.25ZM1395.36 762.89C1348.03 762.89 1306.2 796.61 1299.46 845.22C1292.12 898.14 1329.96 947.84 1383.81 955.98C1388.89 956.75 1393.93 957.12 1398.89 957.12C1446.67 957.12 1488.14 922.72 1494.78 874.78C1502.13 821.78 1464.18 772.15 1410.43 764.03C1405.37 763.26 1400.33 762.89 1395.36 762.89ZM1382.37 966.42L1382.43 966.45L1382.37 966.42Z" />
					<path id="Layer" class="shp4" d="M1404.76 1162.17C1364.12 1162.17 1323.37 1154.13 1284.53 1138.06C1280.64 1136.45 1276.78 1134.76 1272.95 1133C1256.78 1125.55 1241.26 1116.77 1226.68 1106.8C1222.3 1103.8 1220.81 1098.22 1222.91 1093.66C1223.16 1093.11 1223.46 1092.59 1223.81 1092.08C1225.85 1089.15 1229.15 1087.59 1232.52 1087.59C1234.65 1087.59 1236.81 1088.21 1238.7 1089.5C1255.47 1100.97 1273.59 1110.75 1292.54 1118.6C1329.08 1133.72 1366.91 1140.88 1404.03 1140.88C1511.93 1140.88 1613.77 1080.4 1660.39 979.25C1661.99 975.77 1663.52 972.25 1664.99 968.69C1724.29 824.58 1652.51 659.59 1506.33 599.07C1469.83 583.98 1431.98 576.81 1394.85 576.81C1283.45 576.81 1178.29 641.21 1133.88 748.99C1098.68 834.54 1119.86 895.13 1115.82 903.9C1113.92 908.03 1110.12 909.96 1106.31 909.96C1101.36 909.96 1096.38 906.72 1095.45 900.88C1086.36 844.36 1093.5 784.59 1118.93 729.41C1172.36 613.48 1282.57 556.29 1393.67 556.29C1510.76 556.29 1628.82 619.77 1682.52 744.89C1714.74 819.93 1715.58 902.33 1684.88 976.92C1683.3 980.78 1681.63 984.59 1679.9 988.36C1648.08 1057.42 1591.73 1110.91 1520.03 1139.78C1482.93 1154.71 1443.9 1162.17 1404.76 1162.17Z" />
					<path id="Layer" fill-rule="evenodd" class="shp5" d="M2179.38 580.95C2179.01 580.95 2178.61 580.86 2178.16 580.72C2132.18 564.99 2128.22 566.78 2128.13 562.15L2127.29 520.44C2110.11 510.09 2095.03 497.13 2082.42 482.26C2054.89 485.59 2044.99 488.12 2040.83 488.12C2038.9 488.12 2038.2 487.57 2037.56 486.31L2014.72 441.74C2012.64 437.67 2017.2 437.02 2044.22 407.7C2039.53 388.77 2037.81 368.97 2039.45 348.97L2006.09 323.92C2002.49 321.21 2005.87 319.91 2020.26 272.47C2021.03 270.06 2022.51 269.84 2030.53 269.84C2031.42 269.84 2032.38 269.84 2033.44 269.85C2034.5 269.85 2035.65 269.85 2036.89 269.85C2043.35 269.85 2052.4 269.78 2065.16 269.26C2075.51 252.07 2088.48 237 2103.34 224.38L2097.46 183.05C2097.26 181.61 2097.99 180.19 2099.3 179.52L2143.86 156.69C2144.36 156.43 2144.89 156.31 2145.42 156.31C2146.29 156.31 2147.15 156.64 2147.8 157.27L2177.91 186.19C2192.14 182.65 2206.86 180.81 2221.8 180.81C2226.72 180.81 2231.67 181.01 2236.63 181.42C2259.13 152.72 2261.07 146.62 2264.25 146.62C2264.63 146.62 2265.02 146.7 2265.48 146.85C2311.46 162.58 2315.42 160.78 2315.51 165.41L2316.35 207.13C2333.53 217.48 2348.61 230.44 2361.22 245.31C2388.86 241.96 2398.72 239.45 2402.84 239.45C2404.77 239.45 2405.44 240 2406.08 241.26C2427.48 284.89 2431.54 286.43 2428.34 289.76L2399.42 319.87C2404.11 338.79 2405.83 358.6 2404.19 378.59L2437.55 403.64C2441.15 406.35 2437.77 407.64 2423.38 455.1C2422.61 457.51 2421.13 457.73 2413.12 457.73C2412.23 457.73 2411.26 457.72 2410.2 457.72C2409.14 457.72 2408 457.72 2406.75 457.72C2400.3 457.72 2391.25 457.79 2378.48 458.31C2368.13 475.5 2355.16 490.57 2340.3 503.18L2346.18 544.51C2346.39 545.96 2345.65 547.38 2344.35 548.05C2309.19 565.28 2301.37 571.27 2297.91 571.27C2297.07 571.27 2296.49 570.92 2295.84 570.3L2265.73 541.38C2251.5 544.91 2236.77 546.76 2221.83 546.76C2216.91 546.76 2211.97 546.56 2207.01 546.15C2184.58 574.76 2182.6 580.95 2179.38 580.95ZM2162.15 460C2159.46 460 2156.83 461.39 2155.38 463.88C2153.35 467.4 2154.21 472.23 2158.49 474.68C2166.29 479.16 2174.62 482.85 2183.24 485.63L2183.25 485.63C2196.47 489.89 2209.79 491.9 2222.84 491.9C2272.7 491.9 2318.59 462.54 2339.44 417.29C2372.06 346.5 2334.94 264.26 2262.2 240.82C2249.13 236.6 2235.86 234.59 2222.81 234.59C2168.43 234.59 2117.83 269.4 2100.32 323.75C2093.16 345.93 2092.15 369.6 2097.4 392.2C2098.24 395.8 2101.43 398.23 2104.97 398.23C2105.56 398.23 2106.15 398.16 2106.74 398.02C2123.18 394.22 2096.33 367.4 2120.08 315.85C2138.73 275.36 2179.42 250.17 2222.81 250.17C2234.27 250.17 2245.94 251.93 2257.42 255.64C2352.94 286.42 2363.48 418.12 2274.26 463.83C2255.37 473.48 2237.44 476.29 2222.86 476.29C2202.73 476.29 2189 470.92 2188.03 470.81C2180.33 468.33 2172.93 465.04 2166.02 461.04C2164.81 460.33 2163.47 460 2162.15 460ZM2221.76 311.53C2194.43 311.53 2171.47 332.74 2169.68 360.41C2167.82 389.16 2189.69 414.06 2218.44 415.92C2219.59 416 2220.72 416.03 2221.85 416.03C2249.14 416.03 2272.17 394.76 2273.96 367.16C2275.83 338.34 2254.01 313.51 2225.2 311.64C2224.05 311.57 2222.9 311.53 2221.76 311.53ZM2221.98 400.47C2221.14 400.47 2220.3 400.44 2219.45 400.38C2199.28 399.08 2183.92 381.6 2185.22 361.41C2186.59 340.27 2204.14 327.13 2222.15 327.13C2231.93 327.13 2241.84 331 2249.38 339.58C2270.32 363.42 2252.83 400.47 2221.98 400.47Z" />
					<path id="Layer" fill-rule="evenodd" class="shp6" d="M2221.85 416.03C2220.72 416.03 2219.59 416 2218.44 415.92C2189.69 414.06 2167.82 389.16 2169.68 360.41C2171.47 332.74 2194.43 311.53 2221.76 311.53C2222.9 311.53 2224.05 311.57 2225.2 311.64C2254.01 313.51 2275.83 338.34 2273.96 367.16C2272.17 394.76 2249.14 416.03 2221.85 416.03ZM2222.15 327.13C2204.14 327.13 2186.59 340.27 2185.22 361.41C2183.92 381.6 2199.28 399.08 2219.45 400.38C2220.3 400.44 2221.14 400.47 2221.98 400.47C2252.83 400.47 2270.32 363.42 2249.38 339.58C2241.84 331 2231.93 327.13 2222.15 327.13ZM2218.94 408.15L2218.99 408.18L2218.94 408.15Z" />
					<path id="Layer" class="shp1" d="M1959.57 441.95C1957.56 435.23 1955.79 428.33 1954.31 421.45C1953.71 418.65 1955.49 415.89 1958.29 415.29C1965.35 413.77 1964.34 421.64 1969.51 438.98C1970.33 441.73 1968.77 444.62 1966.02 445.44C1963.29 446.26 1960.39 444.71 1959.57 441.95Z" />
					<path id="Layer" class="shp1" d="M2247.09 96.44C2247.41 93.6 2249.98 91.54 2252.83 91.87C2267.02 93.47 2281.14 96.2 2294.83 99.97C2301.43 101.75 2298.71 111.8 2292.07 109.98C2278.91 106.35 2265.31 103.73 2251.67 102.19C2248.75 101.85 2246.78 99.23 2247.09 96.44ZM2141.07 111.72C2139.78 111.12 2138.73 109.99 2138.28 108.52C2137.44 105.78 2138.98 102.88 2141.72 102.04C2155.33 97.87 2169.37 94.75 2183.47 92.77C2186.31 92.37 2188.94 94.35 2189.33 97.19C2189.73 100.03 2187.76 102.65 2184.92 103.05C2171.36 104.95 2157.85 107.95 2144.76 111.96C2143.49 112.35 2142.19 112.23 2141.07 111.72ZM2045.18 164.48C2044.52 164.17 2043.91 163.73 2043.41 163.14C2041.54 160.96 2041.8 157.68 2043.98 155.82C2054.79 146.56 2066.42 138.09 2078.53 130.63C2080.97 129.13 2084.17 129.89 2085.67 132.33C2087.17 134.77 2086.41 137.97 2083.97 139.47C2072.32 146.64 2061.14 154.8 2050.73 163.71C2049.14 165.07 2046.96 165.3 2045.18 164.48ZM1978.1 251.01C1975.52 249.76 1974.45 246.65 1975.7 244.07C1981.92 231.29 1989.22 218.88 1997.38 207.2C2001.31 201.58 2009.82 207.51 2005.89 213.15C1998.04 224.38 1991.02 236.32 1985.04 248.62C1982.83 253.14 1977.47 251 1978.1 251.01ZM1948.46 352.3C1949.04 338.53 1950.69 324.19 1953.56 309.85C1954.9 303.1 1965.08 305.17 1963.74 311.88C1956.31 349.05 1962.11 358.08 1953.43 357.71C1950.54 357.58 1948.34 355.15 1948.46 352.3Z" />
					<path id="Layer" class="shp1" d="M2371.04 146.8C2355.35 135.99 2348.44 134.88 2351.96 128.81C2353.4 126.33 2356.52 125.45 2359.06 126.93C2365.11 130.44 2371.12 134.25 2376.93 138.25C2379.29 139.88 2379.88 143.11 2378.26 145.47C2376.65 147.79 2373.45 148.45 2371.04 146.8Z" />
					<path id="Layer" class="shp1" d="M2483.01 330.17C2480.58 311.21 2476.81 305.37 2483.67 303.95C2486.49 303.37 2489.23 305.17 2489.81 307.98C2491.23 314.83 2492.41 321.85 2493.3 328.85C2493.67 331.7 2491.66 334.3 2488.81 334.66C2485.98 335.02 2483.37 333.02 2483.01 330.17Z" />
					<path id="Layer" class="shp1" d="M2475.18 435.53C2485.45 399.16 2480.32 390.28 2488.93 391.33C2491.78 391.68 2493.8 394.26 2493.45 397.11C2491.75 411.05 2488.97 424.92 2485.17 438.35C2484.39 441.11 2481.53 442.72 2478.77 441.94C2476.01 441.16 2474.4 438.29 2475.18 435.53ZM2427.34 536.57C2420.61 531.12 2430.65 528.46 2449.56 495.97C2453 490.04 2461.99 495.24 2458.53 501.18C2451.5 513.27 2443.46 524.92 2434.65 535.81C2432.84 538.04 2429.57 538.37 2427.34 536.57ZM2342.92 603.44C2338.87 595.8 2349.11 597.26 2379.25 574.76C2384.75 570.66 2390.97 578.97 2385.46 583.08C2374.23 591.47 2362.28 599.04 2349.93 605.59C2347.41 606.93 2344.26 605.97 2342.92 603.44ZM2239.03 631.71C2238.79 628.85 2240.92 626.35 2243.78 626.11C2281.47 623.02 2287.94 615.11 2289.98 623.52C2290.65 626.31 2288.94 629.11 2286.15 629.79C2272.56 633.07 2258.59 635.31 2244.62 636.46C2241.77 636.69 2239.26 634.57 2239.03 631.71ZM2132.33 616.94C2135.04 608.75 2141.18 617.19 2178.17 623.36C2184.93 624.48 2183.25 634.74 2176.46 633.6C2162.63 631.29 2148.89 627.89 2135.63 623.5C2132.95 622.62 2131.42 619.7 2132.33 616.94Z" />
					<path id="Layer" class="shp1" d="M2073.83 593.94C2067.93 590.13 2062.1 586.05 2056.51 581.8C2054.23 580.07 2053.78 576.81 2055.52 574.53C2059.88 568.78 2064.22 575.39 2079.46 585.21C2081.87 586.76 2082.56 589.98 2081.01 592.39C2079.44 594.83 2076.2 595.47 2073.83 593.94Z" />
					<path id="Layer" class="shp7" d="M2222.84 491.9C2209.79 491.9 2196.47 489.89 2183.25 485.63L2183.24 485.63C2174.62 482.85 2166.29 479.16 2158.49 474.68C2154.21 472.23 2153.35 467.4 2155.38 463.88C2156.83 461.39 2159.46 460 2162.15 460C2163.47 460 2164.81 460.33 2166.02 461.04C2172.93 465.04 2180.33 468.33 2188.03 470.81C2189 470.92 2202.73 476.29 2222.86 476.29C2237.44 476.29 2255.37 473.48 2274.26 463.83C2363.48 418.12 2352.94 286.42 2257.42 255.64C2245.94 251.93 2234.27 250.17 2222.81 250.17C2179.42 250.17 2138.73 275.36 2120.08 315.85C2096.33 367.4 2123.18 394.22 2106.74 398.02C2106.15 398.16 2105.56 398.23 2104.97 398.23C2101.43 398.23 2098.24 395.8 2097.4 392.2C2092.15 369.6 2093.16 345.93 2100.32 323.75C2117.83 269.4 2168.43 234.59 2222.81 234.59C2235.86 234.59 2249.13 236.6 2262.2 240.82C2334.94 264.26 2372.06 346.5 2339.44 417.29C2318.59 462.54 2272.7 491.9 2222.84 491.9Z" />
					<path id="Layer" class="shp8" d="M2299.93 1124.8C2297.38 1119.92 2290.16 1120.69 2288.69 1125.99C2283.24 1145.61 2270.04 1179.86 2242.35 1192.02C2240.96 1192.63 2239.64 1193.25 2238.36 1193.87C2237.1 1190.11 2237.09 1185.74 2240.09 1181.14C2248.7 1167.98 2233.16 1150.02 2233.16 1150.02C2233.16 1150.02 2232.13 1165.84 2220.11 1175.8C2209.75 1184.39 2204.77 1203.48 2211.85 1219.15C2226.84 1277.36 2249.28 1354.35 2161.87 1410.59C2074.46 1466.83 1951.36 1304.45 1951.36 1304.45L2012.45 1498.13C2012.45 1498.13 2106.76 1567.72 2216.45 1469.87C2326.14 1372.01 2253.43 1229.62 2253.43 1229.62C2253.43 1229.62 2337.1 1195.87 2299.93 1124.8Z" />
					<path id="Layer" class="shp9" d="M1936.05 1019.86C1936.05 1019.86 1961.37 906.26 1831.25 936.34C1831.25 936.34 1768.09 926.02 1764.88 985.63C1764.88 985.63 1724.16 1012.46 1753.97 1064.05C1753.97 1064.05 1632.97 1017.32 1580.25 1123.37C1527.53 1229.43 1575.99 1287.79 1626.79 1302.99C1626.79 1302.99 1585.63 1323.65 1605.12 1370.32C1624.6 1416.98 1723.26 1449.87 1781.54 1393.13C1781.54 1393.13 1947.38 1415.04 1944.06 1297.9C1944.06 1297.9 2021.2 1248.09 1940.18 1151.29C1859.17 1054.48 1936.05 1019.86 1936.05 1019.86Z" />
					<path id="Layer" class="shp10" d="M1943.19 1283.17C1917.05 1275.33 1840.91 1260.86 1768.5 1327.68C1756.22 1339.02 1751.2 1356.24 1755.58 1372.37C1775.03 1443.98 1826.34 1655.54 1781.35 1747.07C1781.35 1747.07 1860.64 1834.49 1947.15 1764.03C1947.15 1764.03 1985.97 1594.87 2036.8 1520.61C2071.9 1469.33 1980.84 1328.08 1957.8 1293.95C1954.31 1288.78 1949.17 1284.96 1943.19 1283.17Z" />
					<path id="Layer" class="shp11" d="M1871 1140.9C1871 1140.9 1832.33 1250.28 1829.42 1298.54C1829.42 1298.54 1872.16 1317.97 1912.43 1285.17C1912.43 1285.17 1916.65 1175.92 1922.76 1156.35L1871 1140.9Z" />
					<path id="Layer" class="shp12" d="M1924.71 991.76C1924.71 991.76 2025.86 1133.31 1965.4 1174.42C1904.93 1215.54 1832.93 1114.95 1832.93 1114.95C1832.93 1114.95 1809.46 1037.47 1834 1011.19C1858.54 984.91 1924.71 991.76 1924.71 991.76Z" />
					<path id="Layer" class="shp13" d="M1877.9 957.94C1877.9 957.94 1924.36 968.95 1930.87 989.97C1937.38 1011 1864.98 1030.49 1844.69 1031.44L1828.35 1116.28C1828.35 1116.28 1780.02 1036.47 1799.17 990.38C1818.31 944.29 1877.9 957.94 1877.9 957.94Z" />
					<path id="Layer" class="shp14" d="M1852.54 1104.53C1852.54 1104.53 1813.17 1058.94 1797.51 1088.66C1781.85 1118.39 1832.95 1140.7 1850.64 1126.11L1852.54 1104.53Z" />
					<path id="Layer" class="shp15" d="M2048.14 2119.21C2047.84 2126.89 2061.33 2187.81 2068.66 2220.3C2071.62 2233.37 2069.56 2247.05 2062.91 2258.69L1808.77 2686.41C1805.7 2691.58 1803.46 2697.18 1802.1 2703.05C1797.44 2723.12 1787.78 2772.31 1792.83 2817.06L1805.97 2844.37L1749.11 2831.46L1736.74 2678.77L1752.84 2668.95C1766.74 2660.47 1777.57 2647.8 1783.77 2632.74C1806.75 2576.92 1863.82 2434.83 1878.53 2365.58C1895.24 2286.88 1982.64 2222.96 1982.64 2222.96L1967.28 2186.67L2048.14 2119.21Z" />
					<path id="Layer" class="shp16" d="M1685.92 2778.92C1685.92 2778.92 1716.63 2730.24 1720.24 2711.29C1723.85 2692.34 1733.91 2658.88 1752.84 2668.95C1752.84 2668.95 1761.76 2761 1758.68 2796.96C1755.61 2832.93 1799.34 2831.77 1799.34 2831.77C1799.34 2831.77 1811.4 2833.47 1820.22 2842.29C1826.32 2848.39 1821.96 2858.96 1813.36 2859.51C1799.05 2860.44 1776.32 2860.68 1752.45 2856.06C1744.1 2854.45 1737.92 2847.36 1737.42 2838.87L1731.11 2732.93L1692.38 2781.84L1685.92 2778.92Z" />
					<path id="Layer" class="shp17" d="M1896.32 2187.34C1896.32 2187.34 1887.36 2569.94 1886.15 2624.27C1884.93 2678.61 1894.73 2799.03 1949.2 2835.02L1925.5 2852.57C1925.5 2852.57 1895.87 2827.4 1866.93 2778.94C1834.43 2724.51 1824.59 2714.56 1824.59 2714.56L1835.38 2692.47C1840.11 2682.8 1841.49 2671.86 1839.32 2661.32C1827.56 2604.34 1788.29 2414.84 1777.58 2374.04C1764.94 2325.86 1764.04 2261.53 1808.03 2207.68C1852.02 2153.84 1896.32 2187.34 1896.32 2187.34Z" />
					<path id="Layer" class="shp18" d="M1846.02 2869.82C1844.33 2869.83 1842.9 2868.62 1842.66 2866.95C1840.84 2854.19 1833.3 2803.06 1827.12 2789.82C1820.05 2774.65 1796.94 2710.83 1827.14 2705.41C1827.14 2705.41 1902.2 2815.07 1916.61 2829.86C1931.02 2844.65 1949.2 2835.02 1949.2 2835.02C1949.2 2835.02 1963.24 2839.17 1973.83 2852.7C1978.86 2859.14 1974.17 2868.59 1965.99 2868.67L1915.44 2869.15C1900.75 2869.29 1887.55 2860.37 1882.09 2846.74C1873.19 2824.51 1857.9 2791.91 1840.08 2777.44L1849.34 2866.1C1849.55 2868.07 1848.01 2869.8 1846.02 2869.82Z" />
					<path id="Layer" class="shp19" d="M1959.12 1722.78C1959.12 1722.78 1947.73 1759.1 1965.23 1818.91L2073.81 2198.07C2075.51 2204.03 2072.3 2210.26 2066.46 2212.35C2033.99 2224.01 1927.22 2256.96 1781.48 2246.91C1774.14 2246.4 1767.99 2241.21 1766.39 2234.03C1756.79 2190.8 1724.02 2043.32 1717.28 2013.02C1691.57 1897.55 1662.87 1773.03 1789.14 1697.74C1847.33 1722.66 1901.6 1737.35 1959.12 1722.78Z" />
					<path id="Layer" class="shp20" d="M1758.14 1341.97C1758.14 1341.97 1634.6 1444.64 1603.94 1584.93C1573.28 1725.22 1784.46 1740.13 1784.46 1740.13C1784.46 1740.13 1813.13 1708.11 1847.16 1719.53C1881.2 1730.95 1849.8 1663.66 1809.98 1663.84C1770.16 1664.01 1788.6 1695.5 1732.27 1669.98C1677.39 1645.13 1643.48 1568.25 1783.49 1451.72C1791.6 1444.96 1798.08 1436.35 1801.98 1426.54C1829.18 1358.07 1807.61 1313.18 1758.14 1341.97Z" />
					<path id="Layer" class="shp21" d="M543.4 2290.08C532.52 2306.18 489.28 2670.71 482.51 2805.35C482.05 2814.45 489.34 2822.04 498.45 2822.04C506.31 2822.04 513 2816.32 514.22 2808.55L593.31 2301.68L543.4 2290.08Z" />
					<path id="Layer" class="shp22" d="M891.08 2290.08C901.96 2306.18 945.21 2670.71 951.98 2805.35C952.43 2814.45 945.15 2822.04 936.03 2822.04C928.17 2822.04 921.48 2816.32 920.27 2808.55L841.17 2301.68L891.08 2290.08Z" />
					<path id="Layer" class="shp23" d="M477.99 2261.63L477.95 2265.61C477.69 2294.21 502.33 2317.67 533.18 2318.19L898.77 2324.41C929.18 2324.92 954.52 2302.95 956 2274.8L956.19 2271.16C957.73 2241.8 932.79 2217.06 901.08 2216.49L535.33 2209.94C504.03 2209.38 478.25 2232.61 477.99 2261.63Z" />
					<path id="Layer" class="shp24" d="M1113.32 2770.48C1050.9 2770.48 1023.27 2765.13 1010.92 2760.24C1013.33 2770.5 1022.46 2778.59 1034 2778.59L1254.84 2778.59C1262.28 2778.59 1266.98 2771.47 1265.2 2765.03C1240.02 2767.05 1186.55 2770.48 1113.32 2770.48Z" />
					<path id="Layer" class="shp25" d="M1265.2 2765.03C1264.84 2763.73 1264.31 2762.45 1263.39 2761.27C1246.57 2739.79 1212.77 2706.06 1166.8 2706.7C1099.46 2707.65 1075.98 2714.96 1023.65 2707.11L1011.3 2748.04C1010.04 2752.21 1010.02 2756.38 1010.92 2760.24C1023.27 2765.13 1050.9 2770.48 1113.32 2770.48C1186.55 2770.48 1240.02 2767.05 1265.2 2765.03Z" />
					<path id="Layer" class="shp26" d="M1038.8 2663.02L1023.65 2714.56C1023.65 2714.56 1057.22 2729.84 1086.75 2717.57L1092.55 2672.92L1038.8 2663.02Z" />
					<path id="Layer" class="shp27" d="M1496.54 2738.03C1447.87 2777.13 1423 2790.27 1410.33 2794.22C1418.59 2800.67 1430.75 2801.23 1439.75 2794L1611.91 2655.67C1617.71 2651.01 1616.93 2642.55 1611.52 2638.66C1593.16 2656 1553.62 2692.16 1496.54 2738.03Z" />
					<path id="Layer" class="shp28" d="M1611.52 2638.66C1610.43 2637.88 1609.23 2637.22 1607.77 2636.88C1581.27 2630.75 1533.9 2625.75 1498.46 2655.05C1446.56 2697.96 1432.81 2718.34 1387.13 2745.03L1403.01 2784.51C1404.63 2788.54 1407.21 2791.78 1410.33 2794.22C1423 2790.27 1447.87 2777.13 1496.54 2738.03C1553.62 2692.16 1593.16 2656 1611.52 2638.66Z" />
					<path id="Layer" class="shp29" d="M714.62 2075.79C714.62 2075.79 1088.37 2106.31 1165.04 2142.4C1241.71 2178.5 1102.47 2684.37 1102.47 2684.37C1102.47 2684.37 1081.6 2694.42 1035.15 2679.98C1035.15 2679.98 1082.78 2306.66 1047.34 2225.71L642.66 2159.52L714.62 2075.79Z" />
					<path id="Layer" class="shp30" d="M1349.99 2673.97C1353.46 2677.13 1387.13 2745.03 1387.13 2745.03C1387.13 2745.03 1424.6 2736.92 1432.25 2713.2L1398.52 2651.92L1349.99 2673.97Z" />
					<path id="Layer" class="shp31" d="M489.51 2072.67C489.51 2072.67 477.33 2101.98 477.82 2140.92C478.51 2194.78 521.81 2238.49 575.61 2241.17L1017.45 2261.32C1026.78 2261.75 1034.67 2268.21 1037.01 2277.25C1047.4 2317.41 1098.15 2440.74 1346.22 2686.83C1352.82 2693.37 1363.1 2694.49 1370.96 2689.52L1406.28 2667.22C1409.99 2664.87 1411.17 2660.01 1408.95 2656.23L1151.69 2216.92C1138.18 2194.62 1116.46 2178.51 1091.2 2172.05L714.62 2075.79L489.51 2072.67Z" />
					<path id="Layer" class="shp32" d="M924.93 1386.42C924.93 1386.42 877.6 1470.11 829.35 1510.65L929.09 1566.31C929.09 1566.31 951.57 1477.71 1002.92 1451.77L924.93 1386.42Z" />
					<path id="Layer" class="shp33" d="M481.48 2075.79C481.48 2075.79 600.76 2104.86 714.62 2075.79C714.62 2075.79 873.93 1861.63 935.56 1803.34C935.56 1803.34 1033.88 1958.48 1252.7 1980.46L1264.91 1953.19C1264.91 1953.19 1090.7 1872.88 1037.07 1749.49C983.44 1626.1 961.9 1573.47 913.1 1541.28C882.72 1521.23 864.52 1507.53 855.12 1500.05C849.97 1495.95 842.87 1495.49 837.25 1498.91C785.47 1530.47 541.82 1697.34 481.48 2075.79Z" />
					<path id="Layer" class="shp34" d="M929.1 1800.32C926.8 1800.32 924.53 1799.29 923.02 1797.33C885.04 1747.8 863.88 1693.2 863 1690.91C861.49 1686.96 863.46 1682.54 867.4 1681.02C871.35 1679.51 875.77 1681.48 877.28 1685.42C877.49 1685.97 898.58 1740.3 935.16 1788.02C937.73 1791.37 937.1 1796.17 933.75 1798.75C932.36 1799.81 930.72 1800.32 929.1 1800.32Z" />
					<path id="Layer" class="shp35" d="M1239.55 1938.95L1264.18 1932.38L1338.96 1915.06C1347.96 1912.98 1357.43 1914.57 1365.25 1919.5L1429.55 1959.95L1251.97 1959.65L1239.55 1938.95Z" />
					<path id="Layer" class="shp36" d="M1000.09 1260.94C1000.09 1260.94 1046.09 1337.4 1054.07 1379.66C1062.05 1421.93 1074.86 1448.35 1026.76 1463.4C978.66 1478.46 933.96 1459.4 905.91 1419.95C905.91 1419.95 862.1 1359.24 866.47 1331.44C870.84 1303.64 1000.09 1260.94 1000.09 1260.94Z" />
					<path id="Layer" class="shp37" d="M918.71 1387.25L924.93 1386.42C924.93 1386.42 892.36 1337.21 913.68 1325C934.99 1312.79 1021.84 1282.83 1036.92 1248.63C1051.46 1215.65 1029.71 1178.4 1003.49 1170.63C1001.83 1170.13 1000.08 1171.11 999.48 1172.74L997.94 1176.89C996.88 1179.73 992.9 1179.85 991.69 1177.07C990.53 1174.43 986.76 1174.32 985.57 1176.94C980.92 1187.19 966.99 1204.69 925.23 1218.23C865.96 1237.45 829.04 1267.32 833.59 1309.43C833.88 1312.1 831.23 1313.94 828.77 1312.85C823.93 1310.71 816.58 1310.37 808.06 1319.7C793.23 1335.92 804.84 1371.4 845.35 1396.51C847.27 1397.7 847.62 1400.42 845.89 1401.89C839.84 1407.08 831.31 1418.65 858.72 1428.96C886.75 1439.51 902.05 1435.94 907.7 1433.67C909.22 1433.06 910.09 1431.49 909.77 1429.88L902.58 1392.98C902.2 1391.07 903.52 1389.25 905.45 1388.99L918.71 1387.25Z" />
					<path id="Layer" class="shp38" d="M921.27 1394.83C921.27 1394.83 900.97 1344.79 879.65 1362.38C858.33 1379.96 899.36 1418.84 918.29 1418.32L921.27 1394.83Z" />
					<path id="Layer" class="shp39" d="M1243.21 1984.21C1243.5 1984.23 1243.79 1984.24 1244.09 1984.23L1625.97 1983.85C1635.41 1983.85 1643.05 1976.2 1643.04 1966.78C1643.03 1957.35 1635.34 1949.56 1625.93 1949.73L1244.05 1950.11C1234.61 1950.12 1226.96 1957.77 1226.97 1967.19C1226.98 1976.32 1234.18 1983.77 1243.21 1984.21Z" />
					<path id="Layer" class="shp40" d="M1773.86 1610.23C1773.72 1610.49 1773.59 1610.75 1773.47 1611.02L1612.79 1957.45C1608.81 1966.02 1612.53 1976.17 1621.07 1980.13C1629.63 1984.1 1639.93 1980.41 1643.75 1971.8L1804.43 1625.37C1808.4 1616.81 1804.69 1606.66 1796.14 1602.69C1787.86 1598.85 1778.07 1602.23 1773.86 1610.23Z" />
					<path id="Layer" class="shp41" d="M2745.6 2715.9C2745.6 2715.9 2749.81 2739.28 2751.47 2767.03C2752.18 2778.86 2743.42 2789.14 2731.63 2790.28C2690.56 2794.26 2597.09 2801.62 2537.41 2793C2529.05 2791.8 2525.73 2781.53 2531.91 2775.77C2556.52 2752.84 2615.95 2708.24 2713.77 2698.5L2745.6 2715.9Z" />
					<path id="Layer" class="shp42" d="M2766.01 2663.2L2745.25 2714.09C2742.41 2721.06 2735.33 2725.39 2727.84 2724.61C2722.76 2724.08 2716.74 2723.1 2710.88 2721.33C2699.17 2717.77 2692.56 2705.35 2696.07 2693.62L2711.74 2641.21L2766.01 2663.2Z" />
					<path id="Layer" class="shp43" d="M3120.96 2756.43C3120.96 2756.43 3079.39 2791.21 3063.19 2835.83C3058.73 2848.1 3068.15 2861.03 3081.2 2861.03L3166.76 2861.03C3179.28 2861.03 3188.88 2849.77 3186.7 2837.44C3181.25 2806.63 3165.53 2756.56 3120.96 2756.43Z" />
					<path id="Layer" class="shp44" d="M3172.46 2711.16C3172.46 2711.16 3164.06 2748.33 3157.61 2772.89C3156.43 2777.35 3151.68 2779.8 3147.34 2778.24C3134.39 2773.62 3123.85 2771.57 3116.2 2772.59C3112.65 2773.07 3109.56 2770.13 3109.52 2766.55L3108.71 2704.82L3172.46 2711.16Z" />
					<path id="Layer" class="shp45" d="M2951.36 1874.8L2698.49 2646.24C2698.49 2646.24 2746.99 2678 2770.09 2676.68L3070.45 2056.7C3070.45 2056.7 3123 2438.71 3097.54 2712.97L3183.57 2719.53C3183.57 2719.53 3323.45 2018.67 3217.5 1778.62L2951.36 1874.8Z" />
					<path id="Layer" class="shp46" d="M3068.82 2050.04C3068.92 2050.04 3069.03 2050.03 3069.13 2050.02C3070.47 2049.85 3071.42 2048.62 3071.25 2047.28L3061.44 1969.39C3061.27 1968.05 3060.06 1967.12 3058.7 1967.27C3057.36 1967.44 3056.41 1968.66 3056.58 1970.01L3066.39 2047.89C3066.55 2049.13 3067.6 2050.04 3068.82 2050.04Z" />
					<path id="Layer" class="shp47" d="M2903.95 1195.97C2903.95 1195.97 3108.82 1214.16 3079.84 1360.14C3079.84 1360.14 3193.09 1573.26 3246.03 1824.31C3247.76 1832.48 3242.28 1840.45 3234.06 1841.86L2892.87 1900.28C2883.46 1901.89 2874.38 1896.02 2871.99 1886.77L2790.47 1571.72L2758.71 1718.2L2657.77 1691.9L2742.74 1261.47C2742.74 1261.47 2754.6 1198.67 2903.95 1195.97Z" />
					<path id="Layer" class="shp48" d="M2788.74 1557.63C2788.92 1557.63 2789.1 1557.61 2789.28 1557.57C2790.65 1557.27 2791.52 1555.92 2791.22 1554.54L2762.78 1423.96C2762.48 1422.59 2761.15 1421.73 2759.76 1422.02C2758.39 1422.32 2757.52 1423.67 2757.82 1425.04L2786.26 1555.63C2786.52 1556.81 2787.57 1557.63 2788.74 1557.63Z" />
					<path id="Layer" class="shp49" d="M2809.33 1946.22C2820.08 1940.31 2832.66 1938.67 2844.56 1941.63L2868.3 1947.54C2873.35 1948.8 2878.34 1945.32 2878.92 1940.16L2903.49 1721.51C2934.21 1736.1 2978.52 1734.35 2993.13 1733.29L2936.59 1991.05L2738.74 1991.05L2809.33 1946.22Z" />
					<path id="Layer" class="shp50" d="M2283.65 1471.95L2289.63 1452.08C2293.07 1440.64 2301.52 1431.39 2312.6 1426.93L2420.76 1383.43C2420.76 1383.43 2422.39 1369.56 2397.91 1360.14C2373.42 1350.71 2379.15 1323.29 2379.15 1323.29C2379.15 1323.29 2412.6 1338.55 2461.57 1362.75C2489.58 1376.59 2505.29 1401.03 2513.63 1419.42L2758.71 1718.2L2729.93 1737.97C2692.1 1763.97 2640.05 1751.2 2618.55 1710.63L2485.78 1456.04C2419.12 1476.06 2351.67 1479.89 2283.65 1471.95Z" />
					<path id="Layer" class="shp51" d="M2837.58 1056.59L2900.59 1232.95C2900.59 1232.95 2844.79 1276.57 2804.07 1261.82L2772.32 1160.73C2772.32 1160.73 2796.57 1037.17 2837.58 1056.59Z" />
					<path id="Layer" class="shp52" d="M2649.51 993.25C2649.51 995.97 2710.21 1165.08 2710.21 1165.08L2806.04 1128.37L2772.32 959.54C2772.32 959.54 2649.51 947.76 2649.51 993.25Z" />
					<path id="Layer" class="shp53" d="M2755.51 1000.67L2780.22 1088.16C2780.54 1089.28 2780.7 1090.41 2780.7 1091.58C2780.71 1098.71 2778.94 1123.27 2753.93 1119.93C2731.24 1116.9 2710.48 1114.47 2697.29 1120.68C2691.36 1123.47 2688.52 1130.29 2690.74 1136.46C2696.26 1151.82 2709.33 1186.21 2725.25 1214.36C2728.48 1220.07 2735.57 1222.29 2741.54 1219.57C2759.54 1211.39 2797.01 1193.06 2823.71 1171.25C2827.32 1168.29 2829.06 1163.64 2828.2 1159.05C2824 1136.67 2811.49 1068.61 2810.94 1049.1C2810.42 1030.79 2830.97 1016.81 2840.01 1011.56C2842.98 1009.83 2845.09 1007 2845.89 1003.66C2848.73 991.88 2851.14 965.21 2817.12 959.33C2810 958.1 2805.35 951.28 2806.8 944.2C2809.68 930.11 2808.76 909.37 2781.99 901.73C2754.79 893.97 2737.67 910.34 2728.96 922.9C2725.44 927.97 2718.86 929.62 2713.22 927.1C2710 925.67 2706.13 925.6 2701.96 929.12C2696.34 933.85 2687.79 932.41 2683.66 926.33C2675.73 914.66 2661.31 903 2636.92 910.9C2593.63 924.9 2595.69 974.82 2611.56 1001.95C2627.43 1029.09 2673.51 1011.23 2695.32 993.25C2711.9 979.58 2737.15 987.76 2748.3 992.47C2751.84 993.96 2754.47 996.98 2755.51 1000.67Z" />
					<path id="Layer" class="shp54" d="M2819.62 1081.04C2819.62 1081.04 2794 1032.57 2810.94 1017.35C2827.88 1002.13 2856.59 1004.62 2855.81 1042.53C2854.85 1089.67 2819.62 1081.04 2819.62 1081.04Z" />
					<path id="Layer" class="shp55" d="M2973.25 1736.57C2987.23 1736.57 2997.21 1735.51 2998.29 1735.39L3000.11 1735.18L3074.71 1387.37C3075.01 1386 3074.13 1384.65 3072.76 1384.35C3071.37 1384.05 3070.04 1384.93 3069.75 1386.3L2995.92 1730.51C2984.82 1731.48 2925.53 1735.42 2894.23 1713.25L2958.86 1411.06L2945.37 1385.65C2944.71 1384.41 2943.17 1383.93 2941.93 1384.59C2940.69 1385.25 2940.22 1386.79 2940.88 1388.03L2953.5 1411.81L2888.58 1715.38L2889.88 1716.36C2912.49 1733.35 2948.92 1736.57 2973.25 1736.57Z" />
					<path id="Layer" class="shp56" d="M902.42 2820.19C900.79 2820.19 899.13 2819.77 897.53 2818.9C891.26 2815.44 888.36 2806.13 891.06 2798.1L1150.53 2026.27C1153.23 2018.24 1160.5 2014.53 1166.79 2017.98C1173.06 2021.44 1175.96 2030.75 1173.26 2038.78L913.79 2810.61C911.77 2816.6 907.21 2820.19 902.42 2820.19Z" />
					<path id="Layer" class="shp57" d="M1194.73 2820.19C1189.93 2820.19 1185.37 2816.6 1183.36 2810.61L923.88 2038.78C921.18 2030.75 924.08 2021.44 930.36 2017.98C936.63 2014.53 943.91 2018.24 946.61 2026.27L1206.09 2798.1C1208.79 2806.13 1205.89 2815.44 1199.61 2818.9C1198.02 2819.77 1196.36 2820.19 1194.73 2820.19Z" />
					<path id="Layer" class="shp58" d="M2663.41 2820.19C2661.78 2820.19 2660.12 2819.77 2658.52 2818.9C2652.25 2815.44 2649.35 2806.13 2652.05 2798.1L2911.52 2026.27C2914.22 2018.24 2921.49 2014.53 2927.78 2017.98C2934.05 2021.44 2936.95 2030.75 2934.25 2038.78L2674.78 2810.61C2672.76 2816.6 2668.2 2820.19 2663.41 2820.19Z" />
					<path id="Layer" class="shp59" d="M2955.71 2820.19C2950.92 2820.19 2946.36 2816.6 2944.34 2810.61L2684.87 2038.78C2682.17 2030.75 2685.07 2021.44 2691.34 2017.98C2697.62 2014.53 2704.9 2018.24 2707.6 2026.27L2967.07 2798.1C2969.77 2806.13 2966.88 2815.44 2960.6 2818.9C2959.01 2819.77 2957.35 2820.19 2955.71 2820.19Z" />
					<path id="Layer" class="shp60" d="M3046.69 1981.63C3047.9 1977.26 3046.25 1972.74 3042.19 1969.31C3038.13 1965.88 3032.08 1963.89 3025.69 1963.89L863.18 1963.89C854.78 1963.89 846.97 1966.87 842.45 1971.8C837.92 1976.73 837.32 1982.93 840.84 1988.24L864.27 2023.59C869.64 2031.69 881.26 2036.87 894.06 2036.87L3010.86 2036.87C3022.76 2036.87 3032.99 2030.99 3035.25 2022.84L3046.69 1981.63Z" />
					<path id="Layer" class="shp61" d="M2397.69 1084.9C2397.69 1084.9 1939.21 858.37 2089.15 691.58C2239.09 524.79 2518.63 591.45 2532.79 767C2546.95 942.55 2206.71 901.36 2397.69 1084.9Z" />
					<path id="Layer" class="shp62" d="M2123.31 734.66C2123.31 737.21 2125.38 739.28 2127.93 739.28L2330.28 739.28C2332.83 739.28 2334.9 737.21 2334.9 734.66C2334.9 732.1 2332.83 730.03 2330.28 730.03L2127.93 730.03C2125.38 730.03 2123.31 732.1 2123.31 734.66Z" />
					<path id="Layer" class="shp63" d="M2390.36 739.28L2450.4 739.28C2452.95 739.28 2455.02 737.21 2455.02 734.66C2455.02 732.1 2452.95 730.03 2450.4 730.03L2390.36 730.03C2387.8 730.03 2385.74 732.1 2385.74 734.66C2385.74 737.21 2387.8 739.28 2390.36 739.28Z" />
					<path id="Layer" class="shp64" d="M2116.49 775.62C2116.49 778.17 2118.56 780.24 2121.12 780.24L2197.09 780.24C2199.65 780.24 2201.72 778.17 2201.72 775.62C2201.72 773.06 2199.65 771 2197.09 771L2121.12 771C2118.56 771 2116.49 773.06 2116.49 775.62Z" />
					<path id="Layer" class="shp65" d="M2303.96 775.62C2303.96 778.17 2306.02 780.24 2308.58 780.24L2443.58 780.24C2446.13 780.24 2448.2 778.17 2448.2 775.62C2448.2 773.06 2446.13 771 2443.58 771L2308.58 771C2306.02 771 2303.96 773.06 2303.96 775.62Z" />
					<path id="Layer" class="shp66" d="M2114.3 821.21L2316.27 821.21C2318.82 821.21 2320.89 819.14 2320.89 816.59C2320.89 814.03 2318.82 811.96 2316.27 811.96L2114.3 811.96C2111.75 811.96 2109.68 814.03 2109.68 816.59C2109.68 819.14 2111.75 821.21 2114.3 821.21Z" />
					<path id="Layer" class="shp67" d="M2366.84 821.21L2436.76 821.21C2439.32 821.21 2441.39 819.14 2441.39 816.59C2441.39 814.03 2439.32 811.96 2436.76 811.96L2366.84 811.96C2364.29 811.96 2362.22 814.03 2362.22 816.59C2362.22 819.14 2364.29 821.21 2366.84 821.21Z" />
				</g>
			</g>
		</g>
	</g>
</svg>